if (_typeface_js && _typeface_js.loadFace) _typeface_js.loadFace({"glyphs":{"0":{"ha":800,"x_min":72,"x_max":728,"o":"m 728 499 q 708 278 728 374 q 649 118 689 183 q 548 19 610 53 q 400 -14 486 -14 q 219 44 293 -14 q 109 215 146 101 q 72 499 72 329 q 103 763 72 649 q 208 942 135 878 q 401 1007 281 1007 q 592 944 521 1007 q 696 766 664 881 q 728 499 728 651 m 196 499 q 217 269 196 360 q 284 133 239 178 q 400 88 329 88 q 519 133 474 88 q 584 269 564 178 q 604 499 604 360 q 587 715 604 624 q 526 855 569 806 q 401 904 482 904 q 277 853 322 904 q 214 712 232 803 q 196 499 196 621 z "},"1":{"ha":800,"x_min":110,"x_max":518,"o":"m 518 0 l 393 0 l 393 672 q 393 735 393 703 q 394 801 393 768 q 396 857 394 833 q 363 826 378 840 q 325 796 347 813 l 176 682 l 110 764 l 407 992 l 518 992 l 518 0 z "},"2":{"ha":800,"x_min":67,"x_max":711,"o":"m 711 0 l 67 0 l 67 86 l 351 383 q 467 512 422 457 q 532 617 511 567 q 553 729 553 668 q 505 856 553 811 q 375 900 457 900 q 264 876 321 900 q 149 804 207 851 l 81 886 q 172 950 125 924 q 272 991 219 976 q 388 1006 325 1006 q 540 972 475 1006 q 640 880 604 939 q 676 743 676 821 q 649 593 676 660 q 567 463 621 526 q 435 324 513 400 l 228 108 l 228 104 l 711 104 l 711 0 z "},"3":{"ha":800,"x_min":58,"x_max":711,"o":"m 681 769 q 652 651 681 703 q 576 567 624 600 q 467 521 528 535 l 467 518 q 647 443 583 503 q 711 275 711 383 q 670 127 711 193 q 548 24 629 61 q 343 -14 467 -14 q 185 2 256 -14 q 58 43 115 18 l 58 150 q 188 105 117 122 q 329 88 260 88 q 521 140 460 88 q 582 281 582 192 q 550 387 582 346 q 457 446 518 428 q 306 464 396 464 l 211 464 l 211 561 l 307 561 q 438 581 381 561 q 528 642 496 601 q 560 746 560 683 q 508 865 560 826 q 371 903 457 903 q 277 892 322 903 q 193 862 232 881 q 119 818 154 843 l 67 904 q 204 977 128 949 q 386 1006 281 1006 q 601 944 521 1006 q 681 769 681 882 z "},"4":{"ha":800,"x_min":31,"x_max":783,"o":"m 783 240 l 626 240 l 626 0 l 504 0 l 504 240 l 31 240 l 31 331 l 510 996 l 626 996 l 626 338 l 783 338 l 783 240 m 504 644 q 505 708 504 679 q 506 760 506 736 q 506 803 506 783 q 507 840 507 824 l 503 840 q 469 783 483 806 q 428 722 454 760 l 149 338 l 504 338 l 504 644 z "},"5":{"ha":800,"x_min":89,"x_max":719,"o":"m 407 614 q 570 578 500 614 q 680 476 640 543 q 719 313 719 410 q 676 137 719 210 q 549 25 632 64 q 350 -14 467 -14 q 203 2 268 -14 q 89 43 138 18 l 89 151 q 204 106 138 125 q 342 88 271 88 q 476 113 419 88 q 563 189 532 139 q 594 310 594 239 q 535 460 594 406 q 356 514 475 514 q 257 506 303 514 q 169 486 211 499 l 115 517 l 156 992 l 657 992 l 657 886 l 261 886 l 235 592 q 304 606 264 599 q 407 614 344 614 z "},"6":{"ha":800,"x_min":76,"x_max":735,"o":"m 76 421 q 94 624 76 532 q 147 788 111 717 q 236 908 182 858 q 364 982 290 957 q 531 1007 438 1007 q 605 1003 568 1007 q 669 992 642 999 l 669 890 q 608 903 643 899 q 529 907 574 907 q 349 863 424 907 q 233 725 274 818 q 189 485 193 632 l 194 485 q 245 554 213 521 q 328 608 278 588 q 449 629 379 629 q 659 547 583 629 q 735 322 735 465 q 697 145 735 221 q 588 28 660 69 q 418 -14 517 -14 q 269 19 333 -14 q 162 112 204 53 q 98 250 119 171 q 76 421 76 329 m 415 88 q 563 149 511 88 q 614 321 614 210 q 567 474 614 418 q 421 529 519 529 q 306 502 354 529 q 231 434 257 475 q 204 354 204 393 q 214 273 204 318 q 247 185 224 228 q 312 115 271 143 q 415 88 353 88 z "},"7":{"ha":800,"x_min":71,"x_max":731,"o":"m 213 0 l 597 886 l 71 886 l 71 992 l 731 992 l 731 918 l 342 0 l 213 0 z "},"8":{"ha":800,"x_min":72,"x_max":725,"o":"m 400 1006 q 613 946 533 1006 q 693 774 693 886 q 667 667 693 713 q 595 588 642 622 q 486 528 549 554 q 610 463 556 500 q 694 376 664 426 q 725 256 725 326 q 685 113 725 174 q 570 19 644 53 q 394 -14 496 -14 q 221 19 293 -14 q 110 113 149 53 q 72 250 72 172 q 101 375 72 324 q 183 463 131 426 q 303 525 235 499 q 203 583 249 550 q 131 662 158 615 q 104 772 104 708 q 142 898 104 846 q 247 978 179 950 q 400 1006 314 1006 m 189 254 q 245 127 189 174 q 394 81 301 81 q 551 126 492 81 q 610 257 610 171 q 586 344 610 307 q 522 410 563 382 q 426 458 481 438 l 396 471 q 291 422 338 450 q 217 353 244 393 q 189 254 189 313 m 399 911 q 272 873 324 911 q 221 763 221 835 q 271 654 221 696 q 400 581 321 613 q 495 631 456 606 q 556 688 535 656 q 576 765 576 721 q 528 874 576 838 q 399 911 481 911 z "},"9":{"ha":800,"x_min":64,"x_max":722,"o":"m 722 568 q 692 308 722 418 q 602 126 661 197 q 459 19 543 54 q 268 -15 375 -15 q 190 -12 231 -15 q 122 -1 150 -8 l 122 103 q 185 90 149 94 q 263 85 222 85 q 449 131 374 85 q 565 270 525 176 q 610 510 606 364 l 604 510 q 553 439 586 472 q 469 384 519 406 q 346 363 418 363 q 139 445 214 363 q 64 672 64 528 q 101 849 64 774 q 210 965 139 924 q 382 1006 282 1006 q 531 973 467 1006 q 637 881 594 940 q 701 742 679 822 q 722 568 722 661 m 385 904 q 236 844 288 904 q 185 672 185 783 q 233 518 185 575 q 379 461 282 461 q 492 490 444 461 q 567 559 540 518 q 594 639 594 600 q 585 720 594 675 q 552 807 575 765 q 488 876 529 849 q 385 904 447 904 z "},"\r":{"ha":361,"x_min":0,"x_max":0,"o":""},"\u0000":{"ha":0,"x_min":0,"x_max":0,"o":""},"א":{"ha":878,"x_min":50,"x_max":828,"o":"m 682 0 q 557 201 621 104 q 430 385 493 299 q 306 547 367 472 q 238 631 271 590 q 176 708 204 672 q 123 774 147 744 q 81 824 99 803 l 235 824 q 290 756 261 793 q 354 674 319 718 q 431 578 389 631 q 558 401 490 496 q 696 206 626 307 q 828 0 765 104 l 682 0 m 50 0 l 83 231 q 119 378 94 311 q 190 497 143 446 q 317 579 238 547 l 358 496 q 279 433 308 472 q 235 341 250 393 q 210 226 219 289 l 176 0 l 50 0 m 561 342 l 519 425 q 606 489 572 450 q 656 579 639 528 q 679 693 674 631 l 692 824 l 819 824 l 807 689 q 772 542 800 608 q 692 425 744 475 q 561 342 640 375 z "},"אּ":{"ha":878,"x_min":50,"x_max":828,"o":"m 682 0 q 557 201 621 104 q 430 385 493 299 q 306 547 367 472 q 238 631 271 590 q 176 708 204 672 q 123 774 147 744 q 81 824 99 803 l 235 824 q 290 756 261 793 q 354 674 319 718 q 431 578 389 631 q 558 401 490 496 q 696 206 626 307 q 828 0 765 104 l 682 0 m 50 0 l 83 231 q 119 378 94 311 q 190 497 143 446 q 317 579 238 547 l 358 496 q 279 433 308 472 q 235 341 250 393 q 210 226 219 289 l 176 0 l 50 0 m 561 342 l 519 425 q 606 489 572 450 q 656 579 639 528 q 679 693 674 631 l 692 824 l 819 824 l 807 689 q 772 542 800 608 q 692 425 744 475 q 561 342 640 375 m 393 119 q 365 131 376 119 q 354 158 354 142 q 365 185 354 174 q 393 196 376 196 q 420 185 408 196 q 432 158 432 174 q 420 131 432 142 q 393 119 408 119 z "},"ﭏ":{"ha":893,"x_min":26,"x_max":831,"o":"m 685 0 q 560 201 624 104 q 432 385 496 299 q 308 547 368 472 q 227 647 260 607 q 168 718 194 688 l 26 718 l 26 1040 l 154 1056 l 154 824 l 238 824 q 293 756 264 793 q 357 674 322 718 q 432 578 392 631 q 484 510 457 546 q 539 433 511 474 q 615 499 586 461 q 660 585 643 538 q 682 693 676 633 l 694 824 l 822 824 l 810 689 q 778 549 803 613 q 708 438 753 486 q 594 353 664 389 q 716 181 656 269 q 831 0 776 92 l 685 0 z "},"אַ":{"ha":878,"x_min":50,"x_max":828,"o":"m 682 0 q 557 201 621 104 q 430 385 493 299 q 306 547 367 472 q 238 631 271 590 q 176 708 204 672 q 123 774 147 744 q 81 824 99 803 l 235 824 q 290 756 261 793 q 354 674 319 718 q 431 578 389 631 q 558 401 490 496 q 696 206 626 307 q 828 0 765 104 l 682 0 m 50 0 l 83 231 q 119 378 94 311 q 190 497 143 446 q 317 579 238 547 l 358 496 q 279 433 308 472 q 235 341 250 393 q 210 226 219 289 l 176 0 l 50 0 m 561 342 l 519 425 q 606 489 572 450 q 656 579 639 528 q 679 693 674 631 l 692 824 l 819 824 l 807 689 q 772 542 800 608 q 692 425 744 475 q 561 342 640 375 m 306 -164 l 306 -110 l 550 -110 l 550 -164 l 306 -164 z "},"אָ":{"ha":878,"x_min":50,"x_max":828,"o":"m 682 0 q 557 201 621 104 q 430 385 493 299 q 306 547 367 472 q 238 631 271 590 q 176 708 204 672 q 123 774 147 744 q 81 824 99 803 l 235 824 q 290 756 261 793 q 354 674 319 718 q 431 578 389 631 q 558 401 490 496 q 696 206 626 307 q 828 0 765 104 l 682 0 m 50 0 l 83 231 q 119 378 94 311 q 190 497 143 446 q 317 579 238 547 l 358 496 q 279 433 308 472 q 235 341 250 393 q 210 226 219 289 l 176 0 l 50 0 m 561 342 l 519 425 q 606 489 572 450 q 656 579 639 528 q 679 693 674 631 l 692 824 l 819 824 l 807 689 q 772 542 800 608 q 692 425 744 475 q 561 342 640 375 m 400 -297 l 400 -164 l 304 -164 l 304 -110 l 549 -110 l 549 -164 l 453 -164 l 453 -297 l 400 -297 z "},"﬩":{"ha":790,"x_min":67,"x_max":724,"o":"m 439 557 l 724 557 l 724 468 l 67 468 l 67 557 l 350 557 l 350 839 l 439 839 l 439 557 z "},"֢":{"ha":0,"x_min":76,"x_max":275,"o":"m 150 -299 l 150 -239 q 95 -208 114 -233 q 76 -135 76 -183 l 76 -107 l 125 -107 l 125 -135 q 137 -181 125 -167 q 176 -194 149 -194 q 215 -181 204 -194 q 226 -135 226 -167 l 226 -107 l 275 -107 l 275 -135 q 256 -208 275 -183 q 200 -239 238 -232 l 200 -299 l 150 -299 z "},"ע":{"ha":824,"x_min":53,"x_max":757,"o":"m 53 -50 l 53 57 l 333 119 q 444 160 394 135 q 528 238 493 186 q 586 378 564 289 q 615 608 608 467 l 629 824 l 757 824 l 744 608 q 722 405 739 493 q 674 251 704 317 q 597 140 643 186 q 485 64 550 94 q 335 14 421 33 l 53 -50 m 272 58 l 90 815 l 214 832 l 357 240 q 361 181 364 213 q 348 119 358 150 q 321 58 338 88 l 272 58 z "},"ﬠ":{"ha":808,"x_min":47,"x_max":753,"o":"m 49 -1 l 47 106 l 329 106 q 441 132 392 106 q 526 216 490 158 q 583 370 561 274 q 611 608 604 467 l 625 824 l 753 824 l 739 608 q 717 398 733 493 q 672 229 701 303 q 595 104 642 156 q 484 26 549 53 q 331 0 419 0 l 49 -1 m 268 54 l 86 815 l 210 832 l 353 240 q 353 147 363 197 q 317 54 343 96 l 268 54 z "},"ב":{"ha":794,"x_min":57,"x_max":743,"o":"m 513 0 l 513 558 q 474 678 513 639 q 358 718 436 718 l 99 718 l 113 824 l 368 824 q 572 758 503 824 q 640 563 640 692 l 640 92 q 620 44 635 67 q 588 0 606 22 l 513 0 m 57 0 l 57 106 l 743 106 l 728 0 l 57 0 z "},"בּ":{"ha":794,"x_min":57,"x_max":743,"o":"m 513 0 l 513 558 q 474 678 513 639 q 358 718 436 718 l 99 718 l 113 824 l 368 824 q 572 758 503 824 q 640 563 640 692 l 640 92 q 620 44 635 67 q 588 0 606 22 l 513 0 m 57 0 l 57 106 l 743 106 l 728 0 l 57 0 m 290 378 q 263 389 274 378 q 251 417 251 400 q 263 443 251 432 q 290 454 274 454 q 317 443 306 454 q 329 417 329 432 q 317 389 329 400 q 290 378 306 378 z "},"בֿ":{"ha":785,"x_min":57,"x_max":743,"o":"m 513 0 l 513 558 q 474 678 513 639 q 358 718 436 718 l 99 718 l 113 824 l 368 824 q 572 758 503 824 q 640 563 640 692 l 640 92 q 620 44 635 67 q 588 0 606 22 l 513 0 m 57 0 l 57 106 l 743 106 l 728 0 l 57 0 m 174 935 l 174 989 l 447 989 l 447 935 l 174 935 z "},"ּ":{"ha":0,"x_min":76,"x_max":154,"o":"m 115 378 q 88 389 99 378 q 76 417 76 400 q 88 443 76 432 q 115 454 99 454 q 142 443 131 454 q 154 417 154 432 q 142 389 154 400 q 115 378 131 378 z "},"ד":{"ha":753,"x_min":53,"x_max":710,"o":"m 53 718 l 53 824 l 710 824 l 696 718 l 53 718 m 447 0 l 447 617 q 451 653 447 633 q 465 692 456 674 q 490 718 474 710 l 590 718 q 578 688 581 708 q 575 642 575 667 l 575 0 l 447 0 z "},"דּ":{"ha":753,"x_min":53,"x_max":710,"o":"m 53 718 l 53 824 l 710 824 l 696 718 l 53 718 m 447 0 l 447 617 q 451 653 447 633 q 465 692 456 674 q 490 718 474 710 l 590 718 q 578 688 581 708 q 575 642 575 667 l 575 0 l 447 0 m 225 378 q 197 389 208 378 q 186 417 186 400 q 197 443 186 432 q 225 454 208 454 q 252 443 240 454 q 264 417 264 432 q 252 389 264 400 q 225 378 240 378 z "},"֧":{"ha":0,"x_min":76,"x_max":260,"o":"m 88 -321 l 88 -283 l 190 -267 l 76 -121 l 244 -89 l 244 -129 l 147 -147 l 260 -292 l 88 -321 z "},"֭":{"ha":0,"x_min":69,"x_max":250,"o":"m 250 -279 q 115 -234 160 -279 q 69 -107 69 -189 l 124 -107 q 153 -195 124 -164 q 250 -226 183 -226 l 250 -279 z "},"֑":{"ha":0,"x_min":76,"x_max":275,"o":"m 76 -299 l 76 -271 q 94 -199 76 -224 q 150 -168 113 -175 l 150 -107 l 200 -107 l 200 -168 q 257 -199 239 -175 q 275 -271 275 -224 l 275 -299 l 226 -299 l 226 -272 q 215 -226 226 -240 q 176 -212 204 -212 q 137 -226 149 -212 q 125 -272 125 -240 l 125 -299 l 76 -299 z "},"ך":{"ha":757,"x_min":60,"x_max":667,"o":"m 539 -265 l 539 522 q 497 667 539 617 q 381 718 456 718 l 60 718 l 74 824 l 385 824 q 594 745 522 824 q 667 522 667 667 l 667 -258 l 539 -265 z "},"ךּ":{"ha":757,"x_min":60,"x_max":667,"o":"m 539 -265 l 539 522 q 497 667 539 617 q 381 718 456 718 l 60 718 l 74 824 l 385 824 q 594 745 522 824 q 667 522 667 667 l 667 -258 l 539 -265 m 275 378 q 247 389 258 378 q 236 417 236 400 q 247 443 236 432 q 275 454 258 454 q 302 443 290 454 q 314 417 314 432 q 302 389 314 400 q 275 378 290 378 z "},"ם":{"ha":950,"x_min":68,"x_max":847,"o":"m 575 824 q 778 758 710 824 q 847 563 847 692 l 847 0 l 154 0 l 154 617 q 158 653 154 633 q 172 692 163 674 q 197 718 181 710 l 68 718 l 82 824 l 575 824 m 719 106 l 719 558 q 681 678 719 639 q 565 718 643 718 l 292 718 q 284 683 286 704 q 282 642 282 663 l 282 106 l 719 106 z "},"ן":{"ha":457,"x_min":61,"x_max":315,"o":"m 188 -265 l 188 824 l 315 824 l 315 -258 l 188 -265 m 61 718 l 76 824 l 271 824 l 271 718 l 61 718 z "},"ף":{"ha":861,"x_min":67,"x_max":761,"o":"m 633 -265 l 633 419 q 571 649 633 567 q 389 732 508 732 q 242 682 292 732 q 192 554 192 632 q 220 450 192 493 q 310 397 249 407 q 332 392 322 394 q 349 390 342 390 l 339 296 q 309 296 326 294 q 265 301 292 297 q 117 385 168 317 q 67 557 67 454 q 104 703 67 639 q 214 802 142 767 q 389 838 286 838 q 663 726 565 838 q 761 419 761 615 l 761 -258 l 633 -265 z "},"ףּ":{"ha":861,"x_min":67,"x_max":761,"o":"m 633 -265 l 633 419 q 571 649 633 567 q 389 732 508 732 q 242 682 292 732 q 192 554 192 632 q 220 450 192 493 q 310 397 249 407 q 332 392 322 394 q 349 390 342 390 l 339 296 q 309 296 326 294 q 265 301 292 297 q 117 385 168 317 q 67 557 67 454 q 104 703 67 639 q 214 802 142 767 q 389 838 286 838 q 663 726 565 838 q 761 419 761 615 l 761 -258 l 633 -265 m 474 342 q 446 353 457 342 q 435 381 435 364 q 446 407 435 396 q 474 418 457 418 q 501 407 489 418 q 513 381 513 396 q 501 353 513 364 q 474 342 489 342 z "},"ץ":{"ha":735,"x_min":39,"x_max":669,"o":"m 415 -267 l 353 -18 q 274 254 318 124 q 179 508 229 385 q 108 678 144 596 q 39 824 72 760 l 181 824 q 217 747 196 797 q 263 639 239 697 q 307 525 286 581 q 403 262 357 397 q 485 -18 450 126 l 547 -258 l 415 -267 m 367 281 l 339 367 q 431 426 396 388 q 485 515 465 465 q 515 615 506 564 q 529 711 524 667 l 543 824 l 669 824 l 656 697 q 633 580 650 643 q 583 456 617 517 q 498 350 550 396 q 367 281 446 304 z "},"ﬦ":{"ha":1103,"x_min":46,"x_max":1039,"o":"m 767 824 q 970 758 901 824 q 1039 563 1039 692 l 1039 0 l 133 0 l 133 617 q 137 653 133 633 q 149 692 140 674 q 175 718 158 710 l 46 718 l 61 824 l 767 824 m 911 106 l 911 558 q 873 678 911 639 q 758 718 835 718 l 271 718 q 263 683 265 704 q 261 642 261 663 l 261 106 l 911 106 z "},"׳":{"ha":258,"x_min":25,"x_max":219,"o":"m 25 463 q 51 550 39 503 q 75 645 64 597 q 94 739 86 693 q 106 824 101 785 l 217 824 l 219 811 q 194 695 210 757 q 158 573 178 633 q 117 463 139 513 l 25 463 z "},"֜":{"ha":0,"x_min":69,"x_max":250,"o":"m 69 896 q 115 1023 69 978 q 250 1068 160 1068 l 250 1014 q 153 983 183 1014 q 124 896 124 953 l 69 896 z "},"֝":{"ha":0,"x_min":69,"x_max":250,"o":"m 69 896 q 115 1023 69 978 q 250 1068 160 1068 l 250 1014 q 153 983 183 1014 q 124 896 124 953 l 69 896 z "},"״":{"ha":507,"x_min":25,"x_max":471,"o":"m 25 463 q 51 550 39 503 q 75 645 64 597 q 94 739 86 693 q 106 824 101 785 l 217 824 l 219 811 q 194 695 210 757 q 158 573 178 633 q 117 463 139 513 l 25 463 m 276 463 q 311 582 296 518 q 339 709 326 646 q 356 824 351 772 l 468 824 l 471 811 q 445 695 461 757 q 410 573 429 633 q 367 463 390 513 l 276 463 z "},"֞":{"ha":0,"x_min":69,"x_max":432,"o":"m 250 896 q 296 1023 250 978 q 432 1068 342 1068 l 432 1014 q 336 983 367 1014 q 306 896 306 953 l 250 896 m 69 896 q 115 1022 69 976 q 250 1068 160 1068 l 250 1014 q 154 983 185 1014 q 124 896 124 953 l 69 896 z "},"ג":{"ha":519,"x_min":32,"x_max":488,"o":"m 374 -7 l 321 178 l 311 178 q 259 102 286 135 q 201 47 232 69 q 133 12 169 24 q 53 0 97 0 l 32 0 l 32 108 l 50 108 q 133 124 93 108 q 206 167 172 140 q 265 222 240 193 q 301 276 289 250 l 301 617 q 276 694 301 671 q 194 718 251 718 l 108 718 l 122 824 l 226 824 q 339 801 294 824 q 406 736 383 779 q 429 629 429 693 l 429 224 l 488 18 l 374 -7 z "},"גּ":{"ha":519,"x_min":32,"x_max":488,"o":"m 374 -7 l 321 178 l 311 178 q 259 102 286 135 q 201 47 232 69 q 133 12 169 24 q 53 0 97 0 l 32 0 l 32 108 l 50 108 q 133 124 93 108 q 206 167 172 140 q 265 222 240 193 q 301 276 289 250 l 301 617 q 276 694 301 671 q 194 718 251 718 l 108 718 l 122 824 l 226 824 q 339 801 294 824 q 406 736 383 779 q 429 629 429 693 l 429 224 l 488 18 l 374 -7 m 151 396 q 124 407 135 396 q 113 435 113 418 q 124 461 113 450 q 151 472 135 472 q 178 461 167 472 q 190 435 190 450 q 178 407 190 418 q 151 396 167 396 z "},"ֲ":{"ha":0,"x_min":72,"x_max":447,"o":"m 72 -164 l 72 -110 l 314 -110 l 314 -164 l 72 -164 m 410 -175 q 381 -163 393 -175 q 369 -135 369 -151 q 381 -108 369 -119 q 410 -97 393 -97 q 436 -108 425 -97 q 447 -135 447 -119 q 436 -163 447 -151 q 410 -175 425 -175 m 410 -307 q 381 -296 393 -307 q 369 -268 369 -285 q 381 -241 369 -253 q 410 -229 393 -229 q 436 -241 425 -229 q 447 -268 447 -253 q 436 -296 447 -285 q 410 -307 425 -307 z "},"ֳ":{"ha":0,"x_min":72,"x_max":449,"o":"m 167 -294 l 167 -162 l 72 -162 l 72 -108 l 317 -108 l 317 -162 l 221 -162 l 221 -294 l 167 -294 m 410 -175 q 382 -163 393 -175 q 371 -135 371 -151 q 382 -108 371 -119 q 410 -97 393 -97 q 437 -108 425 -97 q 449 -135 449 -119 q 437 -163 449 -151 q 410 -175 425 -175 m 410 -307 q 382 -296 393 -307 q 371 -268 371 -285 q 382 -241 371 -253 q 410 -229 393 -229 q 437 -241 425 -229 q 449 -268 449 -253 q 437 -296 449 -285 q 410 -307 425 -307 z "},"ֱ":{"ha":0,"x_min":76,"x_max":443,"o":"m 189 -307 q 161 -296 172 -307 q 150 -268 150 -285 q 161 -241 150 -253 q 189 -229 172 -229 q 217 -241 206 -229 q 228 -268 228 -253 q 217 -296 228 -285 q 189 -307 206 -307 m 115 -175 q 88 -163 99 -175 q 76 -135 76 -151 q 88 -108 76 -119 q 115 -97 99 -97 q 142 -108 131 -97 q 154 -135 154 -119 q 142 -163 154 -151 q 115 -175 131 -175 m 265 -175 q 238 -163 249 -175 q 226 -135 226 -151 q 238 -108 226 -119 q 265 -97 249 -97 q 293 -108 282 -97 q 304 -135 304 -119 q 293 -163 304 -151 q 265 -175 282 -175 m 404 -175 q 376 -163 388 -175 q 365 -135 365 -151 q 376 -108 365 -119 q 404 -97 388 -97 q 431 -108 419 -97 q 443 -135 443 -119 q 431 -163 443 -151 q 404 -175 419 -175 m 404 -307 q 376 -296 388 -307 q 365 -268 365 -285 q 376 -241 365 -253 q 404 -229 388 -229 q 431 -241 419 -229 q 443 -268 443 -253 q 431 -296 443 -285 q 404 -307 419 -307 z "},"ה":{"ha":871,"x_min":74,"x_max":771,"o":"m 643 0 l 643 558 q 605 678 643 639 q 489 718 567 718 l 74 718 l 89 824 l 499 824 q 702 758 633 824 q 771 563 771 692 l 771 0 l 643 0 m 96 0 l 96 468 l 224 478 l 224 0 l 96 0 z "},"הּ":{"ha":871,"x_min":74,"x_max":771,"o":"m 643 0 l 643 558 q 605 678 643 639 q 489 718 567 718 l 74 718 l 89 824 l 499 824 q 702 758 633 824 q 771 563 771 692 l 771 0 l 643 0 m 96 0 l 96 468 l 224 478 l 224 0 l 96 0 m 413 378 q 385 389 396 378 q 374 417 374 400 q 385 443 374 432 q 413 454 396 454 q 440 443 428 454 q 451 417 451 432 q 440 389 451 400 q 413 378 428 378 z "},"ח":{"ha":919,"x_min":61,"x_max":817,"o":"m 544 824 q 748 758 679 824 q 817 563 817 692 l 817 0 l 689 0 l 689 558 q 651 678 689 639 q 536 718 613 718 l 289 718 q 271 671 281 706 q 261 563 261 636 l 261 0 l 133 0 l 133 531 q 146 641 133 592 q 182 717 158 690 l 154 722 l 154 824 l 544 824 m 61 718 l 75 824 l 381 824 l 381 718 l 61 718 z "},"ִ":{"ha":0,"x_min":76,"x_max":154,"o":"m 115 -175 q 88 -163 99 -175 q 76 -135 76 -151 q 88 -108 76 -119 q 115 -97 99 -97 q 142 -108 131 -97 q 154 -135 154 -119 q 142 -163 154 -151 q 115 -175 131 -175 z "},"ֹ":{"ha":0,"x_min":76,"x_max":154,"o":"m 115 922 q 88 934 99 922 q 76 963 76 946 q 88 989 76 978 q 115 1000 99 1000 q 142 989 131 1000 q 154 963 154 978 q 142 934 154 946 q 115 922 131 922 z "},"ֺ":{"ha":0,"x_min":76,"x_max":154,"o":"m 115 922 q 88 934 99 922 q 76 963 76 946 q 88 989 76 978 q 115 1000 99 1000 q 142 989 131 1000 q 154 963 154 978 q 142 934 154 946 q 115 922 131 922 z "},"-":{"ha":446,"x_min":46,"x_max":400,"o":"m 46 325 l 46 426 l 400 426 l 400 325 l 46 325 z "},"‐":{"ha":446,"x_min":46,"x_max":400,"o":"m 46 325 l 46 426 l 400 426 l 400 325 l 46 325 z "},"֬":{"ha":0,"x_min":78,"x_max":278,"o":"m 78 896 l 78 946 l 226 946 l 226 1088 l 278 1088 l 278 896 l 78 896 z "},"ﬞ":{"ha":0,"x_min":69,"x_max":374,"o":"m 374 1058 q 334 945 374 989 q 222 901 294 901 q 110 945 150 901 q 69 1058 69 989 l 117 1058 q 144 978 117 1007 q 222 950 172 950 q 300 981 272 950 q 328 1058 328 1013 l 374 1058 z "},"כ":{"ha":715,"x_min":63,"x_max":653,"o":"m 63 0 l 63 106 l 290 106 q 463 183 406 106 q 521 408 521 261 q 463 639 521 560 q 290 718 406 718 l 63 718 l 78 824 l 290 824 q 560 717 468 824 q 653 408 653 610 q 560 105 653 210 q 290 0 468 0 l 63 0 z "},"כּ":{"ha":715,"x_min":63,"x_max":653,"o":"m 63 0 l 63 106 l 290 106 q 463 183 406 106 q 521 408 521 261 q 463 639 521 560 q 290 718 406 718 l 63 718 l 78 824 l 290 824 q 560 717 468 824 q 653 408 653 610 q 560 105 653 210 q 290 0 468 0 l 63 0 m 256 378 q 228 389 239 378 q 217 417 217 400 q 228 443 217 432 q 256 454 239 454 q 283 443 271 454 q 294 417 294 432 q 283 389 294 400 q 256 378 271 378 z "},"כֿ":{"ha":715,"x_min":63,"x_max":653,"o":"m 63 0 l 63 106 l 290 106 q 463 183 406 106 q 521 408 521 261 q 463 639 521 560 q 290 718 406 718 l 63 718 l 78 824 l 290 824 q 560 717 468 824 q 653 408 653 610 q 560 105 653 210 q 290 0 468 0 l 63 0 m 103 935 l 103 989 l 376 989 l 376 935 l 103 935 z "},"ל":{"ha":725,"x_min":47,"x_max":676,"o":"m 175 824 l 676 824 l 663 743 l 414 0 l 282 0 l 525 718 l 47 718 l 47 1040 l 175 1056 l 175 824 z "},"לּ":{"ha":725,"x_min":47,"x_max":676,"o":"m 175 824 l 676 824 l 663 743 l 414 0 l 282 0 l 525 718 l 47 718 l 47 1040 l 175 1056 l 175 824 m 189 411 q 161 422 172 411 q 150 450 150 433 q 161 476 150 465 q 189 488 172 488 q 216 476 204 488 q 228 450 228 465 q 216 422 228 433 q 189 411 204 411 z "},"ׅ":{"ha":0,"x_min":76,"x_max":154,"o":"m 115 -175 q 88 -164 99 -175 q 76 -136 76 -153 q 88 -109 76 -121 q 115 -97 99 -97 q 142 -109 131 -97 q 154 -136 154 -121 q 142 -164 154 -153 q 115 -175 131 -175 z "},"֤":{"ha":0,"x_min":69,"x_max":246,"o":"m 182 -331 l 69 -217 l 179 -107 l 243 -107 l 133 -218 l 246 -331 l 182 -331 z "},"־":{"ha":450,"x_min":47,"x_max":401,"o":"m 47 718 l 47 824 l 401 824 l 401 718 l 47 718 z "},"֯":{"ha":0,"x_min":69,"x_max":274,"o":"m 172 893 q 99 923 129 893 q 69 996 69 953 q 99 1067 69 1038 q 172 1097 129 1097 q 244 1067 214 1097 q 274 996 274 1038 q 244 923 274 953 q 172 893 214 893 m 171 939 q 212 956 196 939 q 228 996 228 972 q 211 1035 228 1019 q 171 1051 194 1051 q 132 1035 149 1051 q 115 996 115 1019 q 132 956 115 972 q 171 939 149 939 z "},"מ":{"ha":917,"x_min":65,"x_max":863,"o":"m 83 0 l 179 493 l 65 824 l 193 824 l 261 604 l 265 604 q 301 692 281 650 q 356 766 322 733 q 438 818 389 799 q 551 838 486 838 q 714 794 644 838 q 823 663 783 750 q 863 443 863 576 l 863 424 q 822 201 863 296 q 702 53 781 106 q 510 0 624 0 l 371 0 l 385 106 l 504 106 q 675 193 615 106 q 735 424 735 281 l 735 443 q 708 606 735 543 q 635 700 681 669 q 529 731 589 731 q 431 710 471 731 q 365 653 390 689 q 326 576 340 618 q 304 489 311 533 l 215 0 l 83 0 z "},"מּ":{"ha":917,"x_min":65,"x_max":863,"o":"m 83 0 l 179 493 l 65 824 l 193 824 l 261 604 l 265 604 q 301 692 281 650 q 356 766 322 733 q 438 818 389 799 q 551 838 486 838 q 714 794 644 838 q 823 663 783 750 q 863 443 863 576 l 863 424 q 822 201 863 296 q 702 53 781 106 q 510 0 624 0 l 371 0 l 385 106 l 504 106 q 675 193 615 106 q 735 424 735 281 l 735 443 q 708 606 735 543 q 635 700 681 669 q 529 731 589 731 q 431 710 471 731 q 365 653 390 689 q 326 576 340 618 q 304 489 311 533 l 215 0 l 83 0 m 494 378 q 467 389 478 378 q 456 417 456 400 q 467 443 456 432 q 494 454 478 454 q 522 443 510 454 q 533 417 533 432 q 522 389 533 400 q 494 378 510 378 z "},"֦":{"ha":0,"x_min":69,"x_max":432,"o":"m 250 -310 l 250 -256 q 347 -224 317 -256 q 378 -137 378 -193 l 432 -137 q 387 -264 432 -218 q 250 -310 342 -310 m 69 -310 l 69 -256 q 166 -224 136 -256 q 196 -137 196 -193 l 250 -137 q 206 -264 250 -218 q 69 -310 161 -310 z "},"֥":{"ha":0,"x_min":69,"x_max":250,"o":"m 69 -279 l 69 -226 q 165 -195 135 -226 q 196 -107 196 -164 l 250 -107 q 205 -234 250 -189 q 69 -279 160 -279 z "},"֣":{"ha":0,"x_min":69,"x_max":272,"o":"m 69 -304 l 69 -253 l 221 -253 l 221 -107 l 272 -107 l 272 -304 l 69 -304 z "}," ":{"ha":369,"x_min":0,"x_max":0,"o":""},"נ":{"ha":526,"x_min":67,"x_max":424,"o":"m 296 0 l 296 618 q 285 676 296 653 q 254 708 275 699 q 203 718 233 718 l 108 718 l 122 824 l 235 824 q 375 774 326 824 q 424 631 424 725 l 424 0 l 296 0 m 67 0 l 67 106 l 357 106 l 357 0 l 67 0 z "},"נּ":{"ha":526,"x_min":67,"x_max":424,"o":"m 296 0 l 296 618 q 285 676 296 653 q 254 708 275 699 q 203 718 233 718 l 108 718 l 122 824 l 235 824 q 375 774 326 824 q 424 631 424 725 l 424 0 l 296 0 m 67 0 l 67 106 l 357 106 l 357 0 l 67 0 m 147 378 q 119 389 131 378 q 108 417 108 400 q 119 443 108 432 q 147 454 131 454 q 174 443 163 454 q 186 417 186 432 q 174 389 186 400 q 147 378 163 378 z "},"׆":{"ha":551,"x_min":110,"x_max":507,"o":"m 110 0 l 110 590 q 169 764 110 704 q 339 824 228 824 l 460 824 l 460 718 l 371 718 q 269 686 304 718 q 233 578 233 654 l 233 106 l 507 106 l 507 0 l 110 0 z "},"֫":{"ha":0,"x_min":69,"x_max":246,"o":"m 182 892 l 69 1006 l 179 1114 l 243 1114 l 133 1004 l 246 892 l 182 892 z "},"׀":{"ha":729,"x_min":318,"x_max":408,"o":"m 318 1058 l 408 1058 l 408 -332 l 318 -332 l 318 1058 z "},"֙":{"ha":0,"x_min":69,"x_max":250,"o":"m 196 903 q 166 991 196 960 q 69 1022 136 1022 l 69 1075 q 205 1030 160 1075 q 250 903 250 985 l 196 903 z "},"ַ":{"ha":0,"x_min":72,"x_max":317,"o":"m 72 -164 l 72 -110 l 317 -110 l 317 -164 l 72 -164 z "},"֡":{"ha":0,"x_min":76,"x_max":263,"o":"m 76 869 l 76 1056 l 125 1056 l 125 997 q 164 960 128 960 q 203 974 192 960 q 214 1019 214 988 l 214 1056 l 263 1056 l 263 1019 q 239 942 263 968 q 167 915 215 917 q 144 917 154 915 q 125 924 133 919 l 125 869 l 76 869 z "},"פ":{"ha":835,"x_min":74,"x_max":767,"o":"m 96 0 l 96 106 l 351 106 q 504 145 440 106 q 602 256 568 185 q 636 419 636 326 q 576 649 636 567 q 397 732 517 732 q 249 682 300 732 q 197 554 197 632 q 226 450 197 493 q 317 397 256 407 q 338 392 328 394 q 354 390 347 390 l 346 296 q 315 296 333 294 q 271 301 297 297 q 124 385 174 317 q 74 557 74 454 q 111 703 74 639 q 221 802 149 767 q 397 838 293 838 q 670 726 574 838 q 767 419 767 615 q 716 199 767 293 q 570 52 665 104 q 340 0 475 0 l 96 0 z "},"פּ":{"ha":835,"x_min":74,"x_max":767,"o":"m 96 0 l 96 106 l 351 106 q 504 145 440 106 q 602 256 568 185 q 636 419 636 326 q 576 649 636 567 q 397 732 517 732 q 249 682 300 732 q 197 554 197 632 q 226 450 197 493 q 317 397 256 407 q 338 392 328 394 q 354 390 347 390 l 346 296 q 315 296 333 294 q 271 301 297 297 q 124 385 174 317 q 74 557 74 454 q 111 703 74 639 q 221 802 149 767 q 397 838 293 838 q 670 726 574 838 q 767 419 767 615 q 716 199 767 293 q 570 52 665 104 q 340 0 475 0 l 96 0 m 472 364 q 444 375 456 364 q 433 403 433 386 q 444 429 433 418 q 472 440 456 440 q 499 429 488 440 q 511 403 511 418 q 499 375 511 386 q 472 364 488 364 z "},"פֿ":{"ha":835,"x_min":74,"x_max":767,"o":"m 96 0 l 96 106 l 351 106 q 504 145 440 106 q 602 256 568 185 q 636 419 636 326 q 576 649 636 567 q 397 732 517 732 q 249 682 300 732 q 197 554 197 632 q 226 450 197 493 q 317 397 256 407 q 338 392 328 394 q 354 390 347 390 l 346 296 q 315 296 333 294 q 271 301 297 297 q 124 385 174 317 q 74 557 74 454 q 111 703 74 639 q 221 802 149 767 q 397 838 293 838 q 670 726 574 838 q 767 419 767 615 q 716 199 767 293 q 570 52 665 104 q 340 0 475 0 l 96 0 m 244 935 l 244 989 l 518 989 l 518 935 l 244 935 z "},"֨":{"ha":0,"x_min":69,"x_max":250,"o":"m 196 896 q 166 983 196 953 q 69 1014 136 1014 l 69 1068 q 205 1023 160 1068 q 250 896 250 978 l 196 896 z "},"ָ":{"ha":0,"x_min":72,"x_max":317,"o":"m 168 -297 l 168 -164 l 72 -164 l 72 -110 l 317 -110 l 317 -164 l 221 -164 l 221 -297 l 168 -297 z "},"ׇ":{"ha":0,"x_min":72,"x_max":246,"o":"m 132 -249 l 132 -164 l 72 -164 l 72 -110 l 246 -110 l 246 -164 l 186 -164 l 186 -249 l 132 -249 z "},"֟":{"ha":0,"x_min":69,"x_max":583,"o":"m 386 892 l 346 932 l 389 975 q 375 1026 375 997 q 406 1099 375 1069 q 479 1129 436 1129 q 553 1099 522 1129 q 583 1026 583 1069 q 553 953 583 983 q 479 922 524 922 q 429 933 451 922 l 386 892 m 267 892 l 225 933 q 174 922 201 922 q 99 953 129 922 q 69 1026 69 983 q 100 1099 69 1069 q 174 1129 131 1129 q 247 1099 217 1129 q 278 1026 278 1069 q 264 975 278 997 l 307 932 l 267 892 m 175 971 q 213 987 197 971 q 229 1026 229 1003 q 213 1066 229 1050 q 175 1082 197 1082 q 135 1065 153 1082 q 118 1026 118 1049 q 135 988 118 1004 q 175 971 151 971 m 478 971 q 518 988 501 971 q 535 1026 535 1004 q 517 1065 535 1049 q 478 1082 500 1082 q 440 1066 457 1082 q 424 1026 424 1050 q 440 987 424 1003 q 478 971 456 971 z "},"ק":{"ha":871,"x_min":89,"x_max":824,"o":"m 456 0 l 678 719 l 89 719 l 104 824 l 824 824 l 813 743 l 583 0 l 456 0 m 131 -265 l 131 518 l 258 528 l 258 -258 l 131 -265 z "},"קּ":{"ha":871,"x_min":89,"x_max":824,"o":"m 456 0 l 678 719 l 89 719 l 104 824 l 824 824 l 813 743 l 583 0 l 456 0 m 131 -265 l 131 518 l 258 528 l 258 -258 l 131 -265 m 393 389 q 365 400 376 389 q 354 428 354 411 q 365 454 354 443 q 393 465 376 465 q 420 454 408 465 q 432 428 432 443 q 420 400 432 411 q 393 389 408 389 z "},"ֻ":{"ha":0,"x_min":76,"x_max":365,"o":"m 115 -175 q 88 -163 99 -175 q 76 -135 76 -151 q 88 -108 76 -119 q 115 -97 99 -97 q 142 -108 131 -97 q 154 -135 154 -119 q 142 -163 154 -151 q 115 -175 131 -175 m 221 -242 q 193 -231 204 -242 q 182 -203 182 -219 q 193 -175 182 -186 q 221 -164 204 -164 q 249 -175 238 -164 q 260 -203 260 -186 q 249 -231 260 -219 q 221 -242 238 -242 m 328 -307 q 299 -296 311 -307 q 288 -268 288 -285 q 299 -241 288 -253 q 328 -229 311 -229 q 354 -241 343 -229 q 365 -268 365 -253 q 354 -296 365 -285 q 328 -307 343 -307 z "},"ֿ":{"ha":0,"x_min":72,"x_max":346,"o":"m 72 935 l 72 989 l 346 989 l 346 935 l 72 935 z "},"ר":{"ha":726,"x_min":56,"x_max":622,"o":"m 494 0 l 494 558 q 456 678 494 639 q 342 718 418 718 l 56 718 l 71 824 l 350 824 q 553 758 485 824 q 622 563 622 692 l 622 0 l 494 0 z "},"רּ":{"ha":726,"x_min":56,"x_max":622,"o":"m 494 0 l 494 558 q 456 678 494 639 q 342 718 418 718 l 56 718 l 71 824 l 350 824 q 553 758 485 824 q 622 563 622 692 l 622 0 l 494 0 m 250 378 q 222 389 233 378 q 211 417 211 400 q 222 443 211 432 q 250 454 233 454 q 277 443 265 454 q 289 417 289 432 q 277 389 289 400 q 250 378 265 378 z "},"֗":{"ha":0,"x_min":74,"x_max":219,"o":"m 147 903 l 74 983 l 147 1065 l 219 983 l 147 903 z "},"ס":{"ha":893,"x_min":61,"x_max":824,"o":"m 458 -14 q 194 89 281 -14 q 107 392 107 192 l 107 407 q 137 582 107 503 q 211 711 167 661 l 211 728 l 332 736 l 317 714 q 256 590 276 668 q 235 419 235 513 q 288 171 235 254 q 458 88 342 88 q 639 181 582 88 q 696 453 696 275 q 653 650 696 582 q 506 718 610 718 l 61 718 l 76 824 l 510 824 q 748 728 672 824 q 824 454 824 633 q 733 107 824 228 q 458 -14 643 -14 z "},"סּ":{"ha":893,"x_min":61,"x_max":824,"o":"m 458 -14 q 194 89 281 -14 q 107 392 107 192 l 107 407 q 137 582 107 503 q 211 711 167 661 l 211 728 l 332 736 l 317 714 q 256 590 276 668 q 235 419 235 513 q 288 171 235 254 q 458 88 342 88 q 639 181 582 88 q 696 453 696 275 q 653 650 696 582 q 506 718 610 718 l 61 718 l 76 824 l 510 824 q 748 728 672 824 q 824 454 824 633 q 733 107 824 228 q 458 -14 643 -14 m 458 378 q 431 389 442 378 q 419 417 419 400 q 431 443 419 432 q 458 454 442 454 q 485 443 474 454 q 497 417 497 432 q 485 389 497 400 q 458 378 474 378 z "},"ֶ":{"ha":0,"x_min":76,"x_max":304,"o":"m 115 -175 q 88 -163 99 -175 q 76 -135 76 -151 q 88 -108 76 -119 q 115 -97 99 -97 q 142 -108 131 -97 q 154 -135 154 -119 q 142 -163 154 -151 q 115 -175 131 -175 m 265 -175 q 238 -163 249 -175 q 226 -135 226 -151 q 238 -108 226 -119 q 265 -97 249 -97 q 293 -108 282 -97 q 304 -135 304 -119 q 293 -163 304 -151 q 265 -175 282 -175 m 189 -307 q 161 -296 172 -307 q 150 -268 150 -285 q 161 -241 150 -253 q 189 -229 172 -229 q 217 -241 206 -229 q 228 -268 228 -253 q 217 -296 228 -285 q 189 -307 206 -307 z "},"֒":{"ha":0,"x_min":74,"x_max":307,"o":"m 190 1051 q 160 1063 172 1051 q 149 1093 149 1075 q 160 1122 149 1110 q 190 1133 172 1133 q 219 1122 207 1133 q 231 1093 231 1110 q 219 1063 231 1075 q 190 1051 207 1051 m 115 918 q 86 931 99 918 q 74 961 74 943 q 86 990 74 978 q 115 1001 99 1001 q 144 990 132 1001 q 157 961 157 978 q 144 931 157 943 q 115 918 132 918 m 267 918 q 237 931 249 918 q 225 961 225 943 q 237 990 225 978 q 267 1001 249 1001 q 295 990 283 1001 q 307 961 307 978 q 295 931 307 943 q 267 918 283 918 z "},"֓":{"ha":0,"x_min":69,"x_max":224,"o":"m 69 907 l 151 951 l 74 996 l 151 1040 l 74 1083 l 151 1128 l 224 1128 l 144 1083 l 224 1040 l 144 996 l 224 951 l 135 907 l 69 907 z "},"₪":{"ha":1100,"x_min":117,"x_max":990,"o":"m 392 0 l 392 581 l 478 581 l 478 107 l 676 107 q 784 125 742 107 q 847 188 826 143 q 868 310 868 232 l 868 824 l 990 824 l 990 307 q 958 131 990 199 q 863 31 926 63 q 701 0 799 0 l 392 0 m 117 0 l 117 824 l 469 824 q 611 797 557 824 q 691 717 665 771 q 717 578 717 663 l 717 244 l 631 244 l 631 561 q 592 682 631 646 q 485 718 554 718 l 240 718 l 240 0 l 117 0 z "},"ְ":{"ha":0,"x_min":75,"x_max":153,"o":"m 114 -175 q 86 -163 97 -175 q 75 -135 75 -151 q 86 -108 75 -119 q 114 -97 97 -97 q 142 -108 131 -97 q 153 -135 153 -119 q 142 -163 153 -151 q 114 -175 131 -175 m 114 -307 q 86 -296 97 -307 q 75 -268 75 -285 q 86 -241 75 -253 q 114 -229 97 -229 q 142 -241 131 -229 q 153 -268 153 -253 q 142 -296 153 -285 q 114 -307 131 -307 z "},"ש":{"ha":1014,"x_min":89,"x_max":924,"o":"m 499 -4 q 277 51 368 -4 q 138 215 186 107 q 89 479 89 322 l 89 824 l 217 824 l 217 479 q 249 267 217 353 q 344 140 282 182 q 497 97 407 97 l 511 97 q 668 140 604 97 q 765 267 732 182 q 797 478 797 351 l 797 824 l 924 824 l 924 479 q 876 215 924 322 q 736 51 828 107 q 514 -4 644 -4 l 499 -4 m 183 319 l 174 408 q 326 434 267 404 q 415 526 386 464 q 443 678 443 589 l 443 824 l 571 824 l 571 686 q 547 530 571 599 q 476 413 524 461 q 355 342 428 365 q 183 319 282 318 z "},"שּ":{"ha":1014,"x_min":89,"x_max":924,"o":"m 499 -4 q 277 51 368 -4 q 138 215 186 107 q 89 479 89 322 l 89 824 l 217 824 l 217 479 q 249 267 217 353 q 344 140 282 182 q 497 97 407 97 l 511 97 q 668 140 604 97 q 765 267 732 182 q 797 478 797 351 l 797 824 l 924 824 l 924 479 q 876 215 924 322 q 736 51 828 107 q 514 -4 644 -4 l 499 -4 m 183 319 l 174 408 q 326 434 267 404 q 415 526 386 464 q 443 678 443 589 l 443 824 l 571 824 l 571 686 q 547 530 571 599 q 476 413 524 461 q 355 342 428 365 q 183 319 282 318 m 619 279 q 592 290 603 279 q 581 318 581 301 q 592 344 581 333 q 619 356 603 356 q 647 344 635 356 q 658 318 658 333 q 647 290 658 301 q 619 279 635 279 z "},"שּׁ":{"ha":1014,"x_min":89,"x_max":924,"o":"m 499 -4 q 277 51 368 -4 q 138 215 186 107 q 89 479 89 322 l 89 824 l 217 824 l 217 479 q 249 267 217 353 q 344 140 282 182 q 497 97 407 97 l 511 97 q 668 140 604 97 q 765 267 732 182 q 797 478 797 351 l 797 824 l 924 824 l 924 479 q 876 215 924 322 q 736 51 828 107 q 514 -4 644 -4 l 499 -4 m 183 319 l 174 408 q 326 434 267 404 q 415 526 386 464 q 443 678 443 589 l 443 824 l 571 824 l 571 686 q 547 530 571 599 q 476 413 524 461 q 355 342 428 365 q 183 319 282 318 m 619 279 q 592 290 603 279 q 581 318 581 301 q 592 344 581 333 q 619 356 603 356 q 647 344 635 356 q 658 318 658 333 q 647 290 658 301 q 619 279 635 279 m 864 922 q 836 933 847 922 q 825 961 825 944 q 836 988 825 976 q 864 1000 847 1000 q 891 988 879 1000 q 903 961 903 976 q 891 933 903 944 q 864 922 879 922 z "},"שּׂ":{"ha":1014,"x_min":89,"x_max":924,"o":"m 499 -4 q 277 51 368 -4 q 138 215 186 107 q 89 479 89 322 l 89 824 l 217 824 l 217 479 q 249 267 217 353 q 344 140 282 182 q 497 97 407 97 l 511 97 q 668 140 604 97 q 765 267 732 182 q 797 478 797 351 l 797 824 l 924 824 l 924 479 q 876 215 924 322 q 736 51 828 107 q 514 -4 644 -4 l 499 -4 m 183 319 l 174 408 q 326 434 267 404 q 415 526 386 464 q 443 678 443 589 l 443 824 l 571 824 l 571 686 q 547 530 571 599 q 476 413 524 461 q 355 342 428 365 q 183 319 282 318 m 619 279 q 592 290 603 279 q 581 318 581 301 q 592 344 581 333 q 619 356 603 356 q 647 344 635 356 q 658 318 658 333 q 647 290 658 301 q 619 279 635 279 m 154 922 q 126 934 138 922 q 115 963 115 946 q 126 989 115 978 q 154 1000 138 1000 q 181 989 169 1000 q 193 963 193 978 q 181 934 193 946 q 154 922 169 922 z "},"ׁ":{"ha":0,"x_min":76,"x_max":154,"o":"m 115 922 q 88 933 99 922 q 76 961 76 944 q 88 988 76 976 q 115 1000 99 1000 q 142 988 131 1000 q 154 961 154 976 q 142 933 154 944 q 115 922 131 922 z "},"שׁ":{"ha":1014,"x_min":89,"x_max":924,"o":"m 499 -4 q 277 51 368 -4 q 138 215 186 107 q 89 479 89 322 l 89 824 l 217 824 l 217 479 q 249 267 217 353 q 344 140 282 182 q 497 97 407 97 l 511 97 q 668 140 604 97 q 765 267 732 182 q 797 478 797 351 l 797 824 l 924 824 l 924 479 q 876 215 924 322 q 736 51 828 107 q 514 -4 644 -4 l 499 -4 m 183 319 l 174 408 q 326 434 267 404 q 415 526 386 464 q 443 678 443 589 l 443 824 l 571 824 l 571 686 q 547 530 571 599 q 476 413 524 461 q 355 342 428 365 q 183 319 282 318 m 864 922 q 836 933 847 922 q 825 961 825 944 q 836 988 825 976 q 864 1000 847 1000 q 891 988 879 1000 q 903 961 903 976 q 891 933 903 944 q 864 922 879 922 z "},"שׂ":{"ha":1014,"x_min":89,"x_max":924,"o":"m 499 -4 q 277 51 368 -4 q 138 215 186 107 q 89 479 89 322 l 89 824 l 217 824 l 217 479 q 249 267 217 353 q 344 140 282 182 q 497 97 407 97 l 511 97 q 668 140 604 97 q 765 267 732 182 q 797 478 797 351 l 797 824 l 924 824 l 924 479 q 876 215 924 322 q 736 51 828 107 q 514 -4 644 -4 l 499 -4 m 183 319 l 174 408 q 326 434 267 404 q 415 526 386 464 q 443 678 443 589 l 443 824 l 571 824 l 571 686 q 547 530 571 599 q 476 413 524 461 q 355 342 428 365 q 183 319 282 318 m 154 922 q 126 934 138 922 q 115 963 115 946 q 126 989 115 978 q 154 1000 138 1000 q 181 989 169 1000 q 193 963 193 978 q 181 934 193 946 q 154 922 169 922 z "},"ֽ":{"ha":0,"x_min":72,"x_max":125,"o":"m 72 -311 l 72 -96 l 125 -96 l 125 -311 l 72 -311 z "},"ׂ":{"ha":0,"x_min":76,"x_max":154,"o":"m 115 922 q 88 934 99 922 q 76 963 76 946 q 88 989 76 978 q 115 1000 99 1000 q 142 989 131 1000 q 154 963 154 978 q 142 934 154 946 q 115 922 131 922 z "},"׃":{"ha":342,"x_min":96,"x_max":247,"o":"m 96 63 q 116 119 96 100 q 172 138 136 138 q 228 119 208 138 q 247 63 247 100 q 228 6 247 25 q 172 -12 208 -12 q 116 6 136 -12 q 96 63 96 25 m 96 678 q 116 735 96 715 q 172 754 136 754 q 228 735 208 754 q 247 678 247 715 q 228 622 247 640 q 172 603 208 603 q 116 622 136 603 q 96 678 96 640 z "}," ":{"ha":375,"x_min":0,"x_max":0,"o":""},"ת":{"ha":951,"x_min":49,"x_max":849,"o":"m 721 0 l 721 558 q 683 678 721 639 q 567 718 644 718 l 207 718 l 207 824 l 576 824 q 780 758 711 824 q 849 563 849 692 l 849 0 l 721 0 m 49 0 l 64 106 l 114 106 q 166 119 146 106 q 197 158 186 132 q 207 226 207 185 l 207 796 l 335 796 l 335 219 q 283 56 335 113 q 135 0 232 0 l 49 0 m 76 718 l 92 824 l 268 824 l 268 718 l 76 718 z "},"תּ":{"ha":951,"x_min":49,"x_max":849,"o":"m 721 0 l 721 558 q 683 678 721 639 q 567 718 644 718 l 207 718 l 207 824 l 576 824 q 780 758 711 824 q 849 563 849 692 l 849 0 l 721 0 m 49 0 l 64 106 l 114 106 q 166 119 146 106 q 197 158 186 132 q 207 226 207 185 l 207 796 l 335 796 l 335 219 q 283 56 335 113 q 135 0 232 0 l 49 0 m 76 718 l 92 824 l 268 824 l 268 718 l 76 718 m 521 369 q 493 381 504 369 q 482 408 482 392 q 493 435 482 424 q 521 446 504 446 q 548 435 536 446 q 560 408 560 424 q 548 381 560 392 q 521 369 536 369 z "},"֠":{"ha":0,"x_min":69,"x_max":307,"o":"m 110 892 l 69 932 l 113 975 q 99 1026 99 997 q 129 1099 99 1069 q 203 1129 160 1129 q 276 1099 246 1129 q 307 1026 307 1069 q 277 953 307 983 q 203 922 247 922 q 176 925 190 922 q 153 933 163 928 l 110 892 m 201 971 q 242 988 225 971 q 258 1026 258 1004 q 241 1065 258 1049 q 201 1082 224 1082 q 164 1066 181 1082 q 147 1026 147 1050 q 163 987 147 1003 q 201 971 179 971 z "},"֩":{"ha":0,"x_min":69,"x_max":307,"o":"m 267 892 l 225 933 q 201 925 214 928 q 174 922 189 922 q 99 953 129 922 q 69 1026 69 983 q 100 1099 69 1069 q 174 1129 131 1129 q 247 1099 217 1129 q 278 1026 278 1069 q 264 975 278 997 l 307 932 l 267 892 m 175 971 q 213 987 197 971 q 229 1026 229 1003 q 213 1066 229 1050 q 175 1082 197 1082 q 135 1065 153 1082 q 118 1026 118 1049 q 135 988 118 1004 q 175 971 151 971 z "},"ט":{"ha":881,"x_min":79,"x_max":810,"o":"m 439 -14 q 173 103 267 -14 q 79 450 79 221 l 79 824 l 207 824 l 207 450 q 268 180 207 272 q 436 88 329 88 q 617 180 551 88 q 682 450 682 272 q 646 656 682 583 q 521 728 610 729 q 463 724 490 728 q 407 713 436 719 l 407 815 q 474 826 442 822 q 542 831 507 831 q 747 733 685 832 q 810 450 810 633 q 713 103 810 221 q 439 -14 615 -14 z "},"טּ":{"ha":881,"x_min":79,"x_max":810,"o":"m 439 -14 q 173 103 267 -14 q 79 450 79 221 l 79 824 l 207 824 l 207 450 q 268 180 207 272 q 436 88 329 88 q 617 180 551 88 q 682 450 682 272 q 646 656 682 583 q 521 728 610 729 q 463 724 490 728 q 407 713 436 719 l 407 815 q 474 826 442 822 q 542 831 507 831 q 747 733 685 832 q 810 450 810 633 q 713 103 810 221 q 439 -14 615 -14 m 440 396 q 413 407 424 396 q 401 435 401 418 q 413 461 401 450 q 440 472 424 472 q 467 461 456 472 q 479 435 479 450 q 467 407 479 418 q 440 396 456 396 z "},"֛":{"ha":0,"x_min":71,"x_max":260,"o":"m 79 -279 l 79 -226 q 175 -195 144 -226 q 206 -107 206 -164 l 260 -107 q 215 -234 260 -189 q 79 -279 169 -279 m 110 -168 q 83 -156 94 -168 q 71 -126 71 -144 q 83 -98 71 -110 q 110 -86 94 -86 q 140 -98 128 -86 q 151 -126 151 -110 q 140 -156 151 -144 q 110 -168 128 -168 z "},"֖":{"ha":0,"x_min":69,"x_max":250,"o":"m 250 -279 q 115 -234 160 -279 q 69 -107 69 -189 l 124 -107 q 153 -195 124 -164 q 250 -226 183 -226 l 250 -279 z "},"צ":{"ha":772,"x_min":60,"x_max":707,"o":"m 579 7 l 61 824 l 211 824 l 465 407 l 675 81 l 579 7 m 60 0 l 60 106 l 631 106 l 675 81 l 660 0 l 60 0 m 447 325 l 410 413 q 483 462 454 428 q 528 539 511 496 q 552 624 544 582 q 564 699 560 667 l 579 824 l 707 824 l 692 685 q 673 589 688 642 q 631 483 658 536 q 558 388 603 431 q 447 325 513 346 z "},"צּ":{"ha":772,"x_min":60,"x_max":707,"o":"m 579 7 l 61 824 l 211 824 l 465 407 l 675 81 l 579 7 m 60 0 l 60 106 l 631 106 l 675 81 l 660 0 l 60 0 m 447 325 l 410 413 q 483 462 454 428 q 528 539 511 496 q 552 624 544 582 q 564 699 560 667 l 579 824 l 707 824 l 692 685 q 673 589 688 642 q 631 483 658 536 q 558 388 603 431 q 447 325 513 346 m 199 246 q 171 257 182 246 q 160 285 160 268 q 171 311 160 300 q 199 322 182 322 q 226 311 214 322 q 238 285 238 300 q 226 257 238 268 q 199 246 214 246 z "},"ֵ":{"ha":0,"x_min":75,"x_max":297,"o":"m 114 -175 q 86 -163 97 -175 q 75 -135 75 -151 q 86 -108 75 -119 q 114 -97 97 -97 q 142 -108 131 -97 q 153 -135 153 -119 q 142 -163 153 -151 q 114 -175 131 -175 m 258 -175 q 231 -163 242 -175 q 219 -135 219 -151 q 231 -108 219 -119 q 258 -97 242 -97 q 285 -108 274 -97 q 297 -135 297 -119 q 285 -163 297 -151 q 258 -175 274 -175 z "},"‌":{"ha":0,"x_min":-25,"x_max":25,"o":"m 25 943 l 25 -62 l -25 -62 l -25 943 l 25 943 z "},"‍":{"ha":0,"x_min":-149,"x_max":149,"o":"m 25 -62 l -25 -62 l -25 740 l -115 649 l -149 682 l -32 796 l -149 910 l -115 943 l 0 828 l 115 943 l 149 910 l 32 796 l 149 682 l 115 649 l 25 740 l 25 -62 z "},"‎":{"ha":0,"x_min":-25,"x_max":292,"o":"m 292 797 l 144 653 l 111 686 l 204 774 l 24 774 l 24 -62 l -25 -62 l -25 822 l 204 822 l 111 910 l 144 943 l 292 797 z "},"‏":{"ha":0,"x_min":-292,"x_max":24,"o":"m 24 -62 l -25 -62 l -25 774 l -204 774 l -112 686 l -144 653 l -292 797 l -144 943 l -112 910 l -204 822 l 24 822 l 24 -62 z "},"◌":{"ha":825,"x_min":67,"x_max":758,"o":"m 667 622 q 632 586 667 586 q 594 622 594 586 q 632 660 594 660 q 667 622 667 660 m 567 689 q 532 653 567 653 q 493 689 493 653 q 532 726 493 726 q 567 689 567 726 m 735 522 q 697 485 735 485 q 661 522 661 485 q 699 558 661 558 q 735 522 735 558 m 758 404 q 724 368 758 368 q 686 404 686 368 q 724 440 686 440 q 758 404 758 440 m 449 714 q 413 676 449 676 q 376 714 376 676 q 413 750 376 750 q 449 714 449 750 m 332 689 q 294 653 332 653 q 258 689 258 653 q 294 726 258 726 q 332 689 332 726 m 735 286 q 697 250 735 250 q 661 286 661 250 q 697 324 661 324 q 735 286 735 324 m 232 622 q 194 586 232 586 q 158 621 158 586 q 194 660 158 660 q 232 622 232 660 m 667 185 q 632 149 667 149 q 594 185 594 149 q 632 222 594 222 q 667 185 667 222 m 567 118 q 532 83 567 83 q 493 118 493 83 q 532 156 493 156 q 567 118 567 156 m 164 522 q 129 485 164 485 q 90 522 90 485 q 128 558 90 558 q 164 522 164 558 m 140 404 q 104 368 140 368 q 67 404 67 368 q 104 440 67 440 q 140 404 140 440 m 449 96 q 413 58 449 58 q 376 96 376 58 q 413 132 376 132 q 449 96 449 132 m 164 286 q 128 250 164 250 q 90 286 90 250 q 128 324 90 324 q 164 286 164 324 m 332 121 q 294 83 332 83 q 258 118 258 83 q 294 156 258 156 q 332 121 332 156 m 232 185 q 194 149 232 149 q 158 185 158 149 q 194 222 158 222 q 232 185 232 222 z "},"ׄ":{"ha":0,"x_min":76,"x_max":154,"o":"m 115 922 q 88 934 99 922 q 76 963 76 946 q 88 989 76 978 q 115 1000 99 1000 q 142 989 131 1000 q 154 963 154 978 q 142 934 154 946 q 115 922 131 922 z "},"ו":{"ha":418,"x_min":53,"x_max":307,"o":"m 179 0 l 179 824 l 307 824 l 307 0 l 179 0 m 53 718 l 68 824 l 263 824 l 263 718 l 53 718 z "},"וּ":{"ha":418,"x_min":15,"x_max":307,"o":"m 179 0 l 179 824 l 307 824 l 307 0 l 179 0 m 53 718 l 68 824 l 263 824 l 263 718 l 53 718 m 54 378 q 26 389 38 378 q 15 417 15 400 q 26 443 15 432 q 54 454 38 454 q 81 443 69 454 q 93 417 93 432 q 81 389 93 400 q 54 378 69 378 z "},"וֹ":{"ha":418,"x_min":53,"x_max":307,"o":"m 179 0 l 179 824 l 307 824 l 307 0 l 179 0 m 53 718 l 68 824 l 263 824 l 263 718 l 53 718 m 243 922 q 215 934 226 922 q 204 963 204 946 q 215 989 204 978 q 243 1000 226 1000 q 270 989 258 1000 q 282 963 282 978 q 270 934 282 946 q 243 922 258 922 z "},"װ":{"ha":818,"x_min":53,"x_max":715,"o":"m 589 0 l 589 824 l 717 824 l 717 0 l 589 0 m 463 718 l 478 824 l 672 824 l 672 718 l 463 718 m 179 0 l 179 824 l 307 824 l 307 0 l 179 0 m 53 718 l 68 824 l 263 824 l 263 718 l 53 718 z "},"ױ":{"ha":836,"x_min":53,"x_max":722,"o":"m 596 0 l 596 824 l 724 824 l 724 0 l 596 0 m 469 718 l 485 824 l 679 824 l 679 718 l 469 718 m 179 364 l 179 824 l 307 824 l 307 364 l 179 364 m 53 718 l 68 824 l 251 824 l 251 718 l 53 718 z "},"ﬡ":{"ha":1057,"x_min":53,"x_max":1000,"o":"m 847 0 q 685 201 767 104 q 523 385 603 297 q 368 547 443 472 q 285 631 325 590 q 208 708 244 672 q 142 774 172 744 q 90 824 113 803 l 251 824 q 301 774 275 801 q 358 717 328 747 q 421 651 388 686 q 492 578 454 617 q 654 401 568 496 q 829 206 740 307 q 1000 0 918 104 l 847 0 m 53 0 l 94 264 q 121 377 104 324 q 167 476 138 431 q 241 558 196 521 q 351 622 286 594 l 393 539 q 299 468 333 510 q 249 374 265 426 q 221 260 232 322 l 179 0 l 53 0 m 681 304 l 639 388 q 735 458 699 417 q 793 551 772 499 q 821 665 814 603 l 842 824 l 969 824 l 949 661 q 909 513 940 581 q 822 394 878 446 q 681 304 765 342 z "},"ﬢ":{"ha":936,"x_min":46,"x_max":897,"o":"m 633 0 l 633 617 q 638 653 633 633 q 651 692 642 674 q 676 718 661 710 l 776 718 q 764 688 767 708 q 761 642 761 667 l 761 0 l 633 0 m 46 718 l 46 824 l 897 824 l 882 718 l 46 718 z "},"ﬣ":{"ha":1110,"x_min":65,"x_max":1003,"o":"m 875 0 l 875 558 q 836 681 875 644 q 724 718 797 718 l 65 718 l 81 824 l 732 824 q 933 759 863 824 q 1003 563 1003 694 l 1003 0 l 875 0 m 92 0 l 92 468 l 219 478 l 219 0 l 92 0 z "},"ﬤ":{"ha":943,"x_min":40,"x_max":894,"o":"m 40 0 l 40 106 l 532 106 q 706 183 647 106 q 764 408 764 261 q 706 639 764 560 q 532 718 647 718 l 40 718 l 56 824 l 532 824 q 802 717 710 824 q 894 408 894 610 q 802 105 894 210 q 532 0 710 0 l 40 0 z "},"ﬥ":{"ha":894,"x_min":11,"x_max":850,"o":"m 454 0 l 717 718 l 11 718 l 11 1040 l 133 1056 l 133 824 l 850 824 l 850 743 l 581 0 l 454 0 z "},"ﬧ":{"ha":942,"x_min":54,"x_max":881,"o":"m 753 0 l 753 558 q 714 681 753 644 q 601 718 675 718 l 54 718 l 69 824 l 611 824 q 811 759 742 824 q 881 563 881 694 l 881 0 l 753 0 z "},"ﬨ":{"ha":1172,"x_min":53,"x_max":1131,"o":"m 1003 0 l 1003 558 q 965 678 1003 639 q 849 718 926 718 l 211 718 l 211 824 l 858 824 q 1062 758 993 824 q 1131 563 1131 692 l 1131 0 l 1003 0 m 53 0 l 68 106 l 118 106 q 188 135 165 106 q 211 226 211 165 l 211 796 l 339 796 l 339 219 q 288 56 339 113 q 139 0 236 0 l 53 0 m 90 718 l 106 824 l 282 824 l 282 718 l 90 718 z "},"֪":{"ha":0,"x_min":76,"x_max":275,"o":"m 150 -299 l 150 -239 q 95 -208 114 -233 q 76 -135 76 -183 l 76 -107 l 125 -107 l 125 -135 q 137 -181 125 -167 q 176 -194 149 -194 q 215 -181 204 -194 q 226 -135 226 -167 l 226 -107 l 275 -107 l 275 -135 q 256 -208 275 -183 q 200 -239 238 -232 l 200 -299 l 150 -299 z "},"֚":{"ha":0,"x_min":69,"x_max":244,"o":"m 182 -331 l 69 -217 l 179 -107 l 242 -107 l 133 -217 l 244 -331 l 182 -331 z "},"י":{"ha":410,"x_min":53,"x_max":307,"o":"m 179 364 l 179 824 l 307 824 l 307 364 l 179 364 m 53 718 l 68 824 l 251 824 l 251 718 l 53 718 z "},"יּ":{"ha":410,"x_min":22,"x_max":307,"o":"m 179 364 l 179 824 l 307 824 l 307 364 l 179 364 m 53 718 l 68 824 l 251 824 l 251 718 l 53 718 m 63 514 q 35 525 46 514 q 24 553 24 536 q 35 579 24 568 q 63 590 46 590 q 90 579 78 590 q 101 553 101 568 q 90 525 101 536 q 63 514 78 514 z "},"יִ":{"ha":425,"x_min":53,"x_max":307,"o":"m 179 364 l 179 824 l 307 824 l 307 364 l 179 364 m 53 718 l 68 824 l 251 824 l 251 718 l 53 718 m 239 144 q 211 156 222 144 q 200 185 200 168 q 211 211 200 200 q 239 222 222 222 q 266 211 254 222 q 278 185 278 200 q 266 156 278 168 q 239 144 254 144 z "},"ײ":{"ha":832,"x_min":53,"x_max":722,"o":"m 596 364 l 596 824 l 724 824 l 724 364 l 596 364 m 469 718 l 485 824 l 668 824 l 668 718 l 469 718 m 179 364 l 179 824 l 307 824 l 307 364 l 179 364 m 53 718 l 68 824 l 251 824 l 251 718 l 53 718 z "},"ײַ":{"ha":850,"x_min":53,"x_max":732,"o":"m 604 364 l 604 824 l 732 824 l 732 364 l 604 364 m 478 718 l 493 824 l 676 824 l 676 718 l 478 718 m 179 364 l 179 824 l 307 824 l 307 364 l 179 364 m 53 718 l 68 824 l 251 824 l 251 718 l 53 718 m 315 151 l 315 206 l 560 206 l 560 151 l 315 151 z "},"֕":{"ha":0,"x_min":69,"x_max":260,"o":"m 69 915 l 69 1139 l 121 1139 l 121 915 l 69 915 m 217 1051 q 188 1063 200 1051 q 175 1093 175 1075 q 188 1122 175 1110 q 217 1133 200 1133 q 246 1122 233 1133 q 258 1093 258 1110 q 246 1063 258 1075 q 217 1051 233 1051 m 218 919 q 188 931 200 919 q 176 961 176 943 q 188 990 176 978 q 218 1001 200 1001 q 247 990 235 1001 q 260 961 260 978 q 247 931 260 943 q 218 919 235 919 z "},"֔":{"ha":0,"x_min":74,"x_max":157,"o":"m 115 1051 q 85 1063 97 1051 q 74 1093 74 1075 q 85 1122 74 1110 q 115 1133 97 1133 q 144 1122 132 1133 q 156 1093 156 1110 q 144 1063 156 1075 q 115 1051 132 1051 m 117 919 q 86 931 99 919 q 74 961 74 943 q 86 990 74 978 q 117 1001 99 1001 q 145 990 133 1001 q 157 961 157 978 q 145 931 157 943 q 117 919 133 919 z "},"֘":{"ha":0,"x_min":69,"x_max":375,"o":"m 125 903 q 69 983 69 921 q 90 1038 69 1017 q 144 1060 111 1060 q 190 1045 169 1060 q 236 994 210 1031 q 272 953 257 965 q 301 940 286 940 q 326 950 317 940 q 336 979 336 960 q 306 1024 336 1010 l 319 1061 q 375 979 375 1039 q 355 925 375 946 q 301 904 335 904 q 256 918 276 904 q 208 968 235 932 q 173 1012 185 1000 q 143 1024 161 1024 q 119 1013 129 1024 q 110 983 110 1003 q 140 939 110 953 l 125 903 z "},"ז":{"ha":458,"x_min":58,"x_max":415,"o":"m 168 1 q 149 128 158 61 q 132 259 139 194 q 122 378 125 324 q 118 468 118 432 q 131 561 118 513 q 176 652 143 610 q 269 721 210 694 l 400 718 q 295 658 329 697 q 251 573 261 619 q 243 482 242 526 q 251 387 244 446 q 265 259 257 328 q 283 122 274 190 q 300 1 293 54 l 168 1 m 58 718 l 58 824 l 415 824 l 400 718 l 58 718 z "},"זּ":{"ha":458,"x_min":-14,"x_max":415,"o":"m 168 1 q 149 128 158 61 q 132 259 139 194 q 122 378 125 324 q 118 468 118 432 q 131 561 118 513 q 176 652 143 610 q 269 721 210 694 l 400 718 q 295 658 329 697 q 251 573 261 619 q 243 482 242 526 q 251 387 244 446 q 265 259 257 328 q 283 122 274 190 q 300 1 293 54 l 168 1 m 58 718 l 58 824 l 415 824 l 400 718 l 58 718 m 25 378 q -3 389 8 378 q -14 417 -14 400 q -3 443 -14 432 q 25 454 8 454 q 52 443 40 454 q 64 417 64 432 q 52 389 64 400 q 25 378 40 378 z "},"֮":{"ha":0,"x_min":69,"x_max":375,"o":"m 125 896 q 69 976 69 914 q 90 1031 69 1010 q 144 1051 111 1051 q 190 1038 169 1051 q 236 986 210 1024 q 272 946 257 958 q 301 933 286 933 q 326 943 317 933 q 336 972 336 953 q 306 1015 336 1003 l 319 1053 q 375 972 375 1032 q 355 918 375 939 q 301 897 335 897 q 256 910 276 897 q 208 961 235 924 q 173 1004 185 993 q 143 1015 161 1015 q 119 1006 129 1015 q 110 976 110 996 q 140 932 110 946 l 125 896 z "},"͏":{"ha":0,"x_min":0,"x_max":0,"o":""},"ׯ":{"ha":879,"x_min":53,"x_max":776,"o":"m 650 364 l 650 824 l 778 824 l 778 364 l 650 364 m 524 718 l 539 824 l 722 824 l 722 718 l 524 718 m 179 364 l 179 824 l 307 824 l 307 364 l 179 364 m 53 718 l 68 824 l 251 824 l 251 718 l 53 718 m 365 589 l 365 1049 l 493 1049 l 493 589 l 365 589 m 239 943 l 254 1049 l 438 1049 l 438 943 l 239 943 z "},"A":{"ha":879,"x_min":0,"x_max":879,"o":"m 744 0 l 636 306 l 246 306 l 135 0 l 0 0 l 367 994 l 522 994 l 879 0 l 744 0 m 496 729 q 480 778 489 749 q 462 842 471 808 q 443 904 453 876 q 428 847 438 879 q 409 783 418 814 q 392 728 400 753 l 275 410 l 607 410 l 496 729 z "},"Æ":{"ha":1156,"x_min":-3,"x_max":1119,"o":"m 1119 0 l 564 0 l 564 304 l 261 304 l 136 0 l -3 0 l 424 992 l 1119 992 l 1119 889 l 688 889 l 688 571 l 1093 571 l 1093 468 l 688 468 l 688 104 l 1119 104 l 1119 0 m 301 410 l 564 410 l 564 885 l 499 885 l 301 410 z "},"Á":{"ha":879,"x_min":0,"x_max":879,"o":"m 744 0 l 636 306 l 246 306 l 135 0 l 0 0 l 367 994 l 522 994 l 879 0 l 744 0 m 496 729 q 480 778 489 749 q 462 842 471 808 q 443 904 453 876 q 428 847 438 879 q 409 783 418 814 q 392 728 400 753 l 275 410 l 607 410 l 496 729 m 672 1299 q 623 1249 653 1276 q 560 1192 593 1221 q 495 1137 528 1164 q 435 1088 463 1110 l 350 1088 l 350 1100 q 415 1165 379 1128 q 484 1242 450 1203 q 538 1310 518 1281 l 672 1310 l 672 1299 z "},"Ă":{"ha":879,"x_min":0,"x_max":879,"o":"m 744 0 l 636 306 l 246 306 l 135 0 l 0 0 l 367 994 l 522 994 l 879 0 l 744 0 m 496 729 q 480 778 489 749 q 462 842 471 808 q 443 904 453 876 q 428 847 438 879 q 409 783 418 814 q 392 728 400 753 l 275 410 l 607 410 l 496 729 m 649 1279 q 618 1176 644 1219 q 547 1110 592 1133 q 439 1088 501 1088 q 290 1138 342 1088 q 231 1279 238 1188 l 306 1279 q 347 1196 315 1222 q 439 1169 378 1169 q 530 1197 497 1169 q 572 1279 563 1224 l 649 1279 z "},"Â":{"ha":879,"x_min":0,"x_max":879,"o":"m 744 0 l 636 306 l 246 306 l 135 0 l 0 0 l 367 994 l 522 994 l 879 0 l 744 0 m 496 729 q 480 778 489 749 q 462 842 471 808 q 443 904 453 876 q 428 847 438 879 q 409 783 418 814 q 392 728 400 753 l 275 410 l 607 410 l 496 729 m 501 1307 q 549 1240 519 1278 q 609 1165 578 1201 q 665 1100 640 1128 l 665 1088 l 582 1088 q 508 1159 544 1119 q 440 1235 472 1199 q 373 1160 408 1199 q 299 1088 338 1121 l 215 1088 l 215 1100 q 273 1165 242 1128 q 334 1240 304 1201 q 382 1307 364 1278 l 501 1307 z "},"Ä":{"ha":879,"x_min":0,"x_max":879,"o":"m 744 0 l 636 306 l 246 306 l 135 0 l 0 0 l 367 994 l 522 994 l 879 0 l 744 0 m 496 729 q 480 778 489 749 q 462 842 471 808 q 443 904 453 876 q 428 847 438 879 q 409 783 418 814 q 392 728 400 753 l 275 410 l 607 410 l 496 729 m 235 1194 q 251 1243 235 1225 q 299 1261 268 1261 q 347 1243 331 1261 q 364 1194 364 1225 q 347 1145 364 1163 q 299 1128 331 1128 q 251 1145 268 1128 q 235 1194 235 1163 m 518 1194 q 535 1243 518 1225 q 581 1261 551 1261 q 631 1243 614 1261 q 647 1194 647 1225 q 631 1145 647 1163 q 581 1128 614 1128 q 535 1145 551 1128 q 518 1194 518 1163 z "},"À":{"ha":879,"x_min":0,"x_max":879,"o":"m 744 0 l 636 306 l 246 306 l 135 0 l 0 0 l 367 994 l 522 994 l 879 0 l 744 0 m 496 729 q 480 778 489 749 q 462 842 471 808 q 443 904 453 876 q 428 847 438 879 q 409 783 418 814 q 392 728 400 753 l 275 410 l 607 410 l 496 729 m 415 1310 q 469 1242 436 1281 q 539 1165 503 1203 q 601 1100 575 1128 l 601 1088 l 518 1088 q 458 1137 490 1110 q 392 1192 425 1164 q 329 1249 358 1221 q 279 1299 300 1276 l 279 1310 l 415 1310 z "},"Ā":{"ha":879,"x_min":0,"x_max":879,"o":"m 744 0 l 636 306 l 246 306 l 135 0 l 0 0 l 367 994 l 522 994 l 879 0 l 744 0 m 496 729 q 480 778 489 749 q 462 842 471 808 q 443 904 453 876 q 428 847 438 879 q 409 783 418 814 q 392 728 400 753 l 275 410 l 607 410 l 496 729 m 644 1175 l 644 1094 l 238 1094 l 238 1175 l 644 1175 z "},"Ą":{"ha":879,"x_min":0,"x_max":879,"o":"m 744 0 l 636 306 l 246 306 l 135 0 l 0 0 l 367 994 l 522 994 l 879 0 l 744 0 m 496 729 q 480 778 489 749 q 462 842 471 808 q 443 904 453 876 q 428 847 438 879 q 409 783 418 814 q 392 728 400 753 l 275 410 l 607 410 l 496 729 m 728 -164 q 746 -217 728 -199 q 797 -235 764 -235 q 837 -231 817 -235 q 869 -222 857 -228 l 869 -300 q 832 -309 854 -304 q 782 -314 810 -314 q 681 -280 722 -314 q 640 -183 640 -246 q 674 -85 640 -135 q 786 22 707 -35 l 842 0 q 761 -80 794 -40 q 728 -164 728 -119 z "},"Å":{"ha":879,"x_min":0,"x_max":879,"o":"m 744 0 l 636 306 l 246 306 l 135 0 l 0 0 l 367 994 l 522 994 l 879 0 l 744 0 m 496 729 q 480 778 489 749 q 462 842 471 808 q 443 904 453 876 q 428 847 438 879 q 409 783 418 814 q 392 728 400 753 l 275 410 l 607 410 l 496 729 m 442 935 q 331 976 376 935 q 286 1086 286 1018 q 331 1196 286 1154 q 442 1238 375 1238 q 551 1194 506 1238 q 597 1086 597 1151 q 551 976 597 1018 q 442 935 506 935 m 442 999 q 503 1024 479 999 q 528 1086 528 1050 q 502 1149 528 1124 q 442 1174 476 1174 q 378 1149 404 1174 q 353 1086 353 1124 q 377 1024 353 1050 q 442 999 401 999 z "},"Ã":{"ha":879,"x_min":0,"x_max":879,"o":"m 744 0 l 636 306 l 246 306 l 135 0 l 0 0 l 367 994 l 522 994 l 879 0 l 744 0 m 496 729 q 480 778 489 749 q 462 842 471 808 q 443 904 453 876 q 428 847 438 879 q 409 783 418 814 q 392 728 400 753 l 275 410 l 607 410 l 496 729 m 193 1097 q 207 1176 196 1143 q 236 1228 218 1208 q 279 1259 254 1249 q 335 1269 304 1269 q 393 1256 367 1269 q 444 1224 419 1242 q 494 1193 469 1207 q 547 1179 519 1179 q 593 1197 571 1179 q 621 1269 615 1214 l 689 1269 q 644 1139 683 1181 q 547 1097 606 1097 q 488 1110 515 1097 q 435 1141 460 1124 q 385 1172 410 1158 q 333 1186 361 1186 q 290 1169 311 1186 q 261 1097 268 1153 l 193 1097 z "},"B":{"ha":883,"x_min":129,"x_max":810,"o":"m 425 992 q 703 931 619 992 q 788 750 788 869 q 765 643 788 690 q 701 565 742 596 q 607 525 661 535 l 607 521 q 718 479 672 508 q 787 402 764 450 q 810 285 810 354 q 764 124 810 188 q 637 31 718 61 q 449 0 556 0 l 129 0 l 129 992 l 425 992 m 433 567 q 606 610 551 567 q 661 735 661 654 q 604 856 661 818 q 421 894 547 894 l 253 894 l 253 567 l 433 567 m 253 471 l 253 100 l 446 100 q 622 148 561 100 q 683 293 683 196 q 655 396 683 357 q 571 453 626 435 q 435 471 515 471 l 253 471 z "},"C":{"ha":871,"x_min":82,"x_max":828,"o":"m 557 901 q 410 872 475 901 q 299 788 344 842 q 231 660 254 735 q 208 497 208 586 q 246 281 208 372 q 358 140 283 189 q 547 90 433 90 q 683 104 621 90 q 800 139 746 118 l 800 33 q 682 -1 747 11 q 536 -14 617 -14 q 282 51 383 -14 q 131 230 181 115 q 82 497 82 344 q 113 700 82 607 q 206 861 144 793 q 357 967 268 929 q 558 1006 446 1006 q 696 992 628 1006 q 828 947 764 978 l 789 847 q 674 889 731 876 q 557 901 617 901 z "},"Ć":{"ha":871,"x_min":82,"x_max":828,"o":"m 557 901 q 410 872 475 901 q 299 788 344 842 q 231 660 254 735 q 208 497 208 586 q 246 281 208 372 q 358 140 283 189 q 547 90 433 90 q 683 104 621 90 q 800 139 746 118 l 800 33 q 682 -1 747 11 q 536 -14 617 -14 q 282 51 383 -14 q 131 230 181 115 q 82 497 82 344 q 113 700 82 607 q 206 861 144 793 q 357 967 268 929 q 558 1006 446 1006 q 696 992 628 1006 q 828 947 764 978 l 789 847 q 674 889 731 876 q 557 901 617 901 m 758 1299 q 709 1249 739 1276 q 647 1192 679 1221 q 581 1137 614 1164 q 521 1088 549 1110 l 436 1088 l 436 1100 q 501 1165 465 1128 q 570 1242 536 1203 q 624 1310 604 1281 l 758 1310 l 758 1299 z "},"Č":{"ha":871,"x_min":82,"x_max":828,"o":"m 557 901 q 410 872 475 901 q 299 788 344 842 q 231 660 254 735 q 208 497 208 586 q 246 281 208 372 q 358 140 283 189 q 547 90 433 90 q 683 104 621 90 q 800 139 746 118 l 800 33 q 682 -1 747 11 q 536 -14 617 -14 q 282 51 383 -14 q 131 230 181 115 q 82 497 82 344 q 113 700 82 607 q 206 861 144 793 q 357 967 268 929 q 558 1006 446 1006 q 696 992 628 1006 q 828 947 764 978 l 789 847 q 674 889 731 876 q 557 901 617 901 m 467 1088 q 419 1156 447 1118 q 359 1231 390 1193 q 301 1294 328 1268 l 301 1307 l 385 1307 q 458 1236 424 1275 q 525 1161 493 1197 q 594 1236 557 1197 q 668 1307 631 1275 l 751 1307 l 751 1294 q 694 1231 726 1268 q 633 1156 663 1194 q 585 1088 604 1118 l 467 1088 z "},"Ç":{"ha":871,"x_min":82,"x_max":828,"o":"m 557 901 q 410 872 475 901 q 299 788 344 842 q 231 660 254 735 q 208 497 208 586 q 246 281 208 372 q 358 140 283 189 q 547 90 433 90 q 683 104 621 90 q 800 139 746 118 l 800 33 q 682 -1 747 11 q 536 -14 617 -14 q 282 51 383 -14 q 131 230 181 115 q 82 497 82 344 q 113 700 82 607 q 206 861 144 793 q 357 967 268 929 q 558 1006 446 1006 q 696 992 628 1006 q 828 947 764 978 l 789 847 q 674 889 731 876 q 557 901 617 901 m 639 -190 q 592 -294 639 -254 q 471 -333 544 -333 q 410 -329 436 -333 q 365 -319 383 -325 l 365 -250 q 404 -258 385 -256 q 449 -260 424 -260 q 518 -240 490 -260 q 546 -185 546 -221 q 515 -131 546 -149 q 419 -110 485 -112 l 472 0 l 544 0 l 511 -72 q 575 -89 546 -75 q 622 -128 604 -103 q 639 -190 639 -153 z "},"Ċ":{"ha":871,"x_min":82,"x_max":828,"o":"m 557 901 q 410 872 475 901 q 299 788 344 842 q 231 660 254 735 q 208 497 208 586 q 246 281 208 372 q 358 140 283 189 q 547 90 433 90 q 683 104 621 90 q 800 139 746 118 l 800 33 q 682 -1 747 11 q 536 -14 617 -14 q 282 51 383 -14 q 131 230 181 115 q 82 497 82 344 q 113 700 82 607 q 206 861 144 793 q 357 967 268 929 q 558 1006 446 1006 q 696 992 628 1006 q 828 947 764 978 l 789 847 q 674 889 731 876 q 557 901 617 901 m 526 1276 q 583 1259 563 1276 q 603 1204 603 1242 q 583 1151 603 1168 q 526 1135 563 1135 q 471 1151 490 1135 q 451 1204 451 1168 q 471 1259 451 1242 q 526 1276 490 1276 z "},"D":{"ha":983,"x_min":129,"x_max":901,"o":"m 901 510 q 842 228 901 342 q 667 57 782 114 q 383 0 551 0 l 129 0 l 129 992 l 413 992 q 778 868 656 992 q 901 510 901 744 m 774 506 q 735 716 774 631 q 614 845 696 801 q 404 889 532 889 l 253 889 l 253 104 l 389 104 q 678 203 583 104 q 774 506 774 303 z "},"Ď":{"ha":983,"x_min":129,"x_max":901,"o":"m 901 510 q 842 228 901 342 q 667 57 782 114 q 383 0 551 0 l 129 0 l 129 992 l 413 992 q 778 868 656 992 q 901 510 901 744 m 774 506 q 735 716 774 631 q 614 845 696 801 q 404 889 532 889 l 253 889 l 253 104 l 389 104 q 678 203 583 104 q 774 506 774 303 m 432 1088 q 384 1156 413 1118 q 324 1231 356 1193 q 267 1294 293 1268 l 267 1307 l 350 1307 q 424 1236 389 1275 q 490 1161 458 1197 q 559 1236 522 1197 q 633 1307 596 1275 l 717 1307 l 717 1294 q 660 1231 692 1268 q 599 1156 628 1194 q 550 1088 569 1118 l 432 1088 z "},"Đ":{"ha":983,"x_min":22,"x_max":901,"o":"m 413 992 q 778 868 656 992 q 901 510 901 744 q 842 228 901 342 q 667 57 782 114 q 383 0 551 0 l 129 0 l 129 442 l 22 442 l 22 544 l 129 544 l 129 992 l 413 992 m 404 889 l 253 889 l 253 544 l 485 544 l 485 442 l 253 442 l 253 104 l 389 104 q 678 203 583 104 q 774 506 774 303 q 735 716 774 631 q 614 845 696 801 q 404 889 532 889 z "},"E":{"ha":764,"x_min":129,"x_max":685,"o":"m 685 0 l 129 0 l 129 992 l 685 992 l 685 889 l 253 889 l 253 571 l 658 571 l 658 468 l 253 468 l 253 104 l 685 104 l 685 0 z "},"É":{"ha":764,"x_min":129,"x_max":685,"o":"m 685 0 l 129 0 l 129 992 l 685 992 l 685 889 l 253 889 l 253 571 l 658 571 l 658 468 l 253 468 l 253 104 l 685 104 l 685 0 m 647 1299 q 598 1249 628 1276 q 535 1192 568 1221 q 470 1137 503 1164 q 410 1088 438 1110 l 325 1088 l 325 1100 q 390 1165 354 1128 q 459 1242 425 1203 q 513 1310 493 1281 l 647 1310 l 647 1299 z "},"Ě":{"ha":764,"x_min":129,"x_max":685,"o":"m 685 0 l 129 0 l 129 992 l 685 992 l 685 889 l 253 889 l 253 571 l 658 571 l 658 468 l 253 468 l 253 104 l 685 104 l 685 0 m 356 1088 q 308 1156 336 1118 q 248 1231 279 1193 q 190 1294 217 1268 l 190 1307 l 274 1307 q 347 1236 313 1275 q 414 1161 382 1197 q 483 1236 446 1197 q 557 1307 519 1275 l 640 1307 l 640 1294 q 583 1231 615 1268 q 522 1156 551 1194 q 474 1088 493 1118 l 356 1088 z "},"Ê":{"ha":764,"x_min":129,"x_max":685,"o":"m 685 0 l 129 0 l 129 992 l 685 992 l 685 889 l 253 889 l 253 571 l 658 571 l 658 468 l 253 468 l 253 104 l 685 104 l 685 0 m 476 1307 q 524 1240 494 1278 q 584 1165 553 1201 q 640 1100 615 1128 l 640 1088 l 557 1088 q 483 1159 519 1119 q 415 1235 447 1199 q 348 1160 383 1199 q 274 1088 313 1121 l 190 1088 l 190 1100 q 248 1165 217 1128 q 309 1240 279 1201 q 357 1307 339 1278 l 476 1307 z "},"Ë":{"ha":764,"x_min":129,"x_max":685,"o":"m 685 0 l 129 0 l 129 992 l 685 992 l 685 889 l 253 889 l 253 571 l 658 571 l 658 468 l 253 468 l 253 104 l 685 104 l 685 0 m 210 1194 q 226 1243 210 1225 q 274 1261 243 1261 q 322 1243 306 1261 q 339 1194 339 1225 q 322 1145 339 1163 q 274 1128 306 1128 q 226 1145 243 1128 q 210 1194 210 1163 m 493 1194 q 510 1243 493 1225 q 556 1261 526 1261 q 606 1243 589 1261 q 622 1194 622 1225 q 606 1145 622 1163 q 556 1128 589 1128 q 510 1145 526 1128 q 493 1194 493 1163 z "},"Ė":{"ha":764,"x_min":129,"x_max":685,"o":"m 685 0 l 129 0 l 129 992 l 685 992 l 685 889 l 253 889 l 253 571 l 658 571 l 658 468 l 253 468 l 253 104 l 685 104 l 685 0 m 415 1276 q 472 1259 451 1276 q 492 1204 492 1242 q 472 1151 492 1168 q 415 1135 451 1135 q 360 1151 379 1135 q 340 1204 340 1168 q 360 1259 340 1242 q 415 1276 379 1276 z "},"È":{"ha":764,"x_min":129,"x_max":685,"o":"m 685 0 l 129 0 l 129 992 l 685 992 l 685 889 l 253 889 l 253 571 l 658 571 l 658 468 l 253 468 l 253 104 l 685 104 l 685 0 m 390 1310 q 444 1242 411 1281 q 514 1165 478 1203 q 576 1100 550 1128 l 576 1088 l 493 1088 q 433 1137 465 1110 q 367 1192 400 1164 q 304 1249 333 1221 q 254 1299 275 1276 l 254 1310 l 390 1310 z "},"Ē":{"ha":764,"x_min":129,"x_max":685,"o":"m 685 0 l 129 0 l 129 992 l 685 992 l 685 889 l 253 889 l 253 571 l 658 571 l 658 468 l 253 468 l 253 104 l 685 104 l 685 0 m 619 1175 l 619 1094 l 213 1094 l 213 1175 l 619 1175 z "},"Ę":{"ha":764,"x_min":129,"x_max":685,"o":"m 685 0 l 129 0 l 129 992 l 685 992 l 685 889 l 253 889 l 253 571 l 658 571 l 658 468 l 253 468 l 253 104 l 685 104 l 685 0 m 538 -164 q 556 -217 538 -199 q 607 -235 574 -235 q 647 -231 626 -235 q 679 -222 667 -228 l 679 -300 q 642 -309 664 -304 q 592 -314 619 -314 q 491 -280 532 -314 q 450 -183 450 -246 q 483 -85 450 -135 q 596 22 517 -35 l 651 0 q 571 -80 604 -40 q 538 -164 538 -119 z "},"Ð":{"ha":983,"x_min":22,"x_max":901,"o":"m 413 992 q 778 868 656 992 q 901 510 901 744 q 842 228 901 342 q 667 57 782 114 q 383 0 551 0 l 129 0 l 129 442 l 22 442 l 22 544 l 129 544 l 129 992 l 413 992 m 404 889 l 253 889 l 253 544 l 485 544 l 485 442 l 253 442 l 253 104 l 389 104 q 678 203 583 104 q 774 506 774 303 q 735 716 774 631 q 614 845 696 801 q 404 889 532 889 z "},"F":{"ha":708,"x_min":129,"x_max":685,"o":"m 251 0 l 129 0 l 129 992 l 685 992 l 685 889 l 251 889 l 251 528 l 658 528 l 658 425 l 251 425 l 251 0 z "},"G":{"ha":1011,"x_min":82,"x_max":904,"o":"m 508 522 l 904 522 l 904 49 q 747 2 835 18 q 568 -14 660 -14 q 306 44 415 -14 q 140 215 197 101 q 82 496 82 329 q 142 761 82 646 q 315 942 201 876 q 590 1007 429 1007 q 751 992 675 1007 q 890 946 826 976 l 847 846 q 719 890 783 876 q 590 903 656 903 q 381 849 467 903 q 252 702 296 794 q 208 493 208 610 q 253 265 208 354 q 381 133 299 176 q 578 90 464 90 q 692 100 638 90 q 788 125 747 110 l 788 422 l 508 422 l 508 522 z "},"Ğ":{"ha":1011,"x_min":82,"x_max":904,"o":"m 508 522 l 904 522 l 904 49 q 747 2 835 18 q 568 -14 660 -14 q 306 44 415 -14 q 140 215 197 101 q 82 496 82 329 q 142 761 82 646 q 315 942 201 876 q 590 1007 429 1007 q 751 992 675 1007 q 890 946 826 976 l 847 846 q 719 890 783 876 q 590 903 656 903 q 381 849 467 903 q 252 702 296 794 q 208 493 208 610 q 253 265 208 354 q 381 133 299 176 q 578 90 464 90 q 692 100 638 90 q 788 125 747 110 l 788 422 l 508 422 l 508 522 m 774 1279 q 743 1176 769 1219 q 672 1110 717 1133 q 564 1088 626 1088 q 415 1138 467 1088 q 356 1279 363 1188 l 431 1279 q 472 1196 440 1222 q 564 1169 503 1169 q 655 1197 622 1169 q 697 1279 688 1224 l 774 1279 z "},"Ģ":{"ha":1011,"x_min":82,"x_max":904,"o":"m 508 522 l 904 522 l 904 49 q 747 2 835 18 q 568 -14 660 -14 q 306 44 415 -14 q 140 215 197 101 q 82 496 82 329 q 142 761 82 646 q 315 942 201 876 q 590 1007 429 1007 q 751 992 675 1007 q 890 946 826 976 l 847 846 q 719 890 783 876 q 590 903 656 903 q 381 849 467 903 q 252 702 296 794 q 208 493 208 610 q 253 265 208 354 q 381 133 299 176 q 578 90 464 90 q 692 100 638 90 q 788 125 747 110 l 788 422 l 508 422 l 508 522 m 629 -96 q 590 -203 613 -150 q 535 -307 568 -256 l 461 -307 l 461 -294 q 482 -232 471 -271 q 502 -153 493 -193 q 514 -85 511 -112 l 629 -85 l 629 -96 z "},"Ġ":{"ha":1011,"x_min":82,"x_max":904,"o":"m 508 522 l 904 522 l 904 49 q 747 2 835 18 q 568 -14 660 -14 q 306 44 415 -14 q 140 215 197 101 q 82 496 82 329 q 142 761 82 646 q 315 942 201 876 q 590 1007 429 1007 q 751 992 675 1007 q 890 946 826 976 l 847 846 q 719 890 783 876 q 590 903 656 903 q 381 849 467 903 q 252 702 296 794 q 208 493 208 610 q 253 265 208 354 q 381 133 299 176 q 578 90 464 90 q 692 100 638 90 q 788 125 747 110 l 788 422 l 508 422 l 508 522 m 565 1276 q 622 1259 601 1276 q 642 1204 642 1242 q 622 1151 642 1168 q 565 1135 601 1135 q 510 1151 529 1135 q 490 1204 490 1168 q 510 1259 490 1242 q 565 1276 529 1276 z "},"ẞ":{"ha":985,"x_min":126,"x_max":936,"o":"m 492 1004 q 661 973 592 1004 q 774 889 731 942 q 835 768 818 836 l 654 569 q 801 531 738 563 q 901 440 865 499 q 936 296 936 382 q 897 135 936 204 q 781 28 857 67 q 596 -11 706 -11 q 469 2 522 -11 q 379 31 415 15 l 379 139 q 470 103 418 117 q 582 89 522 89 q 754 145 694 89 q 814 296 814 201 q 751 438 814 390 q 563 485 688 485 l 525 485 l 525 575 l 703 776 q 664 836 690 808 q 594 882 638 864 q 489 900 551 900 q 361 872 415 900 q 278 785 307 844 q 249 632 249 726 l 249 0 l 126 0 l 126 649 q 174 848 126 769 q 304 965 222 926 q 492 1004 386 1004 z "},"H":{"ha":1013,"x_min":129,"x_max":882,"o":"m 882 0 l 758 0 l 758 467 l 253 467 l 253 0 l 129 0 l 129 992 l 253 992 l 253 571 l 758 571 l 758 992 l 882 992 l 882 0 z "},"Ħ":{"ha":1021,"x_min":0,"x_max":1021,"o":"m 133 0 l 133 749 l 0 749 l 0 829 l 133 829 l 133 992 l 257 992 l 257 829 l 763 829 l 763 992 l 886 992 l 886 829 l 1021 829 l 1021 749 l 886 749 l 886 0 l 763 0 l 763 467 l 257 467 l 257 0 l 133 0 m 257 571 l 763 571 l 763 749 l 257 749 l 257 571 z "},"I":{"ha":475,"x_min":71,"x_max":406,"o":"m 406 0 l 71 0 l 71 75 l 176 94 l 176 896 l 71 917 l 71 992 l 406 992 l 406 917 l 300 896 l 300 94 l 406 75 l 406 0 z "},"Í":{"ha":475,"x_min":71,"x_max":471,"o":"m 406 0 l 71 0 l 71 75 l 176 94 l 176 896 l 71 917 l 71 992 l 406 992 l 406 917 l 300 896 l 300 94 l 406 75 l 406 0 m 471 1299 q 422 1249 451 1276 q 359 1192 392 1221 q 294 1137 326 1164 q 233 1088 261 1110 l 149 1088 l 149 1100 q 213 1165 178 1128 q 283 1242 249 1203 q 336 1310 317 1281 l 471 1310 l 471 1299 z "},"Î":{"ha":475,"x_min":14,"x_max":463,"o":"m 406 0 l 71 0 l 71 75 l 176 94 l 176 896 l 71 917 l 71 992 l 406 992 l 406 917 l 300 896 l 300 94 l 406 75 l 406 0 m 300 1307 q 347 1240 318 1278 q 408 1165 376 1201 q 464 1100 439 1128 l 464 1088 l 381 1088 q 307 1159 343 1119 q 239 1235 271 1199 q 172 1160 207 1199 q 97 1088 136 1121 l 14 1088 l 14 1100 q 72 1165 40 1128 q 133 1240 103 1201 q 181 1307 163 1278 l 300 1307 z "},"Ï":{"ha":475,"x_min":32,"x_max":444,"o":"m 406 0 l 71 0 l 71 75 l 176 94 l 176 896 l 71 917 l 71 992 l 406 992 l 406 917 l 300 896 l 300 94 l 406 75 l 406 0 m 32 1194 q 49 1243 32 1225 q 96 1261 65 1261 q 144 1243 128 1261 q 161 1194 161 1225 q 144 1145 161 1163 q 96 1128 128 1128 q 49 1145 65 1128 q 32 1194 32 1163 m 315 1194 q 332 1243 315 1225 q 378 1261 349 1261 q 428 1243 411 1261 q 444 1194 444 1225 q 428 1145 444 1163 q 378 1128 411 1128 q 332 1145 349 1128 q 315 1194 315 1163 z "},"İ":{"ha":475,"x_min":71,"x_max":406,"o":"m 406 0 l 71 0 l 71 75 l 176 94 l 176 896 l 71 917 l 71 992 l 406 992 l 406 917 l 300 896 l 300 94 l 406 75 l 406 0 m 238 1276 q 294 1259 274 1276 q 314 1204 314 1242 q 294 1151 314 1168 q 238 1135 274 1135 q 182 1151 201 1135 q 163 1204 163 1168 q 182 1259 163 1242 q 238 1276 201 1276 z "},"Ì":{"ha":475,"x_min":71,"x_max":406,"o":"m 406 0 l 71 0 l 71 75 l 176 94 l 176 896 l 71 917 l 71 992 l 406 992 l 406 917 l 300 896 l 300 94 l 406 75 l 406 0 m 213 1310 q 267 1242 233 1281 q 336 1165 300 1203 q 399 1100 372 1128 l 399 1088 l 315 1088 q 255 1137 288 1110 q 189 1192 222 1164 q 126 1249 156 1221 q 76 1299 97 1276 l 76 1310 l 213 1310 z "},"Ī":{"ha":475,"x_min":36,"x_max":442,"o":"m 406 0 l 71 0 l 71 75 l 176 94 l 176 896 l 71 917 l 71 992 l 406 992 l 406 917 l 300 896 l 300 94 l 406 75 l 406 0 m 443 1175 l 443 1094 l 36 1094 l 36 1175 l 443 1175 z "},"Į":{"ha":475,"x_min":71,"x_max":406,"o":"m 406 0 l 71 0 l 71 75 l 176 94 l 176 896 l 71 917 l 71 992 l 406 992 l 406 917 l 300 896 l 300 94 l 406 75 l 406 0 m 258 -164 q 276 -217 258 -199 q 328 -235 294 -235 q 367 -231 347 -235 q 400 -222 388 -228 l 400 -300 q 363 -309 385 -304 q 313 -314 340 -314 q 212 -280 253 -314 q 171 -183 171 -246 q 204 -85 171 -135 q 317 22 238 -35 l 372 0 q 292 -80 325 -40 q 258 -164 258 -119 z "},"J":{"ha":383,"x_min":-126,"x_max":258,"o":"m -6 -268 q -76 -262 -47 -268 q -126 -251 -106 -257 l -126 -150 q -78 -162 -106 -157 q -21 -167 -51 -167 q 102 -113 69 -167 q 135 32 135 -60 l 135 992 l 258 992 l 258 39 q 228 -128 258 -60 q 140 -233 199 -197 q -6 -268 82 -268 z "},"K":{"ha":842,"x_min":129,"x_max":842,"o":"m 842 0 l 699 0 l 374 488 l 253 379 l 253 0 l 129 0 l 129 992 l 253 992 l 253 492 q 289 539 269 515 q 328 585 308 563 l 696 992 l 839 992 l 464 567 l 842 0 z "},"Ķ":{"ha":842,"x_min":129,"x_max":842,"o":"m 842 0 l 699 0 l 374 488 l 253 379 l 253 0 l 129 0 l 129 992 l 253 992 l 253 492 q 289 539 269 515 q 328 585 308 563 l 696 992 l 839 992 l 464 567 l 842 0 m 514 -96 q 475 -203 497 -150 q 419 -307 453 -256 l 346 -307 l 346 -294 q 367 -232 356 -271 q 387 -153 378 -193 q 399 -85 396 -112 l 514 -85 l 514 -96 z "},"L":{"ha":743,"x_min":129,"x_max":706,"o":"m 129 0 l 129 992 l 253 992 l 253 103 l 706 103 l 706 0 l 129 0 z "},"Ĺ":{"ha":743,"x_min":100,"x_max":706,"o":"m 129 0 l 129 992 l 253 992 l 253 103 l 706 103 l 706 0 l 129 0 m 422 1299 q 373 1249 403 1276 q 310 1192 343 1221 q 245 1137 278 1164 q 185 1088 213 1110 l 100 1088 l 100 1100 q 165 1165 129 1128 q 234 1242 200 1203 q 288 1310 268 1281 l 422 1310 l 422 1299 z "},"Ľ":{"ha":743,"x_min":129,"x_max":708,"o":"m 129 0 l 129 992 l 253 992 l 253 103 l 706 103 l 706 0 l 129 0 m 710 981 q 683 911 697 946 q 651 841 668 876 q 613 769 635 806 l 539 769 l 539 782 q 554 826 546 800 q 570 883 563 853 q 585 941 578 913 q 594 992 592 969 l 710 992 l 710 981 z "},"Ļ":{"ha":743,"x_min":129,"x_max":706,"o":"m 129 0 l 129 992 l 253 992 l 253 103 l 706 103 l 706 0 l 129 0 m 492 -96 q 453 -203 475 -150 q 397 -307 431 -256 l 324 -307 l 324 -294 q 344 -232 333 -271 q 365 -153 356 -193 q 376 -85 374 -112 l 492 -85 l 492 -96 z "},"Ł":{"ha":757,"x_min":1,"x_max":719,"o":"m 143 0 l 143 368 l 50 310 l 1 392 l 143 481 l 143 992 l 267 992 l 267 557 l 469 686 l 519 606 l 267 444 l 267 103 l 719 103 l 719 0 l 143 0 z "},"M":{"ha":1231,"x_min":129,"x_max":1100,"o":"m 557 0 l 239 857 l 235 857 q 238 803 238 833 q 240 742 239 774 q 242 679 242 711 l 242 0 l 129 0 l 129 992 l 300 992 l 614 150 l 618 150 l 932 992 l 1100 992 l 1100 0 l 985 0 l 985 686 q 985 742 985 713 q 988 802 986 772 q 990 856 989 832 l 986 856 l 669 0 l 557 0 z "},"N":{"ha":1040,"x_min":129,"x_max":910,"o":"m 910 0 l 761 0 l 239 831 l 236 831 q 239 755 238 793 q 241 679 240 717 q 242 604 242 642 l 242 0 l 129 0 l 129 992 l 278 992 l 799 167 l 803 167 q 800 239 801 200 q 798 316 799 278 q 797 388 797 354 l 797 992 l 910 992 l 910 0 z "},"Ń":{"ha":1040,"x_min":129,"x_max":910,"o":"m 910 0 l 761 0 l 239 831 l 236 831 q 239 755 238 793 q 241 679 240 717 q 242 604 242 642 l 242 0 l 129 0 l 129 992 l 278 992 l 799 167 l 803 167 q 800 239 801 200 q 798 316 799 278 q 797 388 797 354 l 797 992 l 910 992 l 910 0 m 753 1299 q 703 1249 733 1276 q 641 1192 674 1221 q 576 1137 608 1164 q 515 1088 543 1110 l 431 1088 l 431 1100 q 495 1165 460 1128 q 565 1242 531 1203 q 618 1310 599 1281 l 753 1310 l 753 1299 z "},"Ň":{"ha":1040,"x_min":129,"x_max":910,"o":"m 910 0 l 761 0 l 239 831 l 236 831 q 239 755 238 793 q 241 679 240 717 q 242 604 242 642 l 242 0 l 129 0 l 129 992 l 278 992 l 799 167 l 803 167 q 800 239 801 200 q 798 316 799 278 q 797 388 797 354 l 797 992 l 910 992 l 910 0 m 461 1088 q 413 1156 442 1118 q 353 1231 385 1193 q 296 1294 322 1268 l 296 1307 l 379 1307 q 453 1236 418 1275 q 519 1161 488 1197 q 588 1236 551 1197 q 663 1307 625 1275 l 746 1307 l 746 1294 q 689 1231 721 1268 q 628 1156 657 1194 q 579 1088 599 1118 l 461 1088 z "},"Ņ":{"ha":1040,"x_min":129,"x_max":910,"o":"m 910 0 l 761 0 l 239 831 l 236 831 q 239 755 238 793 q 241 679 240 717 q 242 604 242 642 l 242 0 l 129 0 l 129 992 l 278 992 l 799 167 l 803 167 q 800 239 801 200 q 798 316 799 278 q 797 388 797 354 l 797 992 l 910 992 l 910 0 m 604 -96 q 565 -203 588 -150 q 510 -307 543 -256 l 436 -307 l 436 -294 q 457 -232 446 -271 q 477 -153 468 -193 q 489 -85 486 -112 l 604 -85 l 604 -96 z "},"Ñ":{"ha":1040,"x_min":129,"x_max":910,"o":"m 910 0 l 761 0 l 239 831 l 236 831 q 239 755 238 793 q 241 679 240 717 q 242 604 242 642 l 242 0 l 129 0 l 129 992 l 278 992 l 799 167 l 803 167 q 800 239 801 200 q 798 316 799 278 q 797 388 797 354 l 797 992 l 910 992 l 910 0 m 272 1097 q 286 1176 275 1143 q 315 1228 297 1208 q 358 1259 333 1249 q 414 1269 383 1269 q 472 1256 446 1269 q 524 1224 499 1242 q 574 1193 549 1207 q 626 1179 599 1179 q 672 1197 650 1179 q 700 1269 694 1214 l 768 1269 q 724 1139 763 1181 q 626 1097 685 1097 q 567 1110 594 1097 q 514 1141 539 1124 q 465 1172 489 1158 q 413 1186 440 1186 q 369 1169 390 1186 q 340 1097 347 1153 l 272 1097 z "},"O":{"ha":1069,"x_min":82,"x_max":988,"o":"m 988 497 q 960 290 988 383 q 876 128 932 197 q 735 23 821 60 q 533 -14 650 -14 q 335 23 419 -14 q 193 128 250 60 q 109 291 136 197 q 82 499 82 385 q 133 765 82 650 q 287 943 185 879 q 539 1007 389 1007 q 788 946 689 1007 q 938 770 888 885 q 988 497 988 656 m 211 499 q 245 286 211 378 q 351 143 279 194 q 535 92 424 92 q 719 142 647 92 q 824 285 790 193 q 858 497 858 376 q 778 796 858 689 q 539 903 697 903 q 354 851 428 903 q 246 709 281 800 q 211 499 211 618 z "},"Œ":{"ha":1279,"x_min":82,"x_max":1200,"o":"m 526 1000 q 597 998 563 1000 q 665 992 632 996 l 1200 992 l 1200 889 l 768 889 l 768 571 l 1174 571 l 1174 468 l 768 468 l 768 104 l 1200 104 l 1200 0 l 654 0 q 594 -6 631 -3 q 524 -8 558 -8 q 278 56 376 -8 q 131 233 181 119 q 82 499 82 347 q 133 763 82 650 q 283 938 183 875 q 526 1000 382 1000 m 526 896 q 388 867 447 896 q 289 786 328 839 q 231 660 250 733 q 211 499 211 588 q 244 288 211 378 q 348 147 278 197 q 524 97 418 97 q 593 101 561 97 q 644 113 625 106 l 644 881 q 597 891 628 886 q 526 896 565 896 z "},"Ó":{"ha":1069,"x_min":82,"x_max":988,"o":"m 988 497 q 960 290 988 383 q 876 128 932 197 q 735 23 821 60 q 533 -14 650 -14 q 335 23 419 -14 q 193 128 250 60 q 109 291 136 197 q 82 499 82 385 q 133 765 82 650 q 287 943 185 879 q 539 1007 389 1007 q 788 946 689 1007 q 938 770 888 885 q 988 497 988 656 m 211 499 q 245 286 211 378 q 351 143 279 194 q 535 92 424 92 q 719 142 647 92 q 824 285 790 193 q 858 497 858 376 q 778 796 858 689 q 539 903 697 903 q 354 851 428 903 q 246 709 281 800 q 211 499 211 618 m 768 1299 q 719 1249 749 1276 q 656 1192 689 1221 q 591 1137 624 1164 q 531 1088 558 1110 l 446 1088 l 446 1100 q 510 1165 475 1128 q 580 1242 546 1203 q 633 1310 614 1281 l 768 1310 l 768 1299 z "},"Ô":{"ha":1069,"x_min":82,"x_max":988,"o":"m 988 497 q 960 290 988 383 q 876 128 932 197 q 735 23 821 60 q 533 -14 650 -14 q 335 23 419 -14 q 193 128 250 60 q 109 291 136 197 q 82 499 82 385 q 133 765 82 650 q 287 943 185 879 q 539 1007 389 1007 q 788 946 689 1007 q 938 770 888 885 q 988 497 988 656 m 211 499 q 245 286 211 378 q 351 143 279 194 q 535 92 424 92 q 719 142 647 92 q 824 285 790 193 q 858 497 858 376 q 778 796 858 689 q 539 903 697 903 q 354 851 428 903 q 246 709 281 800 q 211 499 211 618 m 597 1307 q 644 1240 615 1278 q 705 1165 674 1201 q 761 1100 736 1128 l 761 1088 l 678 1088 q 604 1159 640 1119 q 536 1235 568 1199 q 469 1160 504 1199 q 394 1088 433 1121 l 311 1088 l 311 1100 q 369 1165 338 1128 q 430 1240 400 1201 q 478 1307 460 1278 l 597 1307 z "},"Ö":{"ha":1069,"x_min":82,"x_max":988,"o":"m 988 497 q 960 290 988 383 q 876 128 932 197 q 735 23 821 60 q 533 -14 650 -14 q 335 23 419 -14 q 193 128 250 60 q 109 291 136 197 q 82 499 82 385 q 133 765 82 650 q 287 943 185 879 q 539 1007 389 1007 q 788 946 689 1007 q 938 770 888 885 q 988 497 988 656 m 211 499 q 245 286 211 378 q 351 143 279 194 q 535 92 424 92 q 719 142 647 92 q 824 285 790 193 q 858 497 858 376 q 778 796 858 689 q 539 903 697 903 q 354 851 428 903 q 246 709 281 800 q 211 499 211 618 m 329 1194 q 346 1243 329 1225 q 393 1261 363 1261 q 442 1243 425 1261 q 458 1194 458 1225 q 442 1145 458 1163 q 393 1128 425 1128 q 346 1145 363 1128 q 329 1194 329 1163 m 613 1194 q 629 1243 613 1225 q 675 1261 646 1261 q 725 1243 708 1261 q 742 1194 742 1225 q 725 1145 742 1163 q 675 1128 708 1128 q 629 1145 646 1128 q 613 1194 613 1163 z "},"Ò":{"ha":1069,"x_min":82,"x_max":988,"o":"m 988 497 q 960 290 988 383 q 876 128 932 197 q 735 23 821 60 q 533 -14 650 -14 q 335 23 419 -14 q 193 128 250 60 q 109 291 136 197 q 82 499 82 385 q 133 765 82 650 q 287 943 185 879 q 539 1007 389 1007 q 788 946 689 1007 q 938 770 888 885 q 988 497 988 656 m 211 499 q 245 286 211 378 q 351 143 279 194 q 535 92 424 92 q 719 142 647 92 q 824 285 790 193 q 858 497 858 376 q 778 796 858 689 q 539 903 697 903 q 354 851 428 903 q 246 709 281 800 q 211 499 211 618 m 510 1310 q 564 1242 531 1281 q 633 1165 597 1203 q 696 1100 669 1128 l 696 1088 l 613 1088 q 552 1137 585 1110 q 486 1192 519 1164 q 424 1249 453 1221 q 374 1299 394 1276 l 374 1310 l 510 1310 z "},"Ő":{"ha":1069,"x_min":82,"x_max":988,"o":"m 988 497 q 960 290 988 383 q 876 128 932 197 q 735 23 821 60 q 533 -14 650 -14 q 335 23 419 -14 q 193 128 250 60 q 109 291 136 197 q 82 499 82 385 q 133 765 82 650 q 287 943 185 879 q 539 1007 389 1007 q 788 946 689 1007 q 938 770 888 885 q 988 497 988 656 m 211 499 q 245 286 211 378 q 351 143 279 194 q 535 92 424 92 q 719 142 647 92 q 824 285 790 193 q 858 497 858 376 q 778 796 858 689 q 539 903 697 903 q 354 851 428 903 q 246 709 281 800 q 211 499 211 618 m 797 1299 q 760 1249 783 1276 q 708 1192 736 1221 q 651 1136 679 1163 q 599 1088 624 1110 l 529 1088 l 529 1100 q 580 1165 551 1128 q 634 1240 608 1201 q 676 1310 660 1279 l 797 1310 l 797 1299 m 540 1299 q 503 1249 526 1276 q 451 1192 479 1221 q 394 1136 422 1163 q 342 1088 365 1110 l 272 1088 l 272 1100 q 324 1165 296 1128 q 377 1240 351 1201 q 419 1310 403 1279 l 540 1310 l 540 1299 z "},"Ø":{"ha":1069,"x_min":82,"x_max":988,"o":"m 988 497 q 960 290 988 383 q 876 128 932 197 q 735 23 821 60 q 533 -14 650 -14 q 392 6 456 -14 q 278 61 328 25 l 199 -50 l 133 -6 l 213 107 q 115 275 147 175 q 82 499 82 375 q 133 765 82 650 q 287 943 185 879 q 539 1007 389 1007 q 681 989 617 1007 q 794 936 744 971 l 865 1036 l 932 994 l 858 890 q 955 725 922 825 q 988 497 988 625 m 858 497 q 783 778 858 679 l 339 156 q 425 108 376 125 q 535 92 474 92 q 719 142 647 92 q 824 285 790 193 q 858 497 858 376 m 211 499 q 229 340 211 413 q 286 214 247 268 l 732 842 q 646 887 694 871 q 539 903 597 903 q 354 851 428 903 q 246 709 281 800 q 211 499 211 618 z "},"Õ":{"ha":1069,"x_min":82,"x_max":988,"o":"m 988 497 q 960 290 988 383 q 876 128 932 197 q 735 23 821 60 q 533 -14 650 -14 q 335 23 419 -14 q 193 128 250 60 q 109 291 136 197 q 82 499 82 385 q 133 765 82 650 q 287 943 185 879 q 539 1007 389 1007 q 788 946 689 1007 q 938 770 888 885 q 988 497 988 656 m 211 499 q 245 286 211 378 q 351 143 279 194 q 535 92 424 92 q 719 142 647 92 q 824 285 790 193 q 858 497 858 376 q 778 796 858 689 q 539 903 697 903 q 354 851 428 903 q 246 709 281 800 q 211 499 211 618 m 288 1097 q 301 1176 290 1143 q 331 1228 313 1208 q 374 1259 349 1249 q 429 1269 399 1269 q 488 1256 461 1269 q 539 1224 514 1242 q 589 1193 564 1207 q 642 1179 614 1179 q 688 1197 665 1179 q 715 1269 710 1214 l 783 1269 q 739 1139 778 1181 q 642 1097 700 1097 q 582 1110 610 1097 q 529 1141 554 1124 q 480 1172 504 1158 q 428 1186 456 1186 q 384 1169 406 1186 q 356 1097 363 1153 l 288 1097 z "},"P":{"ha":826,"x_min":129,"x_max":758,"o":"m 403 992 q 668 922 578 992 q 758 704 758 851 q 735 569 758 628 q 665 470 711 511 q 551 409 619 429 q 392 389 482 389 l 253 389 l 253 0 l 129 0 l 129 992 l 403 992 m 397 889 l 253 889 l 253 492 l 381 492 q 512 510 454 492 q 601 575 569 529 q 633 701 633 621 q 576 843 633 797 q 397 889 518 889 z "},"Q":{"ha":1069,"x_min":82,"x_max":988,"o":"m 988 497 q 955 276 988 376 q 858 108 922 176 q 693 13 793 40 l 907 -236 l 750 -236 l 569 -12 q 552 -13 561 -12 q 533 -14 543 -14 q 281 51 381 -14 q 131 232 181 117 q 82 499 82 347 q 133 765 82 650 q 287 943 185 879 q 539 1007 389 1007 q 788 946 689 1007 q 938 770 888 885 q 988 497 988 656 m 211 499 q 245 286 211 378 q 351 143 279 194 q 535 92 424 92 q 719 142 647 92 q 824 285 790 193 q 858 497 858 376 q 778 796 858 689 q 539 903 697 903 q 354 851 428 903 q 246 709 281 800 q 211 499 211 618 z "},"R":{"ha":854,"x_min":129,"x_max":838,"o":"m 389 992 q 595 965 513 992 q 719 878 678 938 q 761 718 761 818 q 708 548 761 615 q 558 446 654 481 l 838 0 l 694 0 l 450 414 l 253 414 l 253 0 l 129 0 l 129 992 l 389 992 m 383 894 l 253 894 l 253 511 l 413 511 q 574 562 511 511 q 636 713 636 613 q 609 819 636 779 q 526 877 582 860 q 383 894 469 894 z "},"Ŕ":{"ha":854,"x_min":129,"x_max":838,"o":"m 389 992 q 595 965 513 992 q 719 878 678 938 q 761 718 761 818 q 708 548 761 615 q 558 446 654 481 l 838 0 l 694 0 l 450 414 l 253 414 l 253 0 l 129 0 l 129 992 l 389 992 m 383 894 l 253 894 l 253 511 l 413 511 q 574 562 511 511 q 636 713 636 613 q 609 819 636 779 q 526 877 582 860 q 383 894 469 894 m 660 1299 q 610 1249 640 1276 q 548 1192 581 1221 q 483 1137 515 1164 q 422 1088 450 1110 l 338 1088 l 338 1100 q 402 1165 367 1128 q 472 1242 438 1203 q 525 1310 506 1281 l 660 1310 l 660 1299 z "},"Ř":{"ha":854,"x_min":129,"x_max":838,"o":"m 389 992 q 595 965 513 992 q 719 878 678 938 q 761 718 761 818 q 708 548 761 615 q 558 446 654 481 l 838 0 l 694 0 l 450 414 l 253 414 l 253 0 l 129 0 l 129 992 l 389 992 m 383 894 l 253 894 l 253 511 l 413 511 q 574 562 511 511 q 636 713 636 613 q 609 819 636 779 q 526 877 582 860 q 383 894 469 894 m 368 1088 q 320 1156 349 1118 q 260 1231 292 1193 q 203 1294 229 1268 l 203 1307 l 286 1307 q 360 1236 325 1275 q 426 1161 394 1197 q 495 1236 458 1197 q 569 1307 532 1275 l 653 1307 l 653 1294 q 596 1231 628 1268 q 535 1156 564 1194 q 486 1088 506 1118 l 368 1088 z "},"S":{"ha":772,"x_min":72,"x_max":708,"o":"m 708 269 q 665 119 708 183 q 542 21 621 56 q 354 -14 463 -14 q 240 -8 289 -14 q 151 10 192 -1 q 72 35 110 21 l 72 150 q 208 106 136 122 q 358 90 281 90 q 474 109 424 90 q 553 165 524 128 q 583 261 583 203 q 556 348 583 315 q 476 406 529 381 q 344 458 422 432 q 207 522 267 489 q 114 606 147 554 q 81 740 81 657 q 125 888 81 829 q 246 976 169 946 q 418 1006 322 1006 q 563 990 496 1006 q 692 947 631 975 l 651 850 q 528 891 588 878 q 414 904 468 904 q 307 887 354 904 q 232 835 260 869 q 204 747 204 800 q 233 657 204 692 q 314 598 261 622 q 439 547 367 574 q 581 484 521 518 q 675 400 642 450 q 708 269 708 350 z "},"Ś":{"ha":772,"x_min":72,"x_max":708,"o":"m 708 269 q 665 119 708 183 q 542 21 621 56 q 354 -14 463 -14 q 240 -8 289 -14 q 151 10 192 -1 q 72 35 110 21 l 72 150 q 208 106 136 122 q 358 90 281 90 q 474 109 424 90 q 553 165 524 128 q 583 261 583 203 q 556 348 583 315 q 476 406 529 381 q 344 458 422 432 q 207 522 267 489 q 114 606 147 554 q 81 740 81 657 q 125 888 81 829 q 246 976 169 946 q 418 1006 322 1006 q 563 990 496 1006 q 692 947 631 975 l 651 850 q 528 891 588 878 q 414 904 468 904 q 307 887 354 904 q 232 835 260 869 q 204 747 204 800 q 233 657 204 692 q 314 598 261 622 q 439 547 367 574 q 581 484 521 518 q 675 400 642 450 q 708 269 708 350 m 619 1299 q 570 1249 600 1276 q 508 1192 540 1221 q 442 1137 475 1164 q 382 1088 410 1110 l 297 1088 l 297 1100 q 362 1165 326 1128 q 431 1242 397 1203 q 485 1310 465 1281 l 619 1310 l 619 1299 z "},"Š":{"ha":772,"x_min":72,"x_max":708,"o":"m 708 269 q 665 119 708 183 q 542 21 621 56 q 354 -14 463 -14 q 240 -8 289 -14 q 151 10 192 -1 q 72 35 110 21 l 72 150 q 208 106 136 122 q 358 90 281 90 q 474 109 424 90 q 553 165 524 128 q 583 261 583 203 q 556 348 583 315 q 476 406 529 381 q 344 458 422 432 q 207 522 267 489 q 114 606 147 554 q 81 740 81 657 q 125 888 81 829 q 246 976 169 946 q 418 1006 322 1006 q 563 990 496 1006 q 692 947 631 975 l 651 850 q 528 891 588 878 q 414 904 468 904 q 307 887 354 904 q 232 835 260 869 q 204 747 204 800 q 233 657 204 692 q 314 598 261 622 q 439 547 367 574 q 581 484 521 518 q 675 400 642 450 q 708 269 708 350 m 328 1088 q 280 1156 308 1118 q 220 1231 251 1193 q 163 1294 189 1268 l 163 1307 l 246 1307 q 319 1236 285 1275 q 386 1161 354 1197 q 455 1236 418 1197 q 529 1307 492 1275 l 613 1307 l 613 1294 q 556 1231 588 1268 q 494 1156 524 1194 q 446 1088 465 1118 l 328 1088 z "},"Ş":{"ha":772,"x_min":72,"x_max":708,"o":"m 708 269 q 665 119 708 183 q 542 21 621 56 q 354 -14 463 -14 q 240 -8 289 -14 q 151 10 192 -1 q 72 35 110 21 l 72 150 q 208 106 136 122 q 358 90 281 90 q 474 109 424 90 q 553 165 524 128 q 583 261 583 203 q 556 348 583 315 q 476 406 529 381 q 344 458 422 432 q 207 522 267 489 q 114 606 147 554 q 81 740 81 657 q 125 888 81 829 q 246 976 169 946 q 418 1006 322 1006 q 563 990 496 1006 q 692 947 631 975 l 651 850 q 528 891 588 878 q 414 904 468 904 q 307 887 354 904 q 232 835 260 869 q 204 747 204 800 q 233 657 204 692 q 314 598 261 622 q 439 547 367 574 q 581 484 521 518 q 675 400 642 450 q 708 269 708 350 m 524 -190 q 476 -294 524 -254 q 356 -333 429 -333 q 294 -329 321 -333 q 250 -319 268 -325 l 250 -250 q 289 -258 269 -256 q 333 -260 308 -260 q 403 -240 375 -260 q 431 -185 431 -221 q 400 -131 431 -149 q 304 -110 369 -112 l 357 0 l 429 0 l 396 -72 q 460 -89 431 -75 q 506 -128 489 -103 q 524 -190 524 -153 z "},"Ș":{"ha":772,"x_min":72,"x_max":708,"o":"m 708 269 q 665 119 708 183 q 542 21 621 56 q 354 -14 463 -14 q 240 -8 289 -14 q 151 10 192 -1 q 72 35 110 21 l 72 150 q 208 106 136 122 q 358 90 281 90 q 474 109 424 90 q 553 165 524 128 q 583 261 583 203 q 556 348 583 315 q 476 406 529 381 q 344 458 422 432 q 207 522 267 489 q 114 606 147 554 q 81 740 81 657 q 125 888 81 829 q 246 976 169 946 q 418 1006 322 1006 q 563 990 496 1006 q 692 947 631 975 l 651 850 q 528 891 588 878 q 414 904 468 904 q 307 887 354 904 q 232 835 260 869 q 204 747 204 800 q 233 657 204 692 q 314 598 261 622 q 439 547 367 574 q 581 484 521 518 q 675 400 642 450 q 708 269 708 350 m 471 -96 q 432 -203 454 -150 q 376 -307 410 -256 l 303 -307 l 303 -294 q 324 -232 313 -271 q 344 -153 335 -193 q 356 -85 353 -112 l 471 -85 l 471 -96 z "},"T":{"ha":746,"x_min":15,"x_max":732,"o":"m 435 0 l 311 0 l 311 888 l 15 888 l 15 992 l 732 992 l 732 888 l 435 888 l 435 0 z "},"Ť":{"ha":746,"x_min":15,"x_max":732,"o":"m 435 0 l 311 0 l 311 888 l 15 888 l 15 992 l 732 992 l 732 888 l 435 888 l 435 0 m 315 1088 q 267 1156 296 1118 q 208 1231 239 1193 q 150 1294 176 1268 l 150 1307 l 233 1307 q 307 1236 272 1275 q 374 1161 342 1197 q 442 1236 406 1197 q 517 1307 479 1275 l 600 1307 l 600 1294 q 543 1231 575 1268 q 482 1156 511 1194 q 433 1088 453 1118 l 315 1088 z "},"Ț":{"ha":746,"x_min":15,"x_max":732,"o":"m 435 0 l 311 0 l 311 888 l 15 888 l 15 992 l 732 992 l 732 888 l 435 888 l 435 0 m 458 -96 q 419 -203 442 -150 q 364 -307 397 -256 l 290 -307 l 290 -294 q 311 -232 300 -271 q 331 -153 322 -193 q 343 -85 340 -112 l 458 -85 l 458 -96 z "},"Þ":{"ha":824,"x_min":129,"x_max":760,"o":"m 760 531 q 737 401 760 458 q 668 302 714 343 q 553 240 622 261 q 392 219 483 219 l 253 219 l 253 0 l 129 0 l 129 992 l 253 992 l 253 824 l 413 824 q 673 751 586 824 q 760 531 760 679 m 378 324 q 511 343 453 324 q 602 408 569 363 q 635 531 635 454 q 580 674 635 629 q 404 719 525 719 l 253 719 l 253 324 l 378 324 z "},"U":{"ha":1013,"x_min":121,"x_max":893,"o":"m 893 367 q 846 158 893 243 q 712 30 799 74 q 504 -14 625 -14 q 220 83 319 -14 q 121 367 121 181 l 121 992 l 244 992 l 244 376 q 313 162 244 232 q 507 92 381 92 q 648 122 589 92 q 738 213 707 151 q 769 367 769 274 l 769 992 l 893 992 l 893 367 z "},"Ú":{"ha":1013,"x_min":121,"x_max":893,"o":"m 893 367 q 846 158 893 243 q 712 30 799 74 q 504 -14 625 -14 q 220 83 319 -14 q 121 367 121 181 l 121 992 l 244 992 l 244 376 q 313 162 244 232 q 507 92 381 92 q 648 122 589 92 q 738 213 707 151 q 769 367 769 274 l 769 992 l 893 992 l 893 367 m 739 1299 q 690 1249 719 1276 q 627 1192 660 1221 q 562 1137 594 1164 q 501 1088 529 1110 l 417 1088 l 417 1100 q 481 1165 446 1128 q 551 1242 517 1203 q 604 1310 585 1281 l 739 1310 l 739 1299 z "},"Û":{"ha":1013,"x_min":121,"x_max":893,"o":"m 893 367 q 846 158 893 243 q 712 30 799 74 q 504 -14 625 -14 q 220 83 319 -14 q 121 367 121 181 l 121 992 l 244 992 l 244 376 q 313 162 244 232 q 507 92 381 92 q 648 122 589 92 q 738 213 707 151 q 769 367 769 274 l 769 992 l 893 992 l 893 367 m 568 1307 q 615 1240 586 1278 q 676 1165 644 1201 q 732 1100 707 1128 l 732 1088 l 649 1088 q 575 1159 611 1119 q 507 1235 539 1199 q 440 1160 475 1199 q 365 1088 404 1121 l 282 1088 l 282 1100 q 340 1165 308 1128 q 401 1240 371 1201 q 449 1307 431 1278 l 568 1307 z "},"Ü":{"ha":1013,"x_min":121,"x_max":893,"o":"m 893 367 q 846 158 893 243 q 712 30 799 74 q 504 -14 625 -14 q 220 83 319 -14 q 121 367 121 181 l 121 992 l 244 992 l 244 376 q 313 162 244 232 q 507 92 381 92 q 648 122 589 92 q 738 213 707 151 q 769 367 769 274 l 769 992 l 893 992 l 893 367 m 301 1194 q 318 1243 301 1225 q 365 1261 335 1261 q 414 1243 397 1261 q 431 1194 431 1225 q 414 1145 431 1163 q 365 1128 397 1128 q 318 1145 335 1128 q 301 1194 301 1163 m 585 1194 q 601 1243 585 1225 q 647 1261 618 1261 q 697 1243 681 1261 q 714 1194 714 1225 q 697 1145 714 1163 q 647 1128 681 1128 q 601 1145 618 1128 q 585 1194 585 1163 z "},"Ù":{"ha":1013,"x_min":121,"x_max":893,"o":"m 893 367 q 846 158 893 243 q 712 30 799 74 q 504 -14 625 -14 q 220 83 319 -14 q 121 367 121 181 l 121 992 l 244 992 l 244 376 q 313 162 244 232 q 507 92 381 92 q 648 122 589 92 q 738 213 707 151 q 769 367 769 274 l 769 992 l 893 992 l 893 367 m 482 1310 q 536 1242 503 1281 q 606 1165 569 1203 q 668 1100 642 1128 l 668 1088 l 585 1088 q 524 1137 557 1110 q 458 1192 492 1164 q 396 1249 425 1221 q 346 1299 367 1276 l 346 1310 l 482 1310 z "},"Ű":{"ha":1013,"x_min":121,"x_max":893,"o":"m 893 367 q 846 158 893 243 q 712 30 799 74 q 504 -14 625 -14 q 220 83 319 -14 q 121 367 121 181 l 121 992 l 244 992 l 244 376 q 313 162 244 232 q 507 92 381 92 q 648 122 589 92 q 738 213 707 151 q 769 367 769 274 l 769 992 l 893 992 l 893 367 m 768 1299 q 731 1249 754 1276 q 678 1192 707 1221 q 622 1136 650 1163 q 569 1088 594 1110 l 500 1088 l 500 1100 q 551 1165 522 1128 q 605 1240 579 1201 q 647 1310 631 1279 l 768 1310 l 768 1299 m 511 1299 q 474 1249 497 1276 q 422 1192 450 1221 q 365 1136 393 1163 q 313 1088 336 1110 l 243 1088 l 243 1100 q 294 1165 267 1128 q 348 1240 322 1201 q 390 1310 374 1279 l 511 1310 l 511 1299 z "},"Ū":{"ha":1013,"x_min":121,"x_max":893,"o":"m 893 367 q 846 158 893 243 q 712 30 799 74 q 504 -14 625 -14 q 220 83 319 -14 q 121 367 121 181 l 121 992 l 244 992 l 244 376 q 313 162 244 232 q 507 92 381 92 q 648 122 589 92 q 738 213 707 151 q 769 367 769 274 l 769 992 l 893 992 l 893 367 m 711 1175 l 711 1094 l 304 1094 l 304 1175 l 711 1175 z "},"Ų":{"ha":1013,"x_min":121,"x_max":893,"o":"m 644 -151 q 663 -216 644 -197 q 715 -235 681 -235 q 754 -231 733 -235 q 786 -222 775 -228 l 786 -300 q 749 -309 771 -304 q 699 -314 726 -314 q 599 -279 640 -314 q 558 -171 558 -244 q 596 -47 558 -107 q 708 74 633 14 l 776 78 q 714 9 744 44 q 664 -66 683 -26 q 644 -151 644 -106 m 893 367 q 846 158 893 243 q 712 30 799 74 q 504 -14 625 -14 q 220 83 319 -14 q 121 367 121 181 l 121 992 l 244 992 l 244 376 q 313 162 244 232 q 507 92 381 92 q 648 122 589 92 q 738 213 707 151 q 769 367 769 274 l 769 992 l 893 992 l 893 367 z "},"Ů":{"ha":1013,"x_min":121,"x_max":893,"o":"m 893 367 q 846 158 893 243 q 712 30 799 74 q 504 -14 625 -14 q 220 83 319 -14 q 121 367 121 181 l 121 992 l 244 992 l 244 376 q 313 162 244 232 q 507 92 381 92 q 648 122 589 92 q 738 213 707 151 q 769 367 769 274 l 769 992 l 893 992 l 893 367 m 506 1090 q 395 1132 440 1090 q 350 1242 350 1174 q 394 1351 350 1310 q 506 1393 439 1393 q 615 1350 569 1393 q 661 1242 661 1307 q 615 1132 661 1174 q 506 1090 569 1090 m 506 1154 q 567 1180 543 1154 q 592 1242 592 1206 q 566 1304 592 1279 q 506 1329 540 1329 q 442 1304 468 1329 q 417 1242 417 1279 q 441 1180 417 1206 q 506 1154 465 1154 z "},"V":{"ha":850,"x_min":0,"x_max":850,"o":"m 850 992 l 494 0 l 356 0 l 0 992 l 138 992 l 375 307 q 394 248 385 281 q 413 183 404 215 q 425 128 421 151 q 438 182 431 151 q 456 244 446 213 q 475 307 465 276 l 714 992 l 850 992 z "},"W":{"ha":1296,"x_min":36,"x_max":1261,"o":"m 1261 992 l 999 0 l 858 0 l 683 667 q 674 706 679 685 q 664 749 669 726 q 653 795 658 772 q 646 839 649 818 q 639 797 643 818 q 631 754 635 775 q 622 716 626 733 q 615 686 618 699 l 438 0 l 299 0 l 36 992 l 157 992 l 326 333 q 338 285 332 311 q 351 231 344 258 q 363 179 357 204 q 372 132 369 154 q 384 192 378 160 q 397 256 390 224 q 412 320 404 289 q 426 379 419 351 l 589 992 l 704 992 l 868 378 q 884 318 876 350 q 899 253 892 286 q 913 189 906 221 q 924 129 919 157 q 935 194 928 160 q 951 263 943 228 q 967 331 958 299 l 1142 992 l 1261 992 z "},"Ẃ":{"ha":1296,"x_min":36,"x_max":1261,"o":"m 1261 992 l 999 0 l 858 0 l 683 667 q 674 706 679 685 q 664 749 669 726 q 653 795 658 772 q 646 839 649 818 q 639 797 643 818 q 631 754 635 775 q 622 716 626 733 q 615 686 618 699 l 438 0 l 299 0 l 36 992 l 157 992 l 326 333 q 338 285 332 311 q 351 231 344 258 q 363 179 357 204 q 372 132 369 154 q 384 192 378 160 q 397 256 390 224 q 412 320 404 289 q 426 379 419 351 l 589 992 l 704 992 l 868 378 q 884 318 876 350 q 899 253 892 286 q 913 189 906 221 q 924 129 919 157 q 935 194 928 160 q 951 263 943 228 q 967 331 958 299 l 1142 992 l 1261 992 m 881 1299 q 831 1249 861 1276 q 769 1192 801 1221 q 703 1137 736 1164 q 643 1088 671 1110 l 558 1088 l 558 1100 q 623 1165 588 1128 q 692 1242 658 1203 q 746 1310 726 1281 l 881 1310 l 881 1299 z "},"Ŵ":{"ha":1296,"x_min":36,"x_max":1261,"o":"m 1261 992 l 999 0 l 858 0 l 683 667 q 674 706 679 685 q 664 749 669 726 q 653 795 658 772 q 646 839 649 818 q 639 797 643 818 q 631 754 635 775 q 622 716 626 733 q 615 686 618 699 l 438 0 l 299 0 l 36 992 l 157 992 l 326 333 q 338 285 332 311 q 351 231 344 258 q 363 179 357 204 q 372 132 369 154 q 384 192 378 160 q 397 256 390 224 q 412 320 404 289 q 426 379 419 351 l 589 992 l 704 992 l 868 378 q 884 318 876 350 q 899 253 892 286 q 913 189 906 221 q 924 129 919 157 q 935 194 928 160 q 951 263 943 228 q 967 331 958 299 l 1142 992 l 1261 992 m 710 1307 q 757 1240 728 1278 q 817 1165 786 1201 q 874 1100 849 1128 l 874 1088 l 790 1088 q 717 1159 753 1119 q 649 1235 681 1199 q 581 1160 617 1199 q 507 1088 546 1121 l 424 1088 l 424 1100 q 481 1165 450 1128 q 542 1240 513 1201 q 590 1307 572 1278 l 710 1307 z "},"Ẅ":{"ha":1296,"x_min":36,"x_max":1261,"o":"m 1261 992 l 999 0 l 858 0 l 683 667 q 674 706 679 685 q 664 749 669 726 q 653 795 658 772 q 646 839 649 818 q 639 797 643 818 q 631 754 635 775 q 622 716 626 733 q 615 686 618 699 l 438 0 l 299 0 l 36 992 l 157 992 l 326 333 q 338 285 332 311 q 351 231 344 258 q 363 179 357 204 q 372 132 369 154 q 384 192 378 160 q 397 256 390 224 q 412 320 404 289 q 426 379 419 351 l 589 992 l 704 992 l 868 378 q 884 318 876 350 q 899 253 892 286 q 913 189 906 221 q 924 129 919 157 q 935 194 928 160 q 951 263 943 228 q 967 331 958 299 l 1142 992 l 1261 992 m 443 1194 q 460 1243 443 1225 q 507 1261 476 1261 q 556 1243 539 1261 q 572 1194 572 1225 q 556 1145 572 1163 q 507 1128 539 1128 q 460 1145 476 1128 q 443 1194 443 1163 m 726 1194 q 743 1243 726 1225 q 789 1261 760 1261 q 839 1243 822 1261 q 856 1194 856 1225 q 839 1145 856 1163 q 789 1128 822 1128 q 743 1145 760 1128 q 726 1194 726 1163 z "},"Ẁ":{"ha":1296,"x_min":36,"x_max":1261,"o":"m 1261 992 l 999 0 l 858 0 l 683 667 q 674 706 679 685 q 664 749 669 726 q 653 795 658 772 q 646 839 649 818 q 639 797 643 818 q 631 754 635 775 q 622 716 626 733 q 615 686 618 699 l 438 0 l 299 0 l 36 992 l 157 992 l 326 333 q 338 285 332 311 q 351 231 344 258 q 363 179 357 204 q 372 132 369 154 q 384 192 378 160 q 397 256 390 224 q 412 320 404 289 q 426 379 419 351 l 589 992 l 704 992 l 868 378 q 884 318 876 350 q 899 253 892 286 q 913 189 906 221 q 924 129 919 157 q 935 194 928 160 q 951 263 943 228 q 967 331 958 299 l 1142 992 l 1261 992 m 624 1310 q 678 1242 644 1281 q 747 1165 711 1203 q 810 1100 783 1128 l 810 1088 l 726 1088 q 666 1137 699 1110 q 600 1192 633 1164 q 538 1249 567 1221 q 488 1299 508 1276 l 488 1310 l 624 1310 z "},"X":{"ha":818,"x_min":-1,"x_max":819,"o":"m 819 0 l 676 0 l 408 419 l 139 0 l -1 0 l 332 511 l 28 992 l 165 992 l 410 596 l 654 992 l 794 992 l 486 504 l 819 0 z "},"Y":{"ha":785,"x_min":0,"x_max":785,"o":"m 393 496 l 650 992 l 785 992 l 456 385 l 456 0 l 332 0 l 332 378 l 0 992 l 136 992 l 393 496 z "},"Ý":{"ha":785,"x_min":0,"x_max":785,"o":"m 393 496 l 650 992 l 785 992 l 456 385 l 456 0 l 332 0 l 332 378 l 0 992 l 136 992 l 393 496 m 625 1299 q 576 1249 606 1276 q 513 1192 546 1221 q 448 1137 481 1164 q 388 1088 415 1110 l 303 1088 l 303 1100 q 367 1165 332 1128 q 437 1242 403 1203 q 490 1310 471 1281 l 625 1310 l 625 1299 z "},"Ŷ":{"ha":785,"x_min":0,"x_max":785,"o":"m 393 496 l 650 992 l 785 992 l 456 385 l 456 0 l 332 0 l 332 378 l 0 992 l 136 992 l 393 496 m 454 1307 q 501 1240 472 1278 q 562 1165 531 1201 q 618 1100 593 1128 l 618 1088 l 535 1088 q 461 1159 497 1119 q 393 1235 425 1199 q 326 1160 361 1199 q 251 1088 290 1121 l 168 1088 l 168 1100 q 226 1165 194 1128 q 287 1240 257 1201 q 335 1307 317 1278 l 454 1307 z "},"Ÿ":{"ha":785,"x_min":0,"x_max":785,"o":"m 393 496 l 650 992 l 785 992 l 456 385 l 456 0 l 332 0 l 332 378 l 0 992 l 136 992 l 393 496 m 188 1194 q 204 1243 188 1225 q 251 1261 221 1261 q 300 1243 283 1261 q 317 1194 317 1225 q 300 1145 317 1163 q 251 1128 283 1128 q 204 1145 221 1128 q 188 1194 188 1163 m 471 1194 q 488 1243 471 1225 q 533 1261 504 1261 q 583 1243 567 1261 q 600 1194 600 1225 q 583 1145 600 1163 q 533 1128 567 1128 q 488 1145 504 1128 q 471 1194 471 1163 z "},"Ỳ":{"ha":785,"x_min":0,"x_max":785,"o":"m 393 496 l 650 992 l 785 992 l 456 385 l 456 0 l 332 0 l 332 378 l 0 992 l 136 992 l 393 496 m 368 1310 q 422 1242 389 1281 q 492 1165 456 1203 q 554 1100 528 1128 l 554 1088 l 471 1088 q 410 1137 443 1110 q 344 1192 378 1164 q 282 1249 311 1221 q 232 1299 253 1276 l 232 1310 l 368 1310 z "},"Z":{"ha":819,"x_min":47,"x_max":772,"o":"m 772 0 l 47 0 l 47 78 l 601 889 l 75 889 l 75 992 l 758 992 l 758 914 l 204 103 l 772 103 l 772 0 z "},"Ź":{"ha":819,"x_min":47,"x_max":772,"o":"m 772 0 l 47 0 l 47 78 l 601 889 l 75 889 l 75 992 l 758 992 l 758 914 l 204 103 l 772 103 l 772 0 m 647 1299 q 598 1249 628 1276 q 535 1192 568 1221 q 470 1137 503 1164 q 410 1088 438 1110 l 325 1088 l 325 1100 q 390 1165 354 1128 q 459 1242 425 1203 q 513 1310 493 1281 l 647 1310 l 647 1299 z "},"Ž":{"ha":819,"x_min":47,"x_max":772,"o":"m 772 0 l 47 0 l 47 78 l 601 889 l 75 889 l 75 992 l 758 992 l 758 914 l 204 103 l 772 103 l 772 0 m 356 1088 q 308 1156 336 1118 q 248 1231 279 1193 q 190 1294 217 1268 l 190 1307 l 274 1307 q 347 1236 313 1275 q 414 1161 382 1197 q 483 1236 446 1197 q 557 1307 519 1275 l 640 1307 l 640 1294 q 583 1231 615 1268 q 522 1156 551 1194 q 474 1088 493 1118 l 356 1088 z "},"Ż":{"ha":819,"x_min":47,"x_max":772,"o":"m 772 0 l 47 0 l 47 78 l 601 889 l 75 889 l 75 992 l 758 992 l 758 914 l 204 103 l 772 103 l 772 0 m 415 1276 q 472 1259 451 1276 q 492 1204 492 1242 q 472 1151 492 1168 q 415 1135 451 1135 q 360 1151 379 1135 q 340 1204 340 1168 q 360 1259 340 1242 q 415 1276 379 1276 z "},"a":{"ha":768,"x_min":61,"x_max":663,"o":"m 404 760 q 597 694 531 760 q 663 493 663 628 l 663 0 l 575 0 l 553 128 l 549 128 q 490 54 524 86 q 407 4 456 22 q 288 -14 358 -14 q 165 12 215 -14 q 88 85 115 38 q 61 200 61 132 q 151 372 61 315 q 403 438 240 428 l 540 444 l 540 485 q 501 626 540 583 q 386 668 463 668 q 281 654 335 668 q 168 611 228 640 l 132 700 q 259 744 192 728 q 404 760 326 760 m 431 363 q 251 319 315 357 q 186 206 186 282 q 224 112 186 146 q 329 78 261 78 q 488 139 435 78 q 542 297 540 200 l 542 368 l 431 363 z "},"á":{"ha":768,"x_min":61,"x_max":663,"o":"m 404 760 q 597 694 531 760 q 663 493 663 628 l 663 0 l 575 0 l 553 128 l 549 128 q 490 54 524 86 q 407 4 456 22 q 288 -14 358 -14 q 165 12 215 -14 q 88 85 115 38 q 61 200 61 132 q 151 372 61 315 q 403 438 240 428 l 540 444 l 540 485 q 501 626 540 583 q 386 668 463 668 q 281 654 335 668 q 168 611 228 640 l 132 700 q 259 744 192 728 q 404 760 326 760 m 431 363 q 251 319 315 357 q 186 206 186 282 q 224 112 186 146 q 329 78 261 78 q 488 139 435 78 q 542 297 540 200 l 542 368 l 431 363 m 617 1053 q 567 1003 597 1031 q 505 947 538 975 q 440 891 472 918 q 379 842 407 864 l 294 842 l 294 854 q 359 919 324 882 q 428 996 394 957 q 482 1064 463 1035 l 617 1064 l 617 1053 z "},"ă":{"ha":768,"x_min":61,"x_max":663,"o":"m 404 760 q 597 694 531 760 q 663 493 663 628 l 663 0 l 575 0 l 553 128 l 549 128 q 490 54 524 86 q 407 4 456 22 q 288 -14 358 -14 q 165 12 215 -14 q 88 85 115 38 q 61 200 61 132 q 151 372 61 315 q 403 438 240 428 l 540 444 l 540 485 q 501 626 540 583 q 386 668 463 668 q 281 654 335 668 q 168 611 228 640 l 132 700 q 259 744 192 728 q 404 760 326 760 m 431 363 q 251 319 315 357 q 186 206 186 282 q 224 112 186 146 q 329 78 261 78 q 488 139 435 78 q 542 297 540 200 l 542 368 l 431 363 m 594 1033 q 564 931 590 974 q 492 865 538 888 q 385 842 447 842 q 235 892 288 842 q 176 1033 183 942 l 251 1033 q 292 950 261 976 q 385 924 324 924 q 476 951 443 924 q 518 1033 508 978 l 594 1033 z "},"â":{"ha":768,"x_min":61,"x_max":663,"o":"m 404 760 q 597 694 531 760 q 663 493 663 628 l 663 0 l 575 0 l 553 128 l 549 128 q 490 54 524 86 q 407 4 456 22 q 288 -14 358 -14 q 165 12 215 -14 q 88 85 115 38 q 61 200 61 132 q 151 372 61 315 q 403 438 240 428 l 540 444 l 540 485 q 501 626 540 583 q 386 668 463 668 q 281 654 335 668 q 168 611 228 640 l 132 700 q 259 744 192 728 q 404 760 326 760 m 431 363 q 251 319 315 357 q 186 206 186 282 q 224 112 186 146 q 329 78 261 78 q 488 139 435 78 q 542 297 540 200 l 542 368 l 431 363 m 446 1061 q 493 994 464 1032 q 553 919 522 956 q 610 854 585 882 l 610 842 l 526 842 q 453 913 489 874 q 385 989 417 953 q 317 914 353 953 q 243 842 282 875 l 160 842 l 160 854 q 217 919 186 882 q 278 994 249 956 q 326 1061 308 1032 l 446 1061 z "},"´":{"ha":433,"x_min":56,"x_max":378,"o":"m 378 1053 q 328 1003 358 1031 q 266 947 299 975 q 201 891 233 918 q 140 842 168 864 l 56 842 l 56 854 q 120 919 85 882 q 190 996 156 957 q 243 1064 224 1035 l 378 1064 l 378 1053 z "},"́":{"ha":0,"x_min":-385,"x_max":-62,"o":"m -62 1053 q -112 1003 -82 1031 q -174 947 -142 975 q -240 891 -207 918 q -300 842 -272 864 l -385 842 l -385 854 q -320 919 -356 882 q -251 996 -285 957 q -197 1064 -217 1035 l -62 1064 l -62 1053 z "},"ä":{"ha":768,"x_min":61,"x_max":663,"o":"m 404 760 q 597 694 531 760 q 663 493 663 628 l 663 0 l 575 0 l 553 128 l 549 128 q 490 54 524 86 q 407 4 456 22 q 288 -14 358 -14 q 165 12 215 -14 q 88 85 115 38 q 61 200 61 132 q 151 372 61 315 q 403 438 240 428 l 540 444 l 540 485 q 501 626 540 583 q 386 668 463 668 q 281 654 335 668 q 168 611 228 640 l 132 700 q 259 744 192 728 q 404 760 326 760 m 431 363 q 251 319 315 357 q 186 206 186 282 q 224 112 186 146 q 329 78 261 78 q 488 139 435 78 q 542 297 540 200 l 542 368 l 431 363 m 179 949 q 196 997 179 979 q 243 1015 213 1015 q 292 997 275 1015 q 308 949 308 979 q 292 899 308 917 q 243 882 275 882 q 196 899 213 882 q 179 949 179 917 m 463 949 q 479 997 463 979 q 525 1015 496 1015 q 575 997 558 1015 q 592 949 592 979 q 575 899 592 917 q 525 882 558 882 q 479 899 496 882 q 463 949 463 917 z "},"æ":{"ha":1225,"x_min":61,"x_max":1153,"o":"m 864 760 q 1022 717 957 760 q 1119 596 1086 674 q 1150 414 1153 518 l 1150 349 l 651 349 q 713 151 651 222 q 886 79 775 79 q 997 90 943 79 q 1114 131 1050 100 l 1114 36 q 1004 -1 1061 11 q 874 -14 947 -14 q 747 9 803 -14 q 650 73 690 32 q 586 169 610 114 q 521 70 558 111 q 428 8 483 29 q 293 -14 372 -14 q 170 12 222 -14 q 90 85 118 38 q 61 201 61 133 q 103 330 61 281 q 221 406 144 379 q 403 438 297 432 l 532 444 l 532 486 q 493 626 532 585 q 383 668 454 668 q 281 654 335 668 q 169 613 228 640 l 133 700 q 258 744 193 729 q 392 760 324 760 q 531 722 476 760 q 610 603 586 685 q 709 717 647 674 q 864 760 771 760 m 429 363 q 250 319 314 357 q 186 203 186 281 q 224 110 186 143 q 332 78 263 78 q 442 106 397 78 q 509 183 486 133 q 532 297 532 233 l 532 368 l 429 363 m 858 671 q 721 612 778 671 q 653 432 664 553 l 1038 432 q 1018 556 1039 503 q 958 640 997 610 q 858 671 918 671 z "},"à":{"ha":768,"x_min":61,"x_max":663,"o":"m 404 760 q 597 694 531 760 q 663 493 663 628 l 663 0 l 575 0 l 553 128 l 549 128 q 490 54 524 86 q 407 4 456 22 q 288 -14 358 -14 q 165 12 215 -14 q 88 85 115 38 q 61 200 61 132 q 151 372 61 315 q 403 438 240 428 l 540 444 l 540 485 q 501 626 540 583 q 386 668 463 668 q 281 654 335 668 q 168 611 228 640 l 132 700 q 259 744 192 728 q 404 760 326 760 m 431 363 q 251 319 315 357 q 186 206 186 282 q 224 112 186 146 q 329 78 261 78 q 488 139 435 78 q 542 297 540 200 l 542 368 l 431 363 m 360 1064 q 414 996 381 1035 q 483 919 447 957 q 546 854 519 882 l 546 842 l 463 842 q 402 891 435 864 q 336 947 369 918 q 274 1003 303 975 q 224 1053 244 1031 l 224 1064 l 360 1064 z "},"ā":{"ha":768,"x_min":61,"x_max":663,"o":"m 404 760 q 597 694 531 760 q 663 493 663 628 l 663 0 l 575 0 l 553 128 l 549 128 q 490 54 524 86 q 407 4 456 22 q 288 -14 358 -14 q 165 12 215 -14 q 88 85 115 38 q 61 200 61 132 q 151 372 61 315 q 403 438 240 428 l 540 444 l 540 485 q 501 626 540 583 q 386 668 463 668 q 281 654 335 668 q 168 611 228 640 l 132 700 q 259 744 192 728 q 404 760 326 760 m 431 363 q 251 319 315 357 q 186 206 186 282 q 224 112 186 146 q 329 78 261 78 q 488 139 435 78 q 542 297 540 200 l 542 368 l 431 363 m 589 929 l 589 849 l 182 849 l 182 929 l 589 929 z "},"&":{"ha":1025,"x_min":74,"x_max":997,"o":"m 436 1006 q 616 949 547 1006 q 685 793 685 892 q 626 640 685 700 q 469 528 567 579 l 731 265 q 793 369 765 310 q 835 493 821 428 l 963 493 q 902 324 942 403 q 814 185 863 246 l 997 0 l 839 0 l 728 117 q 642 50 688 79 q 539 3 597 21 q 397 -14 481 -14 q 226 20 299 -14 q 113 115 153 54 q 74 258 74 176 q 100 381 74 329 q 177 472 126 432 q 301 549 228 513 q 232 628 260 590 q 190 703 204 665 q 175 788 175 742 q 245 946 175 886 q 436 1006 315 1006 m 371 478 q 276 421 315 450 q 218 356 238 392 q 199 265 199 319 q 256 134 199 181 q 407 88 314 88 q 550 117 493 88 q 653 193 607 146 l 371 478 m 435 919 q 328 884 368 919 q 288 785 288 849 q 318 692 288 733 q 400 597 349 650 q 526 681 481 635 q 572 793 572 728 q 534 887 572 854 q 435 919 496 919 z "},"ą":{"ha":768,"x_min":61,"x_max":682,"o":"m 404 760 q 597 694 531 760 q 663 493 663 628 l 663 0 l 575 0 l 553 128 l 549 128 q 490 54 524 86 q 407 4 456 22 q 288 -14 358 -14 q 165 12 215 -14 q 88 85 115 38 q 61 200 61 132 q 151 372 61 315 q 403 438 240 428 l 540 444 l 540 485 q 501 626 540 583 q 386 668 463 668 q 281 654 335 668 q 168 611 228 640 l 132 700 q 259 744 192 728 q 404 760 326 760 m 431 363 q 251 319 315 357 q 186 206 186 282 q 224 112 186 146 q 329 78 261 78 q 488 139 435 78 q 542 297 540 200 l 542 368 l 431 363 m 540 -164 q 558 -217 540 -199 q 610 -235 576 -235 q 649 -231 629 -235 q 682 -222 669 -228 l 682 -300 q 644 -309 667 -304 q 594 -314 622 -314 q 494 -280 535 -314 q 453 -183 453 -246 q 486 -85 453 -135 q 599 22 519 -35 l 654 0 q 574 -80 607 -40 q 540 -164 540 -119 z "},"å":{"ha":768,"x_min":61,"x_max":663,"o":"m 404 760 q 597 694 531 760 q 663 493 663 628 l 663 0 l 575 0 l 553 128 l 549 128 q 490 54 524 86 q 407 4 456 22 q 288 -14 358 -14 q 165 12 215 -14 q 88 85 115 38 q 61 200 61 132 q 151 372 61 315 q 403 438 240 428 l 540 444 l 540 485 q 501 626 540 583 q 386 668 463 668 q 281 654 335 668 q 168 611 228 640 l 132 700 q 259 744 192 728 q 404 760 326 760 m 431 363 q 251 319 315 357 q 186 206 186 282 q 224 112 186 146 q 329 78 261 78 q 488 139 435 78 q 542 297 540 200 l 542 368 l 431 363 m 385 844 q 274 886 319 844 q 229 996 229 928 q 274 1106 229 1064 q 385 1147 318 1147 q 494 1104 449 1147 q 540 996 540 1061 q 494 886 540 928 q 385 844 449 844 m 385 908 q 447 934 422 908 q 471 996 471 960 q 445 1058 471 1033 q 385 1083 419 1083 q 322 1058 347 1083 q 296 996 296 1033 q 320 934 296 960 q 385 908 344 908 z "},"^":{"ha":768,"x_min":36,"x_max":735,"o":"m 36 369 l 353 997 l 415 997 l 735 369 l 635 369 l 385 869 l 133 369 l 36 369 z "},"~":{"ha":800,"x_min":72,"x_max":728,"o":"m 388 447 q 310 478 344 468 q 233 489 275 489 q 152 469 193 489 q 72 410 111 449 l 72 508 q 149 559 106 540 q 240 578 192 578 q 331 567 293 578 q 418 533 368 556 q 497 502 461 513 q 569 492 532 492 q 649 510 608 492 q 728 569 689 529 l 728 472 q 656 422 699 442 q 561 403 614 403 q 477 414 515 403 q 388 447 439 425 z "},"*":{"ha":758,"x_min":65,"x_max":688,"o":"m 428 1054 l 413 786 l 672 871 l 688 772 l 439 718 l 600 506 l 514 456 l 376 675 l 244 457 l 156 506 l 317 718 l 65 774 l 85 871 l 342 786 l 326 1054 l 428 1054 z "},"@":{"ha":1229,"x_min":67,"x_max":1164,"o":"m 1164 497 q 1149 366 1164 428 q 1106 256 1135 304 q 1033 180 1076 207 q 932 153 990 153 q 833 184 874 153 q 779 274 792 215 l 775 274 q 691 183 744 213 q 575 153 638 153 q 405 220 464 153 q 346 410 346 288 q 384 569 346 499 q 493 681 422 640 q 660 722 564 722 q 769 713 717 722 q 863 690 821 704 l 850 457 q 849 410 850 439 q 847 350 847 381 q 867 260 847 292 q 931 229 886 229 q 1010 264 979 229 q 1057 360 1042 299 q 1072 497 1072 421 q 1025 715 1072 622 q 884 860 978 808 q 653 911 790 911 q 392 850 503 911 q 219 674 281 789 q 158 401 158 560 q 208 163 158 264 q 355 8 258 63 q 588 -46 451 -46 q 741 -31 661 -46 q 894 14 821 -15 l 894 -69 q 753 -111 829 -96 q 592 -126 676 -126 q 310 -62 428 -126 q 130 122 193 3 q 67 401 67 240 q 108 646 67 538 q 228 831 150 754 q 413 949 306 908 q 651 989 521 989 q 924 929 810 989 q 1101 759 1038 869 q 1164 497 1164 649 m 440 410 q 477 276 440 322 q 583 229 514 229 q 708 285 665 229 q 757 461 751 340 l 767 631 q 718 642 743 639 q 661 646 693 646 q 499 581 558 646 q 440 410 440 515 z "},"ã":{"ha":768,"x_min":61,"x_max":663,"o":"m 404 760 q 597 694 531 760 q 663 493 663 628 l 663 0 l 575 0 l 553 128 l 549 128 q 490 54 524 86 q 407 4 456 22 q 288 -14 358 -14 q 165 12 215 -14 q 88 85 115 38 q 61 200 61 132 q 151 372 61 315 q 403 438 240 428 l 540 444 l 540 485 q 501 626 540 583 q 386 668 463 668 q 281 654 335 668 q 168 611 228 640 l 132 700 q 259 744 192 728 q 404 760 326 760 m 431 363 q 251 319 315 357 q 186 206 186 282 q 224 112 186 146 q 329 78 261 78 q 488 139 435 78 q 542 297 540 200 l 542 368 l 431 363 m 138 851 q 151 930 140 897 q 181 983 163 963 q 224 1013 199 1003 q 279 1024 249 1024 q 338 1010 311 1024 q 389 978 364 996 q 439 947 414 961 q 492 933 464 933 q 538 951 515 933 q 565 1024 560 968 l 633 1024 q 589 893 628 935 q 492 851 550 851 q 432 865 460 851 q 379 895 404 878 q 330 926 354 913 q 278 940 306 940 q 234 924 256 940 q 206 851 213 907 l 138 851 z "},"b":{"ha":842,"x_min":111,"x_max":768,"o":"m 233 763 q 232 682 233 726 q 228 604 231 638 l 233 604 q 322 717 260 672 q 481 761 385 761 q 692 663 617 761 q 768 376 768 564 q 734 173 768 261 q 633 35 700 85 q 464 -14 565 -14 q 317 25 372 -14 q 236 118 263 64 l 228 118 l 208 0 l 111 0 l 111 1056 l 233 1056 l 233 763 m 444 661 q 285 588 336 661 q 233 383 233 515 l 233 361 q 281 157 233 226 q 431 88 329 88 q 589 163 535 88 q 643 376 643 238 q 594 590 643 518 q 444 661 544 661 z "},"\\":{"ha":510,"x_min":13,"x_max":496,"o":"m 125 997 l 496 -6 l 385 -6 l 13 997 l 125 997 z "},"|":{"ha":729,"x_min":318,"x_max":408,"o":"m 318 1058 l 408 1058 l 408 -332 l 318 -332 l 318 1058 z "},"{":{"ha":518,"x_min":39,"x_max":469,"o":"m 469 -225 q 309 -202 369 -225 q 222 -133 249 -179 q 196 -19 196 -87 l 196 192 q 177 276 196 243 q 124 323 158 308 q 39 338 89 338 l 39 435 q 124 449 89 435 q 178 495 160 463 q 196 581 196 528 l 196 793 q 222 906 196 861 q 308 974 249 951 q 469 997 368 997 l 469 904 q 380 892 417 904 q 322 853 343 881 q 301 776 301 825 l 301 561 q 271 442 301 485 q 172 389 240 400 l 172 383 q 271 329 240 372 q 301 213 301 286 l 301 -7 q 322 -81 301 -53 q 381 -120 343 -108 q 469 -132 418 -132 l 469 -225 z "},"}":{"ha":518,"x_min":49,"x_max":479,"o":"m 49 -132 q 138 -120 100 -132 q 195 -81 175 -108 q 215 -7 215 -53 l 215 213 q 246 329 215 286 q 344 383 276 372 l 344 389 q 247 442 278 400 q 215 561 215 485 l 215 776 q 195 853 215 825 q 138 892 175 881 q 49 904 100 904 l 49 997 q 209 974 150 997 q 294 906 268 951 q 321 793 321 861 l 321 581 q 340 495 321 528 q 393 449 358 463 q 479 435 428 435 l 479 338 q 394 323 429 338 q 340 276 358 308 q 321 192 321 243 l 321 -19 q 294 -133 321 -87 q 209 -202 268 -179 q 49 -225 150 -225 l 49 -132 z "},"[":{"ha":440,"x_min":106,"x_max":407,"o":"m 407 -225 l 106 -225 l 106 1003 l 407 1003 l 407 915 l 208 915 l 208 -139 l 407 -139 l 407 -225 z "},"]":{"ha":440,"x_min":33,"x_max":335,"o":"m 33 -139 l 232 -139 l 232 915 l 33 915 l 33 1003 l 335 1003 l 335 -225 l 33 -225 l 33 -139 z "},"˘":{"ha":529,"x_min":56,"x_max":474,"o":"m 474 1033 q 443 931 469 974 q 372 865 417 888 q 264 842 326 842 q 115 892 167 842 q 56 1033 63 942 l 131 1033 q 172 950 140 976 q 264 924 203 924 q 355 951 322 924 q 397 1033 388 978 l 474 1033 z "},"̆":{"ha":0,"x_min":-210,"x_max":210,"o":"m 208 1033 q 178 931 204 974 q 106 865 151 888 q -1 842 61 842 q -151 892 -99 842 q -210 1033 -203 942 l -135 1033 q -94 950 -125 976 q -1 924 -62 924 q 90 951 57 924 q 132 1033 122 978 l 208 1033 z "},"•":{"ha":531,"x_min":136,"x_max":396,"o":"m 136 507 q 152 591 136 558 q 197 640 168 624 q 265 656 226 656 q 334 639 304 656 q 380 589 364 622 q 396 507 396 556 q 380 426 396 460 q 334 376 364 393 q 265 358 304 358 q 197 376 226 358 q 152 426 168 393 q 136 507 136 460 z "},"c":{"ha":690,"x_min":74,"x_max":651,"o":"m 428 -14 q 232 33 311 -14 q 113 165 153 79 q 74 369 74 251 q 121 579 74 492 q 252 713 168 667 q 450 760 336 760 q 558 749 508 760 q 651 718 607 739 l 618 622 q 533 652 574 643 q 450 661 492 661 q 316 625 372 661 q 228 524 260 589 q 197 369 197 458 q 224 222 197 286 q 303 123 250 158 q 436 88 356 88 q 541 100 489 88 q 638 135 593 113 l 638 35 q 546 0 599 14 q 428 -14 493 -14 z "},"ć":{"ha":690,"x_min":74,"x_max":651,"o":"m 428 -14 q 232 33 311 -14 q 113 165 153 79 q 74 369 74 251 q 121 579 74 492 q 252 713 168 667 q 450 760 336 760 q 558 749 508 760 q 651 718 607 739 l 618 622 q 533 652 574 643 q 450 661 492 661 q 316 625 372 661 q 228 524 260 589 q 197 369 197 458 q 224 222 197 286 q 303 123 250 158 q 436 88 356 88 q 541 100 489 88 q 638 135 593 113 l 638 35 q 546 0 599 14 q 428 -14 493 -14 m 651 1053 q 602 1003 632 1031 q 540 947 572 975 q 474 891 507 918 q 414 842 442 864 l 329 842 l 329 854 q 394 919 358 882 q 463 996 429 957 q 517 1064 497 1035 l 651 1064 l 651 1053 z "},"ˇ":{"ha":561,"x_min":56,"x_max":506,"o":"m 221 842 q 173 910 201 872 q 113 985 144 947 q 56 1049 82 1022 l 56 1061 l 139 1061 q 213 990 178 1029 q 279 915 247 951 q 348 990 311 951 q 422 1061 385 1029 l 506 1061 l 506 1049 q 449 985 481 1022 q 388 910 417 949 q 339 842 358 872 l 221 842 z "},"̌":{"ha":0,"x_min":-228,"x_max":221,"o":"m -62 842 q -110 910 -82 872 q -170 985 -139 947 q -228 1049 -201 1022 l -228 1061 l -144 1061 q -71 990 -106 1029 q -4 915 -36 951 q 65 990 28 951 q 139 1061 101 1029 l 222 1061 l 222 1049 q 165 985 197 1022 q 104 910 133 949 q 56 842 75 872 l -62 842 z "},"č":{"ha":690,"x_min":74,"x_max":651,"o":"m 428 -14 q 232 33 311 -14 q 113 165 153 79 q 74 369 74 251 q 121 579 74 492 q 252 713 168 667 q 450 760 336 760 q 558 749 508 760 q 651 718 607 739 l 618 622 q 533 652 574 643 q 450 661 492 661 q 316 625 372 661 q 228 524 260 589 q 197 369 197 458 q 224 222 197 286 q 303 123 250 158 q 436 88 356 88 q 541 100 489 88 q 638 135 593 113 l 638 35 q 546 0 599 14 q 428 -14 493 -14 m 360 842 q 312 910 340 872 q 252 985 283 947 q 194 1049 221 1022 l 194 1061 l 278 1061 q 351 990 317 1029 q 418 915 386 951 q 487 990 450 951 q 561 1061 524 1029 l 644 1061 l 644 1049 q 588 985 619 1022 q 526 910 556 949 q 478 842 497 872 l 360 842 z "},"ç":{"ha":690,"x_min":74,"x_max":651,"o":"m 428 -14 q 232 33 311 -14 q 113 165 153 79 q 74 369 74 251 q 121 579 74 492 q 252 713 168 667 q 450 760 336 760 q 558 749 508 760 q 651 718 607 739 l 618 622 q 533 652 574 643 q 450 661 492 661 q 316 625 372 661 q 228 524 260 589 q 197 369 197 458 q 224 222 197 286 q 303 123 250 158 q 436 88 356 88 q 541 100 489 88 q 638 135 593 113 l 638 35 q 546 0 599 14 q 428 -14 493 -14 m 536 -190 q 489 -294 536 -254 q 368 -333 442 -333 q 307 -329 333 -333 q 263 -319 281 -325 l 263 -250 q 301 -258 282 -256 q 346 -260 321 -260 q 415 -240 388 -260 q 443 -185 443 -221 q 413 -131 443 -149 q 317 -110 382 -112 l 369 0 l 442 0 l 408 -72 q 472 -89 443 -75 q 519 -128 501 -103 q 536 -190 536 -153 z "},"ċ":{"ha":690,"x_min":74,"x_max":651,"o":"m 428 -14 q 232 33 311 -14 q 113 165 153 79 q 74 369 74 251 q 121 579 74 492 q 252 713 168 667 q 450 760 336 760 q 558 749 508 760 q 651 718 607 739 l 618 622 q 533 652 574 643 q 450 661 492 661 q 316 625 372 661 q 228 524 260 589 q 197 369 197 458 q 224 222 197 286 q 303 123 250 158 q 436 88 356 88 q 541 100 489 88 q 638 135 593 113 l 638 35 q 546 0 599 14 q 428 -14 493 -14 m 418 1031 q 474 1013 454 1031 q 494 958 494 996 q 474 906 494 922 q 418 889 454 889 q 363 906 382 889 q 343 958 343 922 q 363 1013 343 996 q 418 1031 382 1031 z "},"¸":{"ha":318,"x_min":21,"x_max":294,"o":"m 294 -190 q 247 -294 294 -254 q 126 -333 200 -333 q 65 -329 92 -333 q 21 -319 39 -325 l 21 -250 q 60 -258 40 -256 q 104 -260 79 -260 q 174 -240 146 -260 q 201 -185 201 -221 q 171 -131 201 -149 q 75 -110 140 -112 l 128 0 l 200 0 l 167 -72 q 231 -89 201 -75 q 277 -128 260 -103 q 294 -190 294 -153 z "},"̧":{"ha":0,"x_min":-150,"x_max":124,"o":"m 125 -190 q 78 -294 125 -254 q -43 -333 31 -333 q -104 -329 -78 -333 q -149 -319 -131 -325 l -149 -250 q -110 -258 -129 -256 q -65 -260 -90 -260 q 4 -240 -24 -260 q 32 -185 32 -221 q 1 -131 32 -149 q -94 -110 -29 -112 l -42 0 l 31 0 l -3 -72 q 61 -89 32 -75 q 108 -128 90 -103 q 125 -190 125 -153 z "},"¢":{"ha":800,"x_min":107,"x_max":685,"o":"m 490 892 q 594 880 547 890 q 685 850 642 869 l 651 754 q 567 784 608 775 q 483 793 526 793 q 350 757 407 793 q 262 656 293 721 q 231 501 231 590 q 257 354 231 418 q 336 255 283 290 q 469 219 389 219 q 575 232 522 219 q 672 267 628 244 l 672 167 q 592 135 638 147 q 490 119 546 122 l 490 -14 l 415 -14 l 415 121 q 244 178 313 129 q 141 309 175 226 q 107 501 107 392 q 144 692 107 610 q 251 825 182 775 q 415 888 321 875 l 415 1006 l 490 1006 l 490 892 z "},"ˆ":{"ha":561,"x_min":56,"x_max":506,"o":"m 342 1061 q 389 994 360 1032 q 449 919 418 956 q 506 854 481 882 l 506 842 l 422 842 q 349 913 385 874 q 281 989 313 953 q 213 914 249 953 q 139 842 178 875 l 56 842 l 56 854 q 113 919 82 882 q 174 994 144 956 q 222 1061 204 1032 l 342 1061 z "},"̂":{"ha":0,"x_min":-240,"x_max":210,"o":"m 46 1061 q 93 994 64 1032 q 153 919 122 956 q 210 854 185 882 l 210 842 l 126 842 q 53 913 89 874 q -15 989 17 953 q -83 914 -47 953 q -157 842 -118 875 l -240 842 l -240 854 q -183 919 -214 882 q -122 994 -151 956 q -74 1061 -92 1032 l 46 1061 z "},":":{"ha":342,"x_min":96,"x_max":247,"o":"m 96 63 q 116 119 96 100 q 172 138 136 138 q 228 119 208 138 q 247 63 247 100 q 228 6 247 25 q 172 -12 208 -12 q 116 6 136 -12 q 96 63 96 25 m 96 678 q 116 735 96 715 q 172 754 136 754 q 228 735 208 754 q 247 678 247 715 q 228 622 247 640 q 172 603 208 603 q 116 622 136 603 q 96 678 96 640 z "},",":{"ha":319,"x_min":47,"x_max":239,"o":"m 239 161 q 212 48 228 110 q 177 -74 196 -14 q 138 -185 158 -135 l 47 -185 q 79 -56 65 -118 q 104 65 93 6 q 121 176 115 124 l 232 176 l 239 161 z "},"̦":{"ha":0,"x_min":-83,"x_max":85,"o":"m 85 -96 q 46 -203 68 -150 q -10 -307 24 -256 l -83 -307 l -83 -294 q -62 -232 -74 -271 q -42 -153 -51 -193 q -31 -85 -33 -112 l 85 -85 l 85 -96 z "},"©":{"ha":1151,"x_min":67,"x_max":1085,"o":"m 593 190 q 379 269 457 190 q 301 496 301 349 q 337 658 301 589 q 438 764 372 726 q 593 801 504 801 q 700 790 656 801 q 785 758 744 779 l 751 688 q 683 713 719 704 q 599 721 646 721 q 453 661 508 721 q 397 494 397 601 q 452 326 397 381 q 596 271 507 271 q 682 278 643 271 q 763 306 721 286 l 763 225 q 683 199 724 208 q 593 190 643 190 m 576 -12 q 372 26 465 -12 q 210 135 279 65 q 104 297 142 204 q 67 496 67 389 q 106 698 67 606 q 215 859 146 790 q 377 966 285 928 q 576 1004 469 1004 q 781 964 688 1004 q 942 853 874 924 q 1047 691 1010 783 q 1085 496 1085 599 q 1046 297 1085 389 q 938 135 1007 204 q 775 26 868 65 q 576 -12 682 -12 m 576 51 q 751 86 671 51 q 891 182 832 121 q 983 324 950 243 q 1015 496 1015 404 q 983 669 1015 589 q 891 811 950 750 q 751 906 832 872 q 576 940 671 940 q 401 906 481 940 q 261 813 321 872 q 168 672 201 753 q 135 496 135 590 q 167 322 135 403 q 257 181 199 242 q 397 85 315 119 q 576 51 478 51 z "},"d":{"ha":842,"x_min":74,"x_max":729,"o":"m 369 -14 q 150 83 226 -14 q 74 364 74 181 q 155 658 74 557 q 381 760 236 760 q 486 740 442 760 q 562 687 531 721 q 610 611 593 653 l 614 611 q 608 698 610 651 q 607 790 607 744 l 607 1056 l 729 1056 l 729 0 l 635 0 l 613 135 l 607 135 q 559 61 590 94 q 482 7 528 28 q 369 -14 436 -14 m 410 86 q 568 158 521 86 q 615 364 615 231 l 615 374 q 567 585 615 511 q 417 658 519 658 q 255 585 313 658 q 197 363 197 513 q 251 154 197 222 q 410 86 304 86 z "},"ď":{"ha":842,"x_min":74,"x_max":954,"o":"m 369 -14 q 150 83 226 -14 q 74 364 74 181 q 155 658 74 557 q 381 760 236 760 q 486 740 442 760 q 562 687 531 721 q 610 611 593 653 l 614 611 q 608 698 610 651 q 607 790 607 744 l 607 1056 l 729 1056 l 729 0 l 635 0 l 613 135 l 607 135 q 559 61 590 94 q 482 7 528 28 q 369 -14 436 -14 m 410 86 q 568 158 521 86 q 615 364 615 231 l 615 374 q 567 585 615 511 q 417 658 519 658 q 255 585 313 658 q 197 363 197 513 q 251 154 197 222 q 410 86 304 86 m 956 1044 q 928 975 943 1010 q 897 905 914 940 q 858 833 881 869 l 785 833 l 785 846 q 800 890 792 864 q 816 947 808 917 q 831 1005 824 976 q 840 1056 838 1033 l 956 1056 l 956 1044 z "},"đ":{"ha":850,"x_min":74,"x_max":833,"o":"m 365 -14 q 149 80 224 -14 q 74 351 74 174 q 156 638 74 540 q 382 735 238 735 q 488 715 443 735 q 565 662 533 696 q 613 586 596 628 l 617 586 q 610 668 614 621 q 607 765 607 715 l 607 844 l 338 844 l 338 926 l 607 926 l 607 1056 l 729 1056 l 729 926 l 833 926 l 833 844 l 729 844 l 729 0 l 629 0 l 606 135 l 600 135 q 551 61 582 94 q 476 7 521 28 q 365 -14 431 -14 m 415 86 q 569 156 524 86 q 614 353 614 225 l 614 361 q 565 563 614 493 q 421 633 517 633 q 263 565 319 633 q 207 350 207 496 q 258 155 207 224 q 415 86 308 86 z "},"°":{"ha":592,"x_min":78,"x_max":514,"o":"m 296 574 q 184 601 233 574 q 106 676 135 628 q 78 789 78 725 q 106 903 78 854 q 184 978 135 951 q 296 1006 233 1006 q 408 978 358 1006 q 485 901 457 950 q 514 789 514 853 q 485 676 514 725 q 408 600 457 626 q 296 574 358 574 m 294 656 q 392 693 354 656 q 429 789 429 731 q 392 887 429 850 q 294 924 354 924 q 198 887 235 924 q 161 789 161 850 q 198 693 161 731 q 294 656 235 656 z "},"¨":{"ha":813,"x_min":204,"x_max":617,"o":"m 204 949 q 221 997 204 979 q 268 1015 238 1015 q 317 997 300 1015 q 333 949 333 979 q 317 899 333 917 q 268 882 300 882 q 221 899 238 882 q 204 949 204 917 m 488 949 q 504 997 488 979 q 550 1015 521 1015 q 600 997 583 1015 q 617 949 617 979 q 600 899 617 917 q 550 882 583 882 q 504 899 521 882 q 488 949 488 917 z "},"̈":{"ha":0,"x_min":-207,"x_max":206,"o":"m -207 949 q -190 997 -207 979 q -143 1015 -174 1015 q -94 997 -111 1015 q -78 949 -78 979 q -94 899 -78 917 q -143 882 -111 882 q -190 899 -174 882 q -207 949 -207 917 m 76 949 q 93 997 76 979 q 139 1015 110 1015 q 189 997 172 1015 q 206 949 206 979 q 189 899 206 917 q 139 882 172 882 q 93 899 110 882 q 76 949 76 917 z "},"÷":{"ha":800,"x_min":71,"x_max":728,"o":"m 71 446 l 71 535 l 728 535 l 728 446 l 71 446 m 399 167 q 353 185 369 167 q 338 236 338 203 q 353 289 338 271 q 399 307 369 307 q 447 289 431 307 q 463 236 463 271 q 447 185 463 203 q 399 167 431 167 m 399 674 q 353 692 369 674 q 338 744 338 710 q 353 797 338 779 q 399 814 369 814 q 447 797 431 814 q 463 744 463 779 q 447 692 463 710 q 399 674 431 674 z "},"$":{"ha":796,"x_min":69,"x_max":696,"o":"m 346 21 q 194 35 258 22 q 81 67 129 49 l 81 172 q 204 135 135 150 q 346 117 274 119 l 346 457 q 206 515 269 483 q 106 597 143 547 q 69 726 69 647 q 105 856 69 804 q 203 938 140 908 q 346 971 265 967 l 346 1054 l 414 1054 l 414 972 q 542 955 481 969 q 660 915 604 940 l 628 826 q 517 862 572 850 q 414 876 463 874 l 414 546 q 563 485 500 517 q 661 406 626 453 q 696 282 696 358 q 621 99 696 165 q 414 21 546 32 l 414 -81 l 346 -81 l 346 21 m 414 118 q 540 161 492 124 q 588 274 588 199 q 567 345 588 317 q 509 395 547 374 q 414 436 471 417 l 414 118 m 346 876 q 259 857 297 874 q 199 809 221 840 q 176 732 176 778 q 199 656 176 686 q 260 605 222 625 q 346 567 299 585 l 346 876 z "},"˙":{"ha":263,"x_min":56,"x_max":207,"o":"m 131 1031 q 187 1013 167 1031 q 207 958 207 996 q 187 906 207 922 q 131 889 167 889 q 75 906 94 889 q 56 958 56 922 q 75 1013 56 996 q 131 1031 94 1031 z "},"̇":{"ha":0,"x_min":-75,"x_max":76,"o":"m 0 1031 q 56 1013 36 1031 q 76 958 76 996 q 56 906 76 922 q 0 889 36 889 q -56 906 -36 889 q -75 958 -75 922 q -56 1013 -75 996 q 0 1031 -36 1031 z "},"e":{"ha":790,"x_min":74,"x_max":715,"o":"m 414 760 q 581 717 514 760 q 682 597 649 674 q 715 414 715 519 l 715 349 l 197 349 q 260 150 197 221 q 443 79 322 79 q 563 90 511 79 q 679 131 615 101 l 679 36 q 568 -1 626 11 q 431 -14 510 -14 q 235 32 315 -14 q 115 163 156 78 q 74 367 74 249 q 113 573 74 485 q 228 710 153 661 q 414 760 304 760 m 417 671 q 268 611 326 671 q 200 432 210 551 l 603 432 q 583 556 603 503 q 521 640 563 610 q 417 671 479 671 z "},"é":{"ha":790,"x_min":74,"x_max":715,"o":"m 414 760 q 581 717 514 760 q 682 597 649 674 q 715 414 715 519 l 715 349 l 197 349 q 260 150 197 221 q 443 79 322 79 q 563 90 511 79 q 679 131 615 101 l 679 36 q 568 -1 626 11 q 431 -14 510 -14 q 235 32 315 -14 q 115 163 156 78 q 74 367 74 249 q 113 573 74 485 q 228 710 153 661 q 414 760 304 760 m 417 671 q 268 611 326 671 q 200 432 210 551 l 603 432 q 583 556 603 503 q 521 640 563 610 q 417 671 479 671 m 628 1053 q 578 1003 608 1031 q 516 947 549 975 q 451 891 483 918 q 390 842 418 864 l 306 842 l 306 854 q 370 919 335 882 q 440 996 406 957 q 493 1064 474 1035 l 628 1064 l 628 1053 z "},"ě":{"ha":790,"x_min":74,"x_max":715,"o":"m 414 760 q 581 717 514 760 q 682 597 649 674 q 715 414 715 519 l 715 349 l 197 349 q 260 150 197 221 q 443 79 322 79 q 563 90 511 79 q 679 131 615 101 l 679 36 q 568 -1 626 11 q 431 -14 510 -14 q 235 32 315 -14 q 115 163 156 78 q 74 367 74 249 q 113 573 74 485 q 228 710 153 661 q 414 760 304 760 m 417 671 q 268 611 326 671 q 200 432 210 551 l 603 432 q 583 556 603 503 q 521 640 563 610 q 417 671 479 671 m 336 842 q 288 910 317 872 q 228 985 260 947 q 171 1049 197 1022 l 171 1061 l 254 1061 q 328 990 293 1029 q 394 915 363 951 q 463 990 426 951 q 538 1061 500 1029 l 621 1061 l 621 1049 q 564 985 596 1022 q 503 910 532 949 q 454 842 474 872 l 336 842 z "},"ê":{"ha":790,"x_min":74,"x_max":715,"o":"m 414 760 q 581 717 514 760 q 682 597 649 674 q 715 414 715 519 l 715 349 l 197 349 q 260 150 197 221 q 443 79 322 79 q 563 90 511 79 q 679 131 615 101 l 679 36 q 568 -1 626 11 q 431 -14 510 -14 q 235 32 315 -14 q 115 163 156 78 q 74 367 74 249 q 113 573 74 485 q 228 710 153 661 q 414 760 304 760 m 417 671 q 268 611 326 671 q 200 432 210 551 l 603 432 q 583 556 603 503 q 521 640 563 610 q 417 671 479 671 m 457 1061 q 504 994 475 1032 q 565 919 533 956 q 621 854 596 882 l 621 842 l 538 842 q 464 913 500 874 q 396 989 428 953 q 328 914 364 953 q 254 842 293 875 l 171 842 l 171 854 q 228 919 197 882 q 290 994 260 956 q 338 1061 319 1032 l 457 1061 z "},"ë":{"ha":790,"x_min":74,"x_max":715,"o":"m 414 760 q 581 717 514 760 q 682 597 649 674 q 715 414 715 519 l 715 349 l 197 349 q 260 150 197 221 q 443 79 322 79 q 563 90 511 79 q 679 131 615 101 l 679 36 q 568 -1 626 11 q 431 -14 510 -14 q 235 32 315 -14 q 115 163 156 78 q 74 367 74 249 q 113 573 74 485 q 228 710 153 661 q 414 760 304 760 m 417 671 q 268 611 326 671 q 200 432 210 551 l 603 432 q 583 556 603 503 q 521 640 563 610 q 417 671 479 671 m 190 949 q 207 997 190 979 q 254 1015 224 1015 q 303 997 286 1015 q 319 949 319 979 q 303 899 319 917 q 254 882 286 882 q 207 899 224 882 q 190 949 190 917 m 474 949 q 490 997 474 979 q 536 1015 507 1015 q 586 997 569 1015 q 603 949 603 979 q 586 899 603 917 q 536 882 569 882 q 490 899 507 882 q 474 949 474 917 z "},"ė":{"ha":790,"x_min":74,"x_max":715,"o":"m 414 760 q 581 717 514 760 q 682 597 649 674 q 715 414 715 519 l 715 349 l 197 349 q 260 150 197 221 q 443 79 322 79 q 563 90 511 79 q 679 131 615 101 l 679 36 q 568 -1 626 11 q 431 -14 510 -14 q 235 32 315 -14 q 115 163 156 78 q 74 367 74 249 q 113 573 74 485 q 228 710 153 661 q 414 760 304 760 m 417 671 q 268 611 326 671 q 200 432 210 551 l 603 432 q 583 556 603 503 q 521 640 563 610 q 417 671 479 671 m 396 1031 q 452 1013 432 1031 q 472 958 472 996 q 452 906 472 922 q 396 889 432 889 q 340 906 360 889 q 321 958 321 922 q 340 1013 321 996 q 396 1031 360 1031 z "},"è":{"ha":790,"x_min":74,"x_max":715,"o":"m 414 760 q 581 717 514 760 q 682 597 649 674 q 715 414 715 519 l 715 349 l 197 349 q 260 150 197 221 q 443 79 322 79 q 563 90 511 79 q 679 131 615 101 l 679 36 q 568 -1 626 11 q 431 -14 510 -14 q 235 32 315 -14 q 115 163 156 78 q 74 367 74 249 q 113 573 74 485 q 228 710 153 661 q 414 760 304 760 m 417 671 q 268 611 326 671 q 200 432 210 551 l 603 432 q 583 556 603 503 q 521 640 563 610 q 417 671 479 671 m 371 1064 q 425 996 392 1035 q 494 919 458 957 q 557 854 531 882 l 557 842 l 474 842 q 413 891 446 864 q 347 947 381 918 q 285 1003 314 975 q 235 1053 256 1031 l 235 1064 l 371 1064 z "},"…":{"ha":1035,"x_min":96,"x_max":940,"o":"m 96 63 q 116 119 96 100 q 172 138 136 138 q 228 119 208 138 q 247 63 247 100 q 228 6 247 25 q 172 -12 208 -12 q 116 6 136 -12 q 96 63 96 25 m 442 63 q 462 119 442 100 q 518 138 482 138 q 574 119 554 138 q 593 63 593 100 q 574 6 593 25 q 518 -12 554 -12 q 462 6 482 -12 q 442 63 442 25 m 789 63 q 809 119 789 100 q 865 138 829 138 q 921 119 901 138 q 940 63 940 100 q 921 6 940 25 q 865 -12 901 -12 q 809 6 829 -12 q 789 63 789 25 z "},"ē":{"ha":790,"x_min":74,"x_max":715,"o":"m 414 760 q 581 717 514 760 q 682 597 649 674 q 715 414 715 519 l 715 349 l 197 349 q 260 150 197 221 q 443 79 322 79 q 563 90 511 79 q 679 131 615 101 l 679 36 q 568 -1 626 11 q 431 -14 510 -14 q 235 32 315 -14 q 115 163 156 78 q 74 367 74 249 q 113 573 74 485 q 228 710 153 661 q 414 760 304 760 m 417 671 q 268 611 326 671 q 200 432 210 551 l 603 432 q 583 556 603 503 q 521 640 563 610 q 417 671 479 671 m 600 929 l 600 849 l 193 849 l 193 929 l 600 929 z "},"—":{"ha":1389,"x_min":54,"x_max":1335,"o":"m 54 331 l 54 422 l 1335 422 l 1335 331 l 54 331 z "},"–":{"ha":694,"x_min":54,"x_max":642,"o":"m 54 331 l 54 422 l 642 422 l 642 331 l 54 331 z "},"ę":{"ha":790,"x_min":74,"x_max":715,"o":"m 536 -161 q 556 -215 536 -196 q 608 -235 575 -235 q 647 -231 628 -235 q 679 -222 667 -228 l 679 -300 q 642 -309 664 -304 q 592 -314 619 -314 q 491 -280 532 -314 q 450 -183 450 -246 q 482 -83 450 -135 q 596 32 514 -31 l 671 33 q 597 -40 626 -7 q 551 -102 567 -74 q 536 -161 536 -131 m 414 760 q 581 717 514 760 q 682 597 649 674 q 715 414 715 519 l 715 349 l 197 349 q 260 150 197 221 q 443 79 322 79 q 563 90 511 79 q 679 131 615 101 l 679 36 q 568 -1 626 11 q 431 -14 510 -14 q 235 32 315 -14 q 115 163 156 78 q 74 367 74 249 q 113 573 74 485 q 228 710 153 661 q 414 760 304 760 m 417 671 q 268 611 326 671 q 200 432 210 551 l 603 432 q 583 556 603 503 q 521 640 563 610 q 417 671 479 671 z "},"=":{"ha":800,"x_min":71,"x_max":729,"o":"m 71 592 l 71 681 l 729 681 l 729 592 l 71 592 m 71 299 l 71 389 l 729 389 l 729 299 l 71 299 z "},"ð":{"ha":815,"x_min":72,"x_max":739,"o":"m 299 1057 q 393 1010 351 1035 q 468 960 435 986 l 617 1053 l 657 989 l 529 911 q 647 759 600 840 q 716 585 693 678 q 739 383 739 492 q 700 179 739 269 q 587 38 661 89 q 403 -14 513 -14 q 227 26 301 -14 q 113 142 153 67 q 72 321 72 217 q 113 505 72 429 q 226 621 154 581 q 386 661 297 661 q 485 650 444 661 q 555 620 526 639 q 601 576 583 601 l 606 576 q 547 728 586 654 q 447 860 507 803 l 289 761 l 247 826 l 392 914 q 331 954 365 933 q 260 993 296 975 l 299 1057 m 408 568 q 297 540 344 568 q 224 456 250 511 q 197 321 197 401 q 222 190 197 244 q 293 108 247 136 q 404 79 339 79 q 560 157 506 79 q 614 386 614 235 q 604 446 614 414 q 572 506 594 478 q 509 551 549 533 q 408 568 469 568 z "},"€":{"ha":800,"x_min":53,"x_max":768,"o":"m 557 1007 q 672 995 621 1007 q 768 963 724 983 l 731 864 q 649 893 690 883 q 557 903 608 903 q 459 885 504 903 q 379 831 414 867 q 322 743 344 794 q 292 624 300 692 l 607 624 l 607 550 l 286 550 q 284 522 285 539 q 283 486 283 506 q 284 451 283 467 q 286 422 285 435 l 590 422 l 590 349 l 293 349 q 338 209 304 267 q 428 121 371 151 q 564 90 485 90 q 662 101 617 90 q 747 131 707 113 l 747 25 q 663 -3 710 7 q 557 -14 615 -14 q 375 24 454 -14 q 244 143 296 63 q 172 349 192 224 l 53 349 l 53 422 l 164 422 q 163 451 163 435 q 163 483 163 468 q 163 521 163 501 q 164 550 164 540 l 53 550 l 53 624 l 171 624 q 238 826 189 740 q 367 960 286 913 q 557 1007 449 1007 z "},"!":{"ha":344,"x_min":96,"x_max":247,"o":"m 226 282 l 121 282 l 106 992 l 242 992 l 226 282 m 96 63 q 116 119 96 100 q 171 138 136 138 q 228 119 208 138 q 247 63 247 100 q 228 6 247 25 q 171 -12 208 -12 q 116 6 136 -12 q 96 63 96 25 z "},"¡":{"ha":344,"x_min":97,"x_max":249,"o":"m 119 463 l 224 463 l 239 -246 l 104 -246 l 119 463 m 249 683 q 228 626 249 646 q 174 607 208 607 q 117 626 136 607 q 97 683 97 646 q 117 740 97 721 q 174 758 136 758 q 228 740 208 758 q 249 683 249 721 z "},"f":{"ha":453,"x_min":21,"x_max":522,"o":"m 435 650 l 269 650 l 269 0 l 147 0 l 147 650 l 21 650 l 21 718 l 150 746 l 150 815 q 202 1001 150 939 q 372 1063 254 1063 q 451 1056 417 1063 q 522 1039 486 1050 l 497 951 q 448 964 475 960 q 394 968 421 968 q 298 933 326 968 q 269 819 269 899 l 269 746 l 435 746 l 435 650 z "},"g":{"ha":842,"x_min":74,"x_max":728,"o":"m 378 760 q 525 724 472 760 q 607 632 578 688 l 611 632 l 622 746 l 728 746 l 728 -22 q 692 -187 728 -118 q 581 -295 657 -257 q 383 -333 506 -333 q 231 -320 296 -333 q 110 -285 165 -307 l 110 -175 q 231 -217 167 -201 q 378 -233 296 -233 q 553 -178 500 -233 q 606 -26 606 -122 l 606 15 q 607 75 606 47 q 611 138 608 103 l 606 138 q 519 26 581 67 q 365 -14 458 -14 q 152 83 231 -14 q 74 367 74 179 q 153 656 74 553 q 378 760 232 760 m 415 661 q 293 626 342 661 q 221 526 244 592 q 197 364 197 460 q 251 155 197 225 q 406 85 304 85 q 509 106 468 85 q 572 165 550 128 q 604 249 594 201 q 614 347 614 296 l 614 400 q 596 537 614 478 q 535 628 578 596 q 415 661 493 661 z "},"ğ":{"ha":842,"x_min":74,"x_max":728,"o":"m 378 760 q 525 724 472 760 q 607 632 578 688 l 611 632 l 622 746 l 728 746 l 728 -22 q 692 -187 728 -118 q 581 -295 657 -257 q 383 -333 506 -333 q 231 -320 296 -333 q 110 -285 165 -307 l 110 -175 q 231 -217 167 -201 q 378 -233 296 -233 q 553 -178 500 -233 q 606 -26 606 -122 l 606 15 q 607 75 606 47 q 611 138 608 103 l 606 138 q 519 26 581 67 q 365 -14 458 -14 q 152 83 231 -14 q 74 367 74 179 q 153 656 74 553 q 378 760 232 760 m 415 661 q 293 626 342 661 q 221 526 244 592 q 197 364 197 460 q 251 155 197 225 q 406 85 304 85 q 509 106 468 85 q 572 165 550 128 q 604 249 594 201 q 614 347 614 296 l 614 400 q 596 537 614 478 q 535 628 578 596 q 415 661 493 661 m 626 1033 q 596 931 622 974 q 524 865 569 888 q 417 842 479 842 q 267 892 319 842 q 208 1033 215 942 l 283 1033 q 324 950 293 976 q 417 924 356 924 q 508 951 475 924 q 550 1033 540 978 l 626 1033 z "},"ģ":{"ha":842,"x_min":74,"x_max":728,"o":"m 378 760 q 525 724 472 760 q 607 632 578 688 l 611 632 l 622 746 l 728 746 l 728 -22 q 692 -187 728 -118 q 581 -295 657 -257 q 383 -333 506 -333 q 231 -320 296 -333 q 110 -285 165 -307 l 110 -175 q 231 -217 167 -201 q 378 -233 296 -233 q 553 -178 500 -233 q 606 -26 606 -122 l 606 15 q 607 75 606 47 q 611 138 608 103 l 606 138 q 519 26 581 67 q 365 -14 458 -14 q 152 83 231 -14 q 74 367 74 179 q 153 656 74 553 q 378 760 232 760 m 415 661 q 293 626 342 661 q 221 526 244 592 q 197 364 197 460 q 251 155 197 225 q 406 85 304 85 q 509 106 468 85 q 572 165 550 128 q 604 249 594 201 q 614 347 614 296 l 614 400 q 596 537 614 478 q 535 628 578 596 q 415 661 493 661 m 511 1049 q 492 987 503 1025 q 472 909 481 949 q 458 839 463 869 l 343 839 l 343 850 q 385 956 363 903 q 438 1061 407 1008 l 511 1061 l 511 1049 z "},"ġ":{"ha":842,"x_min":74,"x_max":728,"o":"m 378 760 q 525 724 472 760 q 607 632 578 688 l 611 632 l 622 746 l 728 746 l 728 -22 q 692 -187 728 -118 q 581 -295 657 -257 q 383 -333 506 -333 q 231 -320 296 -333 q 110 -285 165 -307 l 110 -175 q 231 -217 167 -201 q 378 -233 296 -233 q 553 -178 500 -233 q 606 -26 606 -122 l 606 15 q 607 75 606 47 q 611 138 608 103 l 606 138 q 519 26 581 67 q 365 -14 458 -14 q 152 83 231 -14 q 74 367 74 179 q 153 656 74 553 q 378 760 232 760 m 415 661 q 293 626 342 661 q 221 526 244 592 q 197 364 197 460 q 251 155 197 225 q 406 85 304 85 q 509 106 468 85 q 572 165 550 128 q 604 249 594 201 q 614 347 614 296 l 614 400 q 596 537 614 478 q 535 628 578 596 q 415 661 493 661 m 417 1031 q 473 1013 453 1031 q 493 958 493 996 q 473 906 493 922 q 417 889 453 889 q 361 906 381 889 q 342 958 342 922 q 361 1013 342 996 q 417 1031 381 1031 z "},"ß":{"ha":872,"x_min":111,"x_max":813,"o":"m 722 854 q 703 772 722 806 q 656 714 683 738 q 601 669 629 690 q 553 626 572 649 q 535 571 535 603 q 570 499 535 526 q 669 429 606 471 q 743 372 711 401 q 794 303 775 343 q 813 201 813 263 q 784 90 813 139 q 697 14 756 42 q 553 -14 639 -14 q 430 -3 478 -14 q 343 25 382 8 l 343 124 q 402 99 371 110 q 465 83 433 89 q 529 76 497 76 q 644 110 603 76 q 685 201 685 144 q 672 269 685 242 q 630 320 658 296 q 556 371 601 344 q 476 426 510 400 q 425 483 443 451 q 407 557 407 514 q 426 635 407 604 q 473 687 444 665 q 530 728 501 708 q 577 776 558 749 q 596 844 596 803 q 555 932 596 899 q 435 965 514 965 q 283 911 332 965 q 233 758 233 857 l 233 0 l 111 0 l 111 768 q 151 929 111 864 q 263 1028 190 994 q 435 1063 336 1063 q 588 1038 524 1063 q 687 967 651 1014 q 722 854 722 921 z "},"`":{"ha":433,"x_min":56,"x_max":378,"o":"m 192 1064 q 246 996 213 1035 q 315 919 279 957 q 378 854 351 882 l 378 842 l 294 842 q 234 891 267 864 q 168 947 201 918 q 106 1003 135 975 q 56 1053 76 1031 l 56 1064 l 192 1064 z "},"̀":{"ha":0,"x_min":-678,"x_max":-356,"o":"m -542 1064 q -487 996 -521 1035 q -418 919 -454 957 q -356 854 -382 882 l -356 842 l -439 842 q -499 891 -467 864 q -565 947 -532 918 q -628 1003 -599 975 q -678 1053 -657 1031 l -678 1064 l -542 1064 z "},">":{"ha":800,"x_min":72,"x_max":726,"o":"m 72 263 l 597 499 l 72 743 l 72 840 l 726 525 l 726 465 l 72 165 l 72 263 z "},"«":{"ha":693,"x_min":42,"x_max":650,"o":"m 42 397 l 272 682 l 357 633 l 169 389 l 357 143 l 272 96 l 42 379 l 42 397 m 335 397 l 565 682 l 650 633 l 463 389 l 650 143 l 565 96 l 335 379 l 335 397 z "},"»":{"ha":693,"x_min":42,"x_max":651,"o":"m 651 381 l 421 96 l 335 144 l 524 389 l 335 635 l 421 682 l 651 399 l 651 381 m 358 381 l 128 96 l 42 144 l 231 389 l 42 635 l 128 682 l 358 399 l 358 381 z "},"‹":{"ha":400,"x_min":42,"x_max":357,"o":"m 42 397 l 272 682 l 357 633 l 169 389 l 357 143 l 272 96 l 42 379 l 42 397 z "},"›":{"ha":400,"x_min":42,"x_max":358,"o":"m 128 682 l 358 399 l 358 381 l 128 96 l 42 144 l 231 389 l 42 635 l 128 682 z "},"h":{"ha":846,"x_min":113,"x_max":740,"o":"m 235 771 q 233 683 235 719 q 229 615 231 646 l 235 615 q 287 690 254 657 q 368 742 319 724 q 482 760 417 760 q 618 731 560 760 q 708 643 676 703 q 740 488 740 583 l 740 0 l 618 0 l 618 457 q 574 612 618 563 q 450 661 531 661 q 334 631 382 661 q 260 540 286 600 q 235 389 235 481 l 235 0 l 113 0 l 113 1056 l 235 1056 l 235 771 z "},"ħ":{"ha":851,"x_min":14,"x_max":746,"o":"m 240 1056 l 240 926 l 510 926 l 510 844 l 239 844 l 239 717 q 238 653 239 686 q 233 589 236 621 l 242 589 q 292 665 260 632 q 374 716 325 697 q 488 735 422 735 q 624 706 565 735 q 714 617 682 678 q 746 463 746 557 l 746 0 l 622 0 l 622 432 q 579 585 622 536 q 454 635 536 635 q 340 605 388 635 q 266 515 292 575 q 240 363 240 454 l 240 0 l 118 0 l 118 844 l 14 844 l 14 926 l 118 926 l 118 1056 l 240 1056 z "},"˝":{"ha":636,"x_min":56,"x_max":581,"o":"m 581 1053 q 543 1003 567 1031 q 491 946 519 975 q 435 890 463 917 q 382 842 407 864 l 313 842 l 313 854 q 363 919 335 882 q 417 994 392 956 q 460 1064 443 1033 l 581 1064 l 581 1053 m 324 1053 q 286 1003 310 1031 q 234 946 263 975 q 177 890 206 917 q 125 842 149 864 l 56 842 l 56 854 q 107 919 79 882 q 160 994 135 956 q 203 1064 186 1033 l 324 1064 l 324 1053 z "},"̋":{"ha":0,"x_min":-175,"x_max":350,"o":"m 350 1053 q 313 1003 336 1031 q 260 946 289 975 q 204 890 232 917 q 151 842 176 864 l 82 842 l 82 854 q 133 919 104 882 q 187 994 161 956 q 229 1064 213 1033 l 350 1064 l 350 1053 m 93 1053 q 56 1003 79 1031 q 3 946 32 975 q -53 890 -25 917 q -106 842 -82 864 l -175 842 l -175 854 q -124 919 -151 882 q -70 994 -96 956 q -28 1064 -44 1033 l 93 1064 l 93 1053 z "},"i":{"ha":349,"x_min":100,"x_max":251,"o":"m 235 746 l 235 0 l 113 0 l 113 746 l 235 746 m 175 1031 q 231 1013 211 1031 q 251 958 251 996 q 231 906 251 922 q 175 889 211 889 q 119 906 139 889 q 100 958 100 922 q 119 1013 100 996 q 175 1031 139 1031 z "},"í":{"ha":349,"x_min":86,"x_max":408,"o":"m 235 0 l 113 0 l 113 746 l 235 746 l 235 0 m 408 1053 q 359 1003 389 1031 q 297 947 329 975 q 231 891 264 918 q 171 842 199 864 l 86 842 l 86 854 q 151 919 115 882 q 220 996 186 957 q 274 1064 254 1035 l 408 1064 l 408 1053 z "},"î":{"ha":349,"x_min":-49,"x_max":400,"o":"m 235 0 l 113 0 l 113 746 l 235 746 l 235 0 m 238 1061 q 285 994 256 1032 q 345 919 314 956 q 401 854 376 882 l 401 842 l 318 842 q 244 913 281 874 q 176 989 208 953 q 109 914 144 953 q 35 842 74 875 l -49 842 l -49 854 q 9 919 -22 882 q 70 994 40 956 q 118 1061 100 1032 l 238 1061 z "},"ï":{"ha":349,"x_min":-31,"x_max":382,"o":"m 235 0 l 113 0 l 113 746 l 235 746 l 235 0 m -31 949 q -14 997 -31 979 q 33 1015 3 1015 q 82 997 65 1015 q 99 949 99 979 q 82 899 99 917 q 33 882 65 882 q -14 899 3 882 q -31 949 -31 917 m 253 949 q 269 997 253 979 q 315 1015 286 1015 q 365 997 349 1015 q 382 949 382 979 q 365 899 382 917 q 315 882 349 882 q 269 899 286 882 q 253 949 253 917 z "},"ı":{"ha":349,"x_min":113,"x_max":235,"o":"m 235 0 l 113 0 l 113 746 l 235 746 l 235 0 z "},"ì":{"ha":349,"x_min":14,"x_max":338,"o":"m 235 0 l 113 0 l 113 746 l 235 746 l 235 0 m 150 1064 q 204 996 171 1035 q 274 919 238 957 q 336 854 310 882 l 336 842 l 253 842 q 192 891 225 864 q 126 947 160 918 q 64 1003 93 975 q 14 1053 35 1031 l 14 1064 l 150 1064 z "},"ī":{"ha":349,"x_min":-28,"x_max":379,"o":"m 235 0 l 113 0 l 113 746 l 235 746 l 235 0 m 379 929 l 379 849 l -28 849 l -28 929 l 379 929 z "},"į":{"ha":349,"x_min":25,"x_max":254,"o":"m 235 746 l 235 0 l 113 0 l 113 746 l 235 746 m 175 1031 q 231 1013 211 1031 q 251 958 251 996 q 231 906 251 922 q 175 889 211 889 q 119 906 139 889 q 100 958 100 922 q 119 1013 100 996 q 175 1031 139 1031 m 113 -164 q 131 -217 113 -199 q 182 -235 149 -235 q 222 -231 201 -235 q 254 -222 242 -228 l 254 -300 q 217 -309 239 -304 q 167 -314 194 -314 q 66 -280 107 -314 q 25 -183 25 -246 q 58 -85 25 -135 q 171 22 92 -35 l 226 0 q 146 -80 179 -40 q 113 -164 113 -119 z "},"j":{"ha":349,"x_min":-69,"x_max":250,"o":"m 36 -333 q -20 -329 8 -333 q -69 -318 -49 -325 l -69 -218 q -28 -229 -49 -226 q 14 -232 -7 -232 q 87 -201 61 -232 q 113 -103 113 -169 l 113 746 l 235 746 l 235 -128 q 212 -235 235 -189 q 145 -308 189 -282 q 36 -333 101 -333 m 100 958 q 119 1013 100 996 q 174 1031 139 1031 q 231 1013 211 1031 q 250 958 250 996 q 231 906 250 922 q 174 889 211 889 q 119 906 139 889 q 100 958 100 922 z "},"ȷ":{"ha":349,"x_min":-69,"x_max":235,"o":"m 36 -333 q -20 -329 8 -333 q -69 -318 -49 -325 l -69 -218 q -28 -229 -49 -226 q 14 -232 -7 -232 q 87 -201 61 -232 q 113 -103 113 -169 l 113 746 l 235 746 l 235 -128 q 212 -235 235 -189 q 145 -308 189 -282 q 36 -333 101 -333 z "},"k":{"ha":738,"x_min":113,"x_max":742,"o":"m 235 575 q 233 456 235 515 q 229 339 232 397 l 229 339 q 270 390 250 364 q 311 439 290 415 l 578 746 l 718 746 l 440 426 l 742 0 l 601 0 l 354 349 l 235 228 l 235 0 l 113 0 l 113 1056 l 235 1056 l 235 575 z "},"ķ":{"ha":738,"x_min":113,"x_max":742,"o":"m 235 575 q 233 456 235 515 q 229 339 232 397 l 229 339 q 270 390 250 364 q 311 439 290 415 l 578 746 l 718 746 l 440 426 l 742 0 l 601 0 l 354 349 l 235 228 l 235 0 l 113 0 l 113 1056 l 235 1056 l 235 575 m 453 -96 q 414 -203 436 -150 q 358 -307 392 -256 l 285 -307 l 285 -294 q 306 -232 294 -271 q 326 -153 317 -193 q 338 -85 335 -112 l 453 -85 l 453 -96 z "},"l":{"ha":349,"x_min":114,"x_max":236,"o":"m 236 0 l 114 0 l 114 1056 l 236 1056 l 236 0 z "},"ĺ":{"ha":349,"x_min":85,"x_max":408,"o":"m 236 0 l 114 0 l 114 1056 l 236 1056 l 236 0 m 407 1363 q 358 1313 388 1340 q 295 1256 328 1285 q 230 1201 263 1228 q 169 1151 197 1174 l 85 1151 l 85 1164 q 149 1229 114 1192 q 219 1306 185 1267 q 272 1374 253 1344 l 407 1374 l 407 1363 z "},"ľ":{"ha":349,"x_min":114,"x_max":453,"o":"m 236 0 l 114 0 l 114 1056 l 236 1056 l 236 0 m 453 1044 q 426 975 440 1010 q 394 905 411 940 q 356 833 378 869 l 282 833 l 282 846 q 297 890 289 864 q 313 947 306 917 q 328 1005 321 976 q 338 1056 335 1033 l 453 1056 l 453 1044 z "},"ļ":{"ha":349,"x_min":90,"x_max":258,"o":"m 236 0 l 114 0 l 114 1056 l 236 1056 l 236 0 m 260 -96 q 221 -203 243 -150 q 165 -307 199 -256 l 92 -307 l 92 -294 q 113 -232 101 -271 q 133 -153 124 -193 q 144 -85 142 -112 l 260 -85 l 260 -96 z "},"<":{"ha":800,"x_min":72,"x_max":726,"o":"m 726 165 l 72 465 l 72 525 l 726 840 l 726 743 l 201 499 l 726 263 l 726 165 z "},"ł":{"ha":397,"x_min":1,"x_max":410,"o":"m 142 0 l 142 397 l 49 338 l 1 419 l 142 507 l 142 1056 l 263 1056 l 263 579 l 363 644 l 410 564 l 263 472 l 263 0 l 142 0 z "},"m":{"ha":1261,"x_min":113,"x_max":1156,"o":"m 919 760 q 1092 698 1028 760 q 1156 501 1156 636 l 1156 0 l 1033 0 l 1033 469 q 992 617 1033 572 q 886 661 951 661 q 746 602 797 661 q 694 417 694 543 l 694 0 l 574 0 l 574 469 q 554 579 574 538 q 503 641 535 621 q 426 661 471 661 q 326 634 369 661 q 259 551 283 607 q 235 408 235 494 l 235 0 l 113 0 l 113 746 l 206 746 l 224 628 l 228 628 q 275 691 246 661 q 351 740 304 721 q 463 760 397 760 q 596 725 542 760 q 675 625 650 690 l 679 625 q 770 724 710 688 q 919 760 831 760 z "},"̄":{"ha":0,"x_min":-204,"x_max":201,"o":"m 203 929 l 203 849 l -204 849 l -204 929 l 203 929 z "},"−":{"ha":446,"x_min":46,"x_max":400,"o":"m 46 325 l 46 426 l 400 426 l 400 325 l 46 325 z "},"×":{"ha":800,"x_min":97,"x_max":701,"o":"m 639 792 l 701 731 l 461 490 l 701 250 l 639 189 l 399 428 l 158 189 l 99 251 l 336 490 l 97 729 l 158 792 l 399 554 l 639 792 z "},"n":{"ha":846,"x_min":113,"x_max":740,"o":"m 483 760 q 672 694 603 760 q 740 488 740 629 l 740 0 l 618 0 l 618 457 q 574 612 618 563 q 450 661 531 661 q 291 593 347 661 q 235 389 235 525 l 235 0 l 113 0 l 113 746 l 206 746 l 222 613 l 228 613 q 281 686 249 653 q 364 740 314 719 q 483 760 414 760 z "},"ń":{"ha":846,"x_min":113,"x_max":740,"o":"m 483 760 q 672 694 603 760 q 740 488 740 629 l 740 0 l 618 0 l 618 457 q 574 612 618 563 q 450 661 531 661 q 291 593 347 661 q 235 389 235 525 l 235 0 l 113 0 l 113 746 l 206 746 l 222 613 l 228 613 q 281 686 249 653 q 364 740 314 719 q 483 760 414 760 m 656 1053 q 606 1003 636 1031 q 544 947 576 975 q 478 891 511 918 q 418 842 446 864 l 333 842 l 333 854 q 398 919 363 882 q 467 996 433 957 q 521 1064 501 1035 l 656 1064 l 656 1053 z "},"ň":{"ha":846,"x_min":113,"x_max":740,"o":"m 483 760 q 672 694 603 760 q 740 488 740 629 l 740 0 l 618 0 l 618 457 q 574 612 618 563 q 450 661 531 661 q 291 593 347 661 q 235 389 235 525 l 235 0 l 113 0 l 113 746 l 206 746 l 222 613 l 228 613 q 281 686 249 653 q 364 740 314 719 q 483 760 414 760 m 364 842 q 316 910 344 872 q 256 985 288 947 q 199 1049 225 1022 l 199 1061 l 282 1061 q 356 990 321 1029 q 422 915 390 951 q 491 990 454 951 q 565 1061 528 1029 l 649 1061 l 649 1049 q 592 985 624 1022 q 531 910 560 949 q 482 842 501 872 l 364 842 z "},"ņ":{"ha":846,"x_min":113,"x_max":740,"o":"m 483 760 q 672 694 603 760 q 740 488 740 629 l 740 0 l 618 0 l 618 457 q 574 612 618 563 q 450 661 531 661 q 291 593 347 661 q 235 389 235 525 l 235 0 l 113 0 l 113 746 l 206 746 l 222 613 l 228 613 q 281 686 249 653 q 364 740 314 719 q 483 760 414 760 m 508 -96 q 469 -203 492 -150 q 414 -307 447 -256 l 340 -307 l 340 -294 q 361 -232 350 -271 q 381 -153 372 -193 q 393 -85 390 -112 l 508 -85 l 508 -96 z "},"ñ":{"ha":846,"x_min":113,"x_max":740,"o":"m 483 760 q 672 694 603 760 q 740 488 740 629 l 740 0 l 618 0 l 618 457 q 574 612 618 563 q 450 661 531 661 q 291 593 347 661 q 235 389 235 525 l 235 0 l 113 0 l 113 746 l 206 746 l 222 613 l 228 613 q 281 686 249 653 q 364 740 314 719 q 483 760 414 760 m 176 851 q 190 930 179 897 q 219 983 201 963 q 263 1013 238 1003 q 318 1024 288 1024 q 376 1010 350 1024 q 428 978 403 996 q 478 947 453 961 q 531 933 503 933 q 576 951 554 933 q 604 1024 599 968 l 672 1024 q 628 893 667 935 q 531 851 589 851 q 471 865 499 851 q 418 895 443 878 q 369 926 393 913 q 317 940 344 940 q 273 924 294 940 q 244 851 251 907 l 176 851 z "},"#":{"ha":906,"x_min":33,"x_max":872,"o":"m 671 608 l 628 382 l 822 382 l 822 297 l 611 297 l 554 0 l 465 0 l 522 297 l 307 297 l 250 0 l 161 0 l 217 297 l 33 297 l 33 382 l 233 382 l 276 608 l 85 608 l 85 694 l 292 694 l 349 992 l 439 992 l 382 694 l 597 694 l 653 992 l 743 992 l 686 694 l 872 694 l 872 608 l 671 608 m 322 382 l 538 382 l 581 608 l 365 608 l 322 382 z "},"o":{"ha":831,"x_min":74,"x_max":757,"o":"m 757 374 q 735 216 757 288 q 670 94 714 144 q 563 15 626 43 q 414 -14 499 -14 q 270 14 333 -14 q 163 93 207 42 q 97 216 119 144 q 74 374 74 288 q 115 581 74 494 q 233 714 156 668 q 421 760 311 760 q 606 711 532 760 q 719 576 681 663 q 757 374 757 489 m 197 374 q 221 220 197 286 q 292 118 244 154 q 414 82 340 82 q 538 118 490 82 q 609 221 586 154 q 632 374 632 288 q 611 524 632 458 q 543 628 590 590 q 419 665 496 665 q 254 589 311 665 q 197 374 197 513 z "},"ó":{"ha":831,"x_min":74,"x_max":757,"o":"m 757 374 q 735 216 757 288 q 670 94 714 144 q 563 15 626 43 q 414 -14 499 -14 q 270 14 333 -14 q 163 93 207 42 q 97 216 119 144 q 74 374 74 288 q 115 581 74 494 q 233 714 156 668 q 421 760 311 760 q 606 711 532 760 q 719 576 681 663 q 757 374 757 489 m 197 374 q 221 220 197 286 q 292 118 244 154 q 414 82 340 82 q 538 118 490 82 q 609 221 586 154 q 632 374 632 288 q 611 524 632 458 q 543 628 590 590 q 419 665 496 665 q 254 589 311 665 q 197 374 197 513 m 649 1053 q 599 1003 629 1031 q 537 947 569 975 q 472 891 504 918 q 411 842 439 864 l 326 842 l 326 854 q 391 919 356 882 q 460 996 426 957 q 514 1064 494 1035 l 649 1064 l 649 1053 z "},"ô":{"ha":831,"x_min":74,"x_max":757,"o":"m 757 374 q 735 216 757 288 q 670 94 714 144 q 563 15 626 43 q 414 -14 499 -14 q 270 14 333 -14 q 163 93 207 42 q 97 216 119 144 q 74 374 74 288 q 115 581 74 494 q 233 714 156 668 q 421 760 311 760 q 606 711 532 760 q 719 576 681 663 q 757 374 757 489 m 197 374 q 221 220 197 286 q 292 118 244 154 q 414 82 340 82 q 538 118 490 82 q 609 221 586 154 q 632 374 632 288 q 611 524 632 458 q 543 628 590 590 q 419 665 496 665 q 254 589 311 665 q 197 374 197 513 m 478 1061 q 525 994 496 1032 q 585 919 554 956 q 642 854 617 882 l 642 842 l 558 842 q 485 913 521 874 q 417 989 449 953 q 349 914 385 953 q 275 842 314 875 l 192 842 l 192 854 q 249 919 218 882 q 310 994 281 956 q 358 1061 340 1032 l 478 1061 z "},"ö":{"ha":831,"x_min":74,"x_max":757,"o":"m 757 374 q 735 216 757 288 q 670 94 714 144 q 563 15 626 43 q 414 -14 499 -14 q 270 14 333 -14 q 163 93 207 42 q 97 216 119 144 q 74 374 74 288 q 115 581 74 494 q 233 714 156 668 q 421 760 311 760 q 606 711 532 760 q 719 576 681 663 q 757 374 757 489 m 197 374 q 221 220 197 286 q 292 118 244 154 q 414 82 340 82 q 538 118 490 82 q 609 221 586 154 q 632 374 632 288 q 611 524 632 458 q 543 628 590 590 q 419 665 496 665 q 254 589 311 665 q 197 374 197 513 m 211 949 q 228 997 211 979 q 275 1015 244 1015 q 324 997 307 1015 q 340 949 340 979 q 324 899 340 917 q 275 882 307 882 q 228 899 244 882 q 211 949 211 917 m 494 949 q 511 997 494 979 q 557 1015 528 1015 q 607 997 590 1015 q 624 949 624 979 q 607 899 624 917 q 557 882 590 882 q 511 899 528 882 q 494 949 494 917 z "},"œ":{"ha":1350,"x_min":74,"x_max":1275,"o":"m 983 760 q 1144 717 1079 760 q 1242 596 1208 674 q 1275 414 1275 518 l 1275 349 l 757 349 q 821 151 757 222 q 1006 79 885 79 q 1121 90 1067 79 q 1239 131 1175 100 l 1239 36 q 1128 -1 1186 11 q 992 -14 1071 -14 q 808 36 881 -14 q 701 172 736 86 q 596 37 667 88 q 414 -14 525 -14 q 230 35 306 -14 q 114 171 154 83 q 74 374 74 258 q 115 581 74 494 q 233 714 156 668 q 421 760 311 760 q 597 708 529 760 q 697 574 665 657 q 760 670 722 628 q 854 736 799 713 q 983 760 910 760 m 419 665 q 255 589 311 665 q 199 374 199 513 q 222 220 199 286 q 292 118 244 154 q 414 82 340 82 q 538 118 490 82 q 609 221 586 154 q 632 374 632 288 q 611 524 632 458 q 543 628 590 590 q 419 665 496 665 m 978 671 q 828 612 886 671 q 760 432 769 553 l 1163 432 q 1143 556 1164 503 q 1081 640 1122 610 q 978 671 1040 671 z "},"˛":{"ha":340,"x_min":56,"x_max":285,"o":"m 143 -164 q 161 -217 143 -199 q 213 -235 179 -235 q 252 -231 232 -235 q 285 -222 272 -228 l 285 -300 q 247 -309 269 -304 q 197 -314 225 -314 q 97 -280 138 -314 q 56 -183 56 -246 q 89 -85 56 -135 q 201 22 122 -35 l 257 0 q 176 -80 210 -40 q 143 -164 143 -119 z "},"̨":{"ha":0,"x_min":-115,"x_max":114,"o":"m -28 -164 q -10 -217 -28 -199 q 42 -235 8 -235 q 81 -231 61 -235 q 114 -222 101 -228 l 114 -300 q 76 -309 99 -304 q 26 -314 54 -314 q -74 -280 -33 -314 q -115 -183 -115 -246 q -82 -85 -115 -135 q 31 22 -49 -35 l 86 0 q 6 -80 39 -40 q -28 -164 -28 -119 z "},"ò":{"ha":831,"x_min":74,"x_max":757,"o":"m 757 374 q 735 216 757 288 q 670 94 714 144 q 563 15 626 43 q 414 -14 499 -14 q 270 14 333 -14 q 163 93 207 42 q 97 216 119 144 q 74 374 74 288 q 115 581 74 494 q 233 714 156 668 q 421 760 311 760 q 606 711 532 760 q 719 576 681 663 q 757 374 757 489 m 197 374 q 221 220 197 286 q 292 118 244 154 q 414 82 340 82 q 538 118 490 82 q 609 221 586 154 q 632 374 632 288 q 611 524 632 458 q 543 628 590 590 q 419 665 496 665 q 254 589 311 665 q 197 374 197 513 m 392 1064 q 446 996 413 1035 q 515 919 479 957 q 578 854 551 882 l 578 842 l 494 842 q 434 891 467 864 q 368 947 401 918 q 306 1003 335 975 q 256 1053 276 1031 l 256 1064 l 392 1064 z "},"ő":{"ha":831,"x_min":74,"x_max":757,"o":"m 757 374 q 735 216 757 288 q 670 94 714 144 q 563 15 626 43 q 414 -14 499 -14 q 270 14 333 -14 q 163 93 207 42 q 97 216 119 144 q 74 374 74 288 q 115 581 74 494 q 233 714 156 668 q 421 760 311 760 q 606 711 532 760 q 719 576 681 663 q 757 374 757 489 m 197 374 q 221 220 197 286 q 292 118 244 154 q 414 82 340 82 q 538 118 490 82 q 609 221 586 154 q 632 374 632 288 q 611 524 632 458 q 543 628 590 590 q 419 665 496 665 q 254 589 311 665 q 197 374 197 513 m 678 1053 q 640 1003 664 1031 q 588 946 617 975 q 532 890 560 917 q 479 842 504 864 l 410 842 l 410 854 q 460 919 432 882 q 515 994 489 956 q 557 1064 540 1033 l 678 1064 l 678 1053 m 421 1053 q 383 1003 407 1031 q 331 946 360 975 q 274 890 303 917 q 222 842 246 864 l 153 842 l 153 854 q 204 919 176 882 q 258 994 232 956 q 300 1064 283 1033 l 421 1064 l 421 1053 z "},"ª":{"ha":486,"x_min":49,"x_max":419,"o":"m 258 1003 q 377 962 335 1003 q 419 843 419 921 l 419 538 l 358 538 l 343 611 q 287 552 322 574 q 196 531 251 531 q 119 546 153 531 q 67 592 86 561 q 49 668 49 622 q 73 749 49 718 q 147 795 97 779 q 271 814 197 811 l 332 817 l 332 844 q 309 912 332 890 q 242 933 286 933 q 175 924 207 933 q 107 897 143 915 l 79 960 q 160 991 118 979 q 258 1003 203 1003 m 271 757 q 167 733 199 753 q 136 671 136 713 q 158 617 136 636 q 219 599 179 599 q 304 633 276 599 q 332 724 332 668 l 332 760 l 271 757 z "},"º":{"ha":510,"x_min":44,"x_max":468,"o":"m 468 767 q 413 594 468 661 q 256 528 358 528 q 101 595 157 528 q 44 767 44 663 q 102 942 44 879 q 258 1006 160 1006 q 373 975 326 1006 q 444 891 419 944 q 468 767 468 838 m 132 767 q 163 647 132 692 q 256 601 194 601 q 349 647 319 601 q 379 767 379 693 q 351 886 379 839 q 258 933 322 933 q 165 890 197 933 q 132 767 132 846 z "},"ø":{"ha":846,"x_min":74,"x_max":771,"o":"m 771 374 q 731 172 771 260 q 614 35 692 83 q 421 -14 536 -14 q 311 3 360 -14 q 225 50 263 21 l 147 -53 l 88 -12 l 167 93 q 98 216 122 144 q 74 374 74 288 q 167 657 74 554 q 428 760 261 760 q 533 745 486 760 q 617 703 581 731 l 685 793 l 744 753 l 675 663 q 747 538 722 611 q 771 374 771 464 m 192 374 q 201 273 192 319 q 232 190 211 226 l 563 624 q 504 657 538 644 q 426 669 471 669 q 251 592 310 669 q 192 374 192 515 m 653 374 q 642 478 653 429 q 608 563 632 526 l 279 131 q 341 90 306 104 q 422 76 376 76 q 555 114 504 76 q 629 218 606 151 q 653 374 653 285 z "},"õ":{"ha":831,"x_min":74,"x_max":757,"o":"m 757 374 q 735 216 757 288 q 670 94 714 144 q 563 15 626 43 q 414 -14 499 -14 q 270 14 333 -14 q 163 93 207 42 q 97 216 119 144 q 74 374 74 288 q 115 581 74 494 q 233 714 156 668 q 421 760 311 760 q 606 711 532 760 q 719 576 681 663 q 757 374 757 489 m 197 374 q 221 220 197 286 q 292 118 244 154 q 414 82 340 82 q 538 118 490 82 q 609 221 586 154 q 632 374 632 288 q 611 524 632 458 q 543 628 590 590 q 419 665 496 665 q 254 589 311 665 q 197 374 197 513 m 169 851 q 183 930 172 897 q 213 983 194 963 q 256 1013 231 1003 q 311 1024 281 1024 q 369 1010 343 1024 q 421 978 396 996 q 471 947 446 961 q 524 933 496 933 q 569 951 547 933 q 597 1024 592 968 l 665 1024 q 621 893 660 935 q 524 851 582 851 q 464 865 492 851 q 411 895 436 878 q 362 926 386 913 q 310 940 338 940 q 266 924 288 940 q 238 851 244 907 l 169 851 z "},"¯":{"ha":694,"x_min":-4,"x_max":699,"o":"m 699 1056 l -4 1056 l -4 1140 l 699 1140 l 699 1056 z "},"p":{"ha":842,"x_min":114,"x_max":769,"o":"m 482 760 q 695 663 621 760 q 769 378 769 565 q 733 165 769 253 q 629 31 696 76 q 471 -14 563 -14 q 358 6 406 -14 q 281 58 311 26 q 236 129 251 90 l 231 129 q 235 49 233 89 q 236 -33 236 10 l 236 -326 l 114 -326 l 114 746 l 214 746 l 229 600 l 236 600 q 285 679 253 643 q 366 738 317 715 q 482 760 415 760 m 444 661 q 328 628 375 661 q 259 534 282 596 q 236 383 236 472 l 236 372 q 259 213 236 276 q 327 119 282 150 q 436 88 372 88 q 549 119 503 88 q 620 216 596 151 q 644 379 644 281 q 594 593 644 525 q 444 661 543 661 z "},"¶":{"ha":904,"x_min":108,"x_max":750,"o":"m 750 -176 l 679 -176 l 679 975 l 524 975 l 524 -176 l 451 -176 l 451 450 q 410 441 431 444 q 358 438 389 438 q 223 474 279 438 q 138 581 167 511 q 108 749 108 650 q 140 922 108 854 q 232 1023 171 990 q 379 1056 293 1056 l 750 1056 l 750 -176 z "},"(":{"ha":408,"x_min":56,"x_max":364,"o":"m 56 386 q 77 617 56 506 q 143 826 99 729 q 253 1003 188 924 l 364 1003 q 215 717 263 876 q 167 388 167 558 q 188 167 167 275 q 253 -38 208 60 q 364 -219 297 -136 l 253 -219 q 143 -44 188 -140 q 77 160 99 51 q 56 386 56 268 z "},")":{"ha":408,"x_min":46,"x_max":354,"o":"m 354 393 q 332 164 354 275 q 267 -44 310 53 q 157 -219 224 -142 l 46 -219 q 158 -37 114 -136 q 222 170 201 61 q 243 393 243 279 q 222 613 243 506 q 157 819 201 721 q 46 1003 113 918 l 157 1003 q 267 826 224 922 q 332 621 310 729 q 354 393 354 513 z "},"%":{"ha":1182,"x_min":61,"x_max":1121,"o":"m 275 1006 q 435 926 379 1006 q 490 696 490 846 q 434 463 490 543 q 274 383 378 383 q 117 464 174 383 q 61 696 61 544 q 117 926 61 847 q 275 1006 174 1006 m 276 922 q 191 865 221 922 q 161 694 161 807 q 190 525 161 583 q 275 467 218 467 q 363 526 335 467 q 390 694 390 585 q 363 863 390 804 q 276 922 336 922 m 915 992 l 365 0 l 265 0 l 815 992 l 915 992 m 906 610 q 1065 530 1010 610 q 1121 300 1121 450 q 1065 67 1121 146 q 904 -12 1008 -12 q 748 68 804 -12 q 692 300 692 149 q 748 531 692 451 q 906 610 804 610 m 907 526 q 822 469 851 526 q 792 299 792 411 q 821 128 792 188 q 906 69 850 69 q 993 129 965 69 q 1021 299 1021 189 q 994 467 1021 408 q 907 526 968 526 z "},".":{"ha":342,"x_min":96,"x_max":247,"o":"m 96 63 q 116 119 96 100 q 172 138 136 138 q 228 119 208 138 q 247 63 247 100 q 228 6 247 25 q 172 -12 208 -12 q 116 6 136 -12 q 96 63 96 25 z "},"·":{"ha":342,"x_min":96,"x_max":247,"o":"m 96 457 q 116 513 96 494 q 172 532 136 532 q 228 513 208 532 q 247 457 247 494 q 228 401 247 419 q 172 382 208 382 q 116 401 136 382 q 96 457 96 419 z "},"+":{"ha":800,"x_min":71,"x_max":728,"o":"m 444 535 l 728 535 l 728 446 l 444 446 l 444 165 l 356 165 l 356 446 l 71 446 l 71 535 l 356 535 l 356 817 l 444 817 l 444 535 z "},"q":{"ha":842,"x_min":71,"x_max":726,"o":"m 604 -3 q 606 69 604 28 q 610 143 607 110 l 604 143 q 517 30 581 75 q 358 -15 454 -15 q 147 84 222 -15 q 71 371 71 183 q 104 574 71 486 q 206 710 138 661 q 374 760 274 760 q 523 719 465 760 q 607 621 581 679 l 611 621 l 622 746 l 726 746 l 726 -326 l 604 -326 l 604 -3 m 399 85 q 522 117 475 85 q 590 213 568 150 q 613 364 613 275 l 613 385 q 565 590 613 518 q 411 661 517 661 q 249 585 304 661 q 194 369 194 510 q 246 155 194 225 q 399 85 297 85 z "},"?":{"ha":622,"x_min":33,"x_max":578,"o":"m 200 315 q 210 414 200 374 q 246 486 219 454 q 321 551 272 518 q 400 614 368 585 q 447 676 432 643 q 461 757 461 710 q 413 869 461 832 q 289 906 365 906 q 185 892 238 906 q 78 849 133 878 l 33 942 q 161 990 100 974 q 296 1006 222 1006 q 502 944 426 1006 q 578 765 578 882 q 558 655 578 703 q 499 569 538 607 q 403 493 460 531 q 343 442 365 467 q 310 386 321 418 q 300 306 300 354 l 300 282 l 200 282 l 200 315 m 179 63 q 199 119 179 100 q 256 138 219 138 q 311 119 292 138 q 331 63 331 100 q 311 6 331 25 q 256 -12 292 -12 q 199 6 219 -12 q 179 63 179 25 z "},"¿":{"ha":622,"x_min":46,"x_max":592,"o":"m 424 435 q 414 335 424 376 q 378 263 404 294 q 304 199 353 232 q 224 135 256 165 q 178 72 193 106 q 163 -8 163 39 q 211 -120 163 -83 q 336 -157 260 -157 q 439 -143 388 -157 q 547 -100 490 -129 l 592 -192 q 464 -240 525 -224 q 329 -257 403 -257 q 122 -194 199 -257 q 46 -17 46 -132 q 66 94 46 47 q 126 181 86 142 q 221 257 165 219 q 282 306 260 282 q 315 363 304 331 q 325 443 325 396 l 325 467 l 424 467 l 424 435 m 444 686 q 424 630 444 649 q 369 611 404 611 q 313 630 332 611 q 293 686 293 649 q 313 743 293 724 q 369 763 332 763 q 424 743 404 763 q 444 686 444 724 z "},"\"":{"ha":551,"x_min":94,"x_max":457,"o":"m 210 992 l 196 633 l 108 633 l 94 992 l 210 992 m 457 992 l 443 633 l 356 633 l 342 992 l 457 992 z "},"„":{"ha":594,"x_min":46,"x_max":488,"o":"m 488 163 q 461 47 478 108 q 424 -76 444 -15 q 381 -185 403 -136 l 294 -185 q 330 -67 314 -131 q 358 60 346 -3 q 375 176 369 124 l 479 176 l 488 163 m 239 163 q 212 47 229 108 q 174 -76 194 -15 q 131 -185 154 -136 l 46 -185 q 72 -98 60 -144 q 95 -3 85 -51 q 113 92 106 46 q 125 176 121 138 l 229 176 l 239 163 z "},"“":{"ha":490,"x_min":25,"x_max":467,"o":"m 467 992 q 433 873 449 938 q 405 745 417 808 q 388 631 393 682 l 283 631 l 274 643 q 301 760 283 699 q 338 882 318 821 q 381 992 358 943 l 467 992 m 217 992 q 183 873 200 938 q 155 745 167 808 q 138 631 143 682 l 33 631 l 25 643 q 51 760 35 699 q 89 882 68 821 q 132 992 110 943 l 217 992 z "},"”":{"ha":490,"x_min":24,"x_max":465,"o":"m 465 978 q 439 862 456 924 q 401 740 422 800 q 358 631 381 679 l 272 631 q 308 749 292 685 q 335 876 324 813 q 353 992 347 939 l 457 992 l 465 978 m 217 978 q 190 862 207 924 q 152 740 172 800 q 108 631 132 679 l 24 631 q 50 717 38 671 q 73 813 63 764 q 91 907 83 861 q 103 992 99 953 l 207 992 l 217 978 z "},"‘":{"ha":240,"x_min":25,"x_max":217,"o":"m 25 643 q 51 760 35 699 q 89 882 68 821 q 132 992 110 943 l 217 992 q 183 873 200 938 q 155 745 167 808 q 138 631 143 682 l 33 631 l 25 643 z "},"’":{"ha":240,"x_min":24,"x_max":217,"o":"m 217 978 q 190 862 207 924 q 152 740 172 800 q 108 631 132 679 l 24 631 q 50 717 38 671 q 73 813 63 764 q 91 907 83 861 q 103 992 99 953 l 207 992 l 217 978 z "},"‚":{"ha":336,"x_min":46,"x_max":239,"o":"m 239 163 q 212 47 229 108 q 174 -76 194 -15 q 131 -185 154 -136 l 46 -185 q 72 -98 60 -144 q 95 -3 85 -51 q 113 92 106 46 q 125 176 121 138 l 229 176 l 239 163 z "},"'":{"ha":301,"x_min":94,"x_max":210,"o":"m 210 992 l 196 633 l 108 633 l 94 992 l 210 992 z "},"r":{"ha":569,"x_min":114,"x_max":550,"o":"m 450 758 q 505 755 479 758 q 550 746 531 751 l 536 632 q 492 640 514 636 q 438 643 471 643 q 355 628 392 643 q 291 583 318 614 q 250 508 264 553 q 236 400 236 463 l 236 0 l 114 0 l 114 746 l 208 746 l 225 613 l 232 613 q 279 687 249 654 q 353 739 310 719 q 450 758 397 758 z "},"ŕ":{"ha":569,"x_min":114,"x_max":550,"o":"m 450 758 q 505 755 479 758 q 550 746 531 751 l 536 632 q 492 640 514 636 q 438 643 471 643 q 355 628 392 643 q 291 583 318 614 q 250 508 264 553 q 236 400 236 463 l 236 0 l 114 0 l 114 746 l 208 746 l 225 613 l 232 613 q 279 687 249 654 q 353 739 310 719 q 450 758 397 758 m 526 1053 q 477 1003 507 1031 q 415 947 447 975 q 349 891 382 918 q 289 842 317 864 l 204 842 l 204 854 q 269 919 233 882 q 338 996 304 957 q 392 1064 372 1035 l 526 1064 l 526 1053 z "},"ř":{"ha":569,"x_min":69,"x_max":550,"o":"m 450 758 q 505 755 479 758 q 550 746 531 751 l 536 632 q 492 640 514 636 q 438 643 471 643 q 355 628 392 643 q 291 583 318 614 q 250 508 264 553 q 236 400 236 463 l 236 0 l 114 0 l 114 746 l 208 746 l 225 613 l 232 613 q 279 687 249 654 q 353 739 310 719 q 450 758 397 758 m 235 842 q 187 910 215 872 q 127 985 158 947 q 69 1049 96 1022 l 69 1061 l 153 1061 q 226 990 192 1029 q 293 915 261 951 q 362 990 325 951 q 436 1061 399 1029 l 519 1061 l 519 1049 q 463 985 494 1022 q 401 910 431 949 q 353 842 372 872 l 235 842 z "},"®":{"ha":1151,"x_min":67,"x_max":1085,"o":"m 390 204 l 390 796 l 564 796 q 729 753 672 796 q 786 624 786 711 q 753 515 786 554 q 669 457 719 475 l 818 204 l 719 204 l 588 442 l 481 442 l 481 204 l 390 204 m 560 506 q 658 533 619 506 q 696 621 696 560 q 659 702 696 678 q 563 726 622 726 l 479 726 l 479 506 l 560 506 m 576 -12 q 372 26 465 -12 q 210 135 279 65 q 104 297 142 204 q 67 496 67 389 q 106 698 67 606 q 215 859 146 790 q 377 966 285 928 q 576 1004 469 1004 q 781 964 688 1004 q 942 853 874 924 q 1047 691 1010 783 q 1085 496 1085 599 q 1046 297 1085 389 q 938 135 1007 204 q 775 26 868 65 q 576 -12 682 -12 m 576 51 q 751 86 671 51 q 891 182 832 121 q 983 324 950 243 q 1015 496 1015 404 q 983 669 1015 589 q 891 811 950 750 q 751 906 832 872 q 576 940 671 940 q 401 906 481 940 q 261 813 321 872 q 168 672 201 753 q 135 496 135 590 q 167 322 135 403 q 257 181 199 242 q 397 85 315 119 q 576 51 478 51 z "},"˚":{"ha":422,"x_min":56,"x_max":367,"o":"m 211 844 q 101 886 146 844 q 56 996 56 928 q 100 1106 56 1064 q 211 1147 144 1147 q 321 1104 275 1147 q 367 996 367 1061 q 321 886 367 928 q 211 844 275 844 m 211 908 q 273 934 249 908 q 297 996 297 960 q 272 1058 297 1033 q 211 1083 246 1083 q 148 1058 174 1083 q 122 996 122 1033 q 147 934 122 960 q 211 908 171 908 z "},"̊":{"ha":0,"x_min":-161,"x_max":150,"o":"m -6 844 q -116 886 -71 844 q -161 996 -161 928 q -117 1106 -161 1064 q -6 1147 -72 1147 q 104 1104 58 1147 q 150 996 150 1061 q 104 886 150 928 q -6 844 58 844 m -6 908 q 56 934 32 908 q 81 996 81 960 q 55 1058 81 1033 q -6 1083 29 1083 q -69 1058 -43 1083 q -94 996 -94 1033 q -70 934 -94 960 q -6 908 -46 908 z "},"s":{"ha":667,"x_min":57,"x_max":606,"o":"m 606 206 q 574 90 606 140 q 478 13 543 40 q 311 -14 413 -14 q 170 -1 233 -14 q 57 32 107 11 l 57 138 q 185 94 118 108 q 307 81 251 81 q 445 112 403 81 q 488 199 488 143 q 464 264 488 239 q 395 307 440 289 q 288 346 350 325 q 174 392 224 368 q 98 456 125 417 q 71 561 71 496 q 146 709 71 658 q 347 760 221 760 q 477 747 417 760 q 592 710 538 733 l 556 624 q 453 658 510 646 q 347 671 396 671 q 231 645 274 671 q 189 568 189 619 q 211 503 189 526 q 276 465 233 481 q 376 429 318 450 q 492 381 440 407 q 575 315 544 356 q 606 206 606 275 z "},"ś":{"ha":667,"x_min":57,"x_max":606,"o":"m 606 206 q 574 90 606 140 q 478 13 543 40 q 311 -14 413 -14 q 170 -1 233 -14 q 57 32 107 11 l 57 138 q 185 94 118 108 q 307 81 251 81 q 445 112 403 81 q 488 199 488 143 q 464 264 488 239 q 395 307 440 289 q 288 346 350 325 q 174 392 224 368 q 98 456 125 417 q 71 561 71 496 q 146 709 71 658 q 347 760 221 760 q 477 747 417 760 q 592 710 538 733 l 556 624 q 453 658 510 646 q 347 671 396 671 q 231 645 274 671 q 189 568 189 619 q 211 503 189 526 q 276 465 233 481 q 376 429 318 450 q 492 381 440 407 q 575 315 544 356 q 606 206 606 275 m 563 1053 q 513 1003 543 1031 q 451 947 483 975 q 385 891 418 918 q 325 842 353 864 l 240 842 l 240 854 q 305 919 269 882 q 374 996 340 957 q 428 1064 408 1035 l 563 1064 l 563 1053 z "},"š":{"ha":667,"x_min":57,"x_max":606,"o":"m 606 206 q 574 90 606 140 q 478 13 543 40 q 311 -14 413 -14 q 170 -1 233 -14 q 57 32 107 11 l 57 138 q 185 94 118 108 q 307 81 251 81 q 445 112 403 81 q 488 199 488 143 q 464 264 488 239 q 395 307 440 289 q 288 346 350 325 q 174 392 224 368 q 98 456 125 417 q 71 561 71 496 q 146 709 71 658 q 347 760 221 760 q 477 747 417 760 q 592 710 538 733 l 556 624 q 453 658 510 646 q 347 671 396 671 q 231 645 274 671 q 189 568 189 619 q 211 503 189 526 q 276 465 233 481 q 376 429 318 450 q 492 381 440 407 q 575 315 544 356 q 606 206 606 275 m 271 842 q 223 910 251 872 q 163 985 194 947 q 106 1049 132 1022 l 106 1061 l 189 1061 q 263 990 228 1029 q 329 915 297 951 q 398 990 361 951 q 472 1061 435 1029 l 556 1061 l 556 1049 q 499 985 531 1022 q 438 910 467 949 q 389 842 408 872 l 271 842 z "},"ş":{"ha":667,"x_min":57,"x_max":606,"o":"m 606 206 q 574 90 606 140 q 478 13 543 40 q 311 -14 413 -14 q 170 -1 233 -14 q 57 32 107 11 l 57 138 q 185 94 118 108 q 307 81 251 81 q 445 112 403 81 q 488 199 488 143 q 464 264 488 239 q 395 307 440 289 q 288 346 350 325 q 174 392 224 368 q 98 456 125 417 q 71 561 71 496 q 146 709 71 658 q 347 760 221 760 q 477 747 417 760 q 592 710 538 733 l 556 624 q 453 658 510 646 q 347 671 396 671 q 231 645 274 671 q 189 568 189 619 q 211 503 189 526 q 276 465 233 481 q 376 429 318 450 q 492 381 440 407 q 575 315 544 356 q 606 206 606 275 m 467 -190 q 419 -294 467 -254 q 299 -333 372 -333 q 238 -329 264 -333 q 193 -319 211 -325 l 193 -250 q 232 -258 213 -256 q 276 -260 251 -260 q 346 -240 318 -260 q 374 -185 374 -221 q 343 -131 374 -149 q 247 -110 313 -112 l 300 0 l 372 0 l 339 -72 q 403 -89 374 -75 q 449 -128 432 -103 q 467 -190 467 -153 z "},"ș":{"ha":667,"x_min":57,"x_max":606,"o":"m 606 206 q 574 90 606 140 q 478 13 543 40 q 311 -14 413 -14 q 170 -1 233 -14 q 57 32 107 11 l 57 138 q 185 94 118 108 q 307 81 251 81 q 445 112 403 81 q 488 199 488 143 q 464 264 488 239 q 395 307 440 289 q 288 346 350 325 q 174 392 224 368 q 98 456 125 417 q 71 561 71 496 q 146 709 71 658 q 347 760 221 760 q 477 747 417 760 q 592 710 538 733 l 556 624 q 453 658 510 646 q 347 671 396 671 q 231 645 274 671 q 189 568 189 619 q 211 503 189 526 q 276 465 233 481 q 376 429 318 450 q 492 381 440 407 q 575 315 544 356 q 606 206 606 275 m 414 -96 q 375 -203 397 -150 q 319 -307 353 -256 l 246 -307 l 246 -294 q 267 -232 256 -271 q 287 -153 278 -193 q 299 -85 296 -112 l 414 -85 l 414 -96 z "},"§":{"ha":710,"x_min":86,"x_max":608,"o":"m 99 547 q 138 651 99 610 q 233 717 176 693 q 144 779 178 743 q 110 875 110 815 q 177 1010 110 960 q 364 1060 244 1060 q 488 1047 429 1060 q 592 1013 546 1033 l 558 936 q 465 970 518 957 q 364 983 413 983 q 249 956 290 983 q 207 875 207 929 q 228 818 207 840 q 287 780 249 796 q 376 746 325 764 q 495 696 443 722 q 578 632 547 669 q 608 535 608 594 q 574 422 608 467 q 492 350 540 378 q 567 289 538 326 q 597 192 597 251 q 528 49 597 104 q 322 -7 460 -7 q 190 8 250 -7 q 86 43 129 22 l 86 131 q 164 99 124 113 q 244 77 204 85 q 322 69 285 69 q 459 103 418 69 q 500 190 500 136 q 478 252 500 228 q 418 294 457 276 q 324 331 379 313 q 208 379 260 354 q 128 443 157 404 q 99 547 99 482 m 194 556 q 216 487 194 513 q 276 443 238 461 q 363 406 314 425 l 422 386 q 487 440 461 404 q 513 522 513 475 q 462 617 513 583 q 311 682 411 651 q 229 638 264 667 q 194 556 194 608 z "},";":{"ha":346,"x_min":47,"x_max":249,"o":"m 239 161 q 212 48 228 110 q 177 -74 196 -14 q 138 -185 158 -135 l 47 -185 q 72 -87 61 -135 q 92 5 83 -40 q 109 94 101 50 q 121 176 117 138 l 232 176 l 239 161 m 97 678 q 117 735 97 715 q 172 754 138 754 q 229 735 210 754 q 249 678 249 715 q 229 622 249 640 q 172 603 210 603 q 117 622 138 603 q 97 678 97 640 z "},"/":{"ha":510,"x_min":14,"x_max":497,"o":"m 497 997 l 126 -6 l 14 -6 l 385 997 l 497 997 z "},"£":{"ha":800,"x_min":63,"x_max":746,"o":"m 482 1006 q 608 992 551 1006 q 714 960 665 979 l 678 864 q 585 893 629 883 q 493 903 542 903 q 374 856 415 903 q 332 707 332 810 l 332 549 l 592 549 l 592 456 l 332 456 l 332 304 q 317 208 332 247 q 276 144 301 168 q 222 104 251 119 l 746 104 l 746 0 l 63 0 l 63 100 q 145 138 113 114 q 194 203 178 163 q 211 303 211 243 l 211 456 l 76 456 l 76 549 l 211 549 l 211 714 q 244 877 211 813 q 337 974 276 942 q 482 1006 397 1006 z "},"t":{"ha":517,"x_min":22,"x_max":476,"o":"m 360 86 q 422 92 394 86 q 476 108 450 99 l 476 14 q 412 -6 446 3 q 326 -14 378 -14 q 215 10 258 -14 q 149 86 171 35 q 128 217 128 138 l 128 650 l 22 650 l 22 710 l 136 744 l 167 918 l 250 918 l 250 746 l 471 746 l 471 650 l 250 650 l 250 226 q 274 122 250 158 q 360 86 299 86 z "},"ť":{"ha":517,"x_min":22,"x_max":647,"o":"m 360 86 q 422 92 394 86 q 476 108 450 99 l 476 14 q 412 -6 446 3 q 326 -14 378 -14 q 215 10 258 -14 q 149 86 171 35 q 128 217 128 138 l 128 650 l 22 650 l 22 710 l 136 744 l 167 918 l 250 918 l 250 746 l 471 746 l 471 650 l 250 650 l 250 226 q 274 122 250 158 q 360 86 299 86 m 647 1044 q 620 975 635 1010 q 589 905 606 940 q 550 833 572 869 l 476 833 l 476 846 q 492 890 483 864 q 508 947 500 917 q 522 1005 515 976 q 532 1056 529 1033 l 647 1056 l 647 1044 z "},"ț":{"ha":517,"x_min":22,"x_max":476,"o":"m 360 86 q 422 92 394 86 q 476 108 450 99 l 476 14 q 412 -6 446 3 q 326 -14 378 -14 q 215 10 258 -14 q 149 86 171 35 q 128 217 128 138 l 128 650 l 22 650 l 22 710 l 136 744 l 167 918 l 250 918 l 250 746 l 471 746 l 471 650 l 250 650 l 250 226 q 274 122 250 158 q 360 86 299 86 m 388 -96 q 349 -203 371 -150 q 293 -307 326 -256 l 219 -307 l 219 -294 q 240 -232 229 -271 q 260 -153 251 -193 q 272 -85 269 -112 l 388 -85 l 388 -96 z "},"þ":{"ha":842,"x_min":114,"x_max":769,"o":"m 769 378 q 733 165 769 253 q 629 31 696 76 q 469 -14 563 -14 q 360 6 407 -14 q 283 58 314 25 q 236 128 253 90 l 231 128 q 235 52 233 92 q 236 -24 236 13 l 236 -326 l 114 -326 l 114 1056 l 236 1056 l 236 764 q 234 678 236 722 q 229 604 232 633 l 236 604 q 284 681 251 646 q 366 738 317 717 q 482 760 415 760 q 694 663 618 760 q 769 378 769 565 m 644 379 q 595 591 644 521 q 446 661 546 661 q 289 588 340 661 q 236 383 238 515 l 236 372 q 289 158 236 228 q 438 88 342 88 q 551 121 506 88 q 621 219 597 154 q 644 379 644 283 z "},"˜":{"ha":607,"x_min":56,"x_max":551,"o":"m 56 851 q 69 930 58 897 q 99 983 81 963 q 142 1013 117 1003 q 197 1024 167 1024 q 256 1010 229 1024 q 307 978 282 996 q 357 947 332 961 q 410 933 382 933 q 456 951 433 933 q 483 1024 478 968 l 551 1024 q 507 893 546 935 q 410 851 468 851 q 350 865 378 851 q 297 895 322 878 q 248 926 272 913 q 196 940 224 940 q 152 924 174 940 q 124 851 131 907 l 56 851 z "},"̃":{"ha":0,"x_min":-706,"x_max":-210,"o":"m -706 851 q -692 930 -703 897 q -662 983 -681 963 q -619 1013 -644 1003 q -564 1024 -594 1024 q -506 1010 -532 1024 q -454 978 -479 996 q -404 947 -429 961 q -351 933 -379 933 q -306 951 -328 933 q -278 1024 -283 968 l -210 1024 q -254 893 -215 935 q -351 851 -293 851 q -411 865 -383 851 q -464 895 -439 878 q -513 926 -489 913 q -565 940 -537 940 q -609 924 -587 940 q -637 851 -631 907 l -706 851 z "},"™":{"ha":1000,"x_min":8,"x_max":901,"o":"m 414 503 l 414 992 l 521 992 l 657 599 l 800 992 l 901 992 l 901 503 l 829 503 l 829 765 q 830 833 829 801 q 832 901 831 865 l 828 901 l 686 503 l 624 503 l 488 904 l 483 904 q 485 838 485 869 q 486 771 486 807 l 486 503 l 414 503 m 147 503 l 147 925 l 8 925 l 8 992 l 360 992 l 360 925 l 219 925 l 219 503 l 147 503 z "},"u":{"ha":846,"x_min":106,"x_max":732,"o":"m 732 746 l 732 0 l 639 0 l 624 132 l 615 132 q 563 58 597 92 q 478 6 528 25 q 363 -14 428 -14 q 224 16 282 -14 q 136 107 167 46 q 106 258 106 168 l 106 746 l 228 746 l 228 292 q 270 137 228 188 q 396 86 313 86 q 512 117 464 86 q 585 207 560 147 q 610 358 610 267 l 610 746 l 732 746 z "},"ú":{"ha":846,"x_min":106,"x_max":732,"o":"m 732 746 l 732 0 l 639 0 l 624 132 l 615 132 q 563 58 597 92 q 478 6 528 25 q 363 -14 428 -14 q 224 16 282 -14 q 136 107 167 46 q 106 258 106 168 l 106 746 l 228 746 l 228 292 q 270 137 228 188 q 396 86 313 86 q 512 117 464 86 q 585 207 560 147 q 610 358 610 267 l 610 746 l 732 746 m 656 1053 q 606 1003 636 1031 q 544 947 576 975 q 478 891 511 918 q 418 842 446 864 l 333 842 l 333 854 q 398 919 363 882 q 467 996 433 957 q 521 1064 501 1035 l 656 1064 l 656 1053 z "},"û":{"ha":846,"x_min":106,"x_max":732,"o":"m 732 746 l 732 0 l 639 0 l 624 132 l 615 132 q 563 58 597 92 q 478 6 528 25 q 363 -14 428 -14 q 224 16 282 -14 q 136 107 167 46 q 106 258 106 168 l 106 746 l 228 746 l 228 292 q 270 137 228 188 q 396 86 313 86 q 512 117 464 86 q 585 207 560 147 q 610 358 610 267 l 610 746 l 732 746 m 485 1061 q 532 994 503 1032 q 592 919 561 956 q 649 854 624 882 l 649 842 l 565 842 q 492 913 528 874 q 424 989 456 953 q 356 914 392 953 q 282 842 321 875 l 199 842 l 199 854 q 256 919 225 882 q 317 994 288 956 q 365 1061 347 1032 l 485 1061 z "},"ü":{"ha":846,"x_min":106,"x_max":732,"o":"m 732 746 l 732 0 l 639 0 l 624 132 l 615 132 q 563 58 597 92 q 478 6 528 25 q 363 -14 428 -14 q 224 16 282 -14 q 136 107 167 46 q 106 258 106 168 l 106 746 l 228 746 l 228 292 q 270 137 228 188 q 396 86 313 86 q 512 117 464 86 q 585 207 560 147 q 610 358 610 267 l 610 746 l 732 746 m 218 949 q 235 997 218 979 q 282 1015 251 1015 q 331 997 314 1015 q 347 949 347 979 q 331 899 347 917 q 282 882 314 882 q 235 899 251 882 q 218 949 218 917 m 501 949 q 518 997 501 979 q 564 1015 535 1015 q 614 997 597 1015 q 631 949 631 979 q 614 899 631 917 q 564 882 597 882 q 518 899 535 882 q 501 949 501 917 z "},"ù":{"ha":846,"x_min":106,"x_max":732,"o":"m 732 746 l 732 0 l 639 0 l 624 132 l 615 132 q 563 58 597 92 q 478 6 528 25 q 363 -14 428 -14 q 224 16 282 -14 q 136 107 167 46 q 106 258 106 168 l 106 746 l 228 746 l 228 292 q 270 137 228 188 q 396 86 313 86 q 512 117 464 86 q 585 207 560 147 q 610 358 610 267 l 610 746 l 732 746 m 399 1064 q 453 996 419 1035 q 522 919 486 957 q 585 854 558 882 l 585 842 l 501 842 q 441 891 474 864 q 375 947 408 918 q 313 1003 342 975 q 263 1053 283 1031 l 263 1064 l 399 1064 z "},"ű":{"ha":846,"x_min":106,"x_max":732,"o":"m 732 746 l 732 0 l 639 0 l 624 132 l 615 132 q 563 58 597 92 q 478 6 528 25 q 363 -14 428 -14 q 224 16 282 -14 q 136 107 167 46 q 106 258 106 168 l 106 746 l 228 746 l 228 292 q 270 137 228 188 q 396 86 313 86 q 512 117 464 86 q 585 207 560 147 q 610 358 610 267 l 610 746 l 732 746 m 686 1053 q 649 1003 672 1031 q 597 946 625 975 q 540 890 568 917 q 488 842 513 864 l 418 842 l 418 854 q 469 919 440 882 q 523 994 497 956 q 565 1064 549 1033 l 686 1064 l 686 1053 m 429 1053 q 392 1003 415 1031 q 340 946 368 975 q 283 890 311 917 q 231 842 254 864 l 161 842 l 161 854 q 213 919 185 882 q 266 994 240 956 q 308 1064 292 1033 l 429 1064 l 429 1053 z "},"ū":{"ha":846,"x_min":106,"x_max":732,"o":"m 732 746 l 732 0 l 639 0 l 624 132 l 615 132 q 563 58 597 92 q 478 6 528 25 q 363 -14 428 -14 q 224 16 282 -14 q 136 107 167 46 q 106 258 106 168 l 106 746 l 228 746 l 228 292 q 270 137 228 188 q 396 86 313 86 q 512 117 464 86 q 585 207 560 147 q 610 358 610 267 l 610 746 l 732 746 m 628 929 l 628 849 l 221 849 l 221 929 l 628 929 z "},"_":{"ha":600,"x_min":-3,"x_max":603,"o":"m 603 -197 l -3 -197 l -3 -112 l 603 -112 l 603 -197 z "},"ų":{"ha":846,"x_min":106,"x_max":740,"o":"m 732 746 l 732 0 l 639 0 l 624 132 l 615 132 q 563 58 597 92 q 478 6 528 25 q 363 -14 428 -14 q 224 16 282 -14 q 136 107 167 46 q 106 258 106 168 l 106 746 l 228 746 l 228 292 q 270 137 228 188 q 396 86 313 86 q 512 117 464 86 q 585 207 560 147 q 610 358 610 267 l 610 746 l 732 746 m 599 -164 q 617 -217 599 -199 q 668 -235 635 -235 q 708 -231 688 -235 q 740 -222 728 -228 l 740 -300 q 703 -309 725 -304 q 653 -314 681 -314 q 552 -280 593 -314 q 511 -183 511 -246 q 544 -85 511 -135 q 657 22 578 -35 l 713 0 q 632 -80 665 -40 q 599 -164 599 -119 z "},"ů":{"ha":846,"x_min":106,"x_max":732,"o":"m 732 746 l 732 0 l 639 0 l 624 132 l 615 132 q 563 58 597 92 q 478 6 528 25 q 363 -14 428 -14 q 224 16 282 -14 q 136 107 167 46 q 106 258 106 168 l 106 746 l 228 746 l 228 292 q 270 137 228 188 q 396 86 313 86 q 512 117 464 86 q 585 207 560 147 q 610 358 610 267 l 610 746 l 732 746 m 424 844 q 313 886 358 844 q 268 996 268 928 q 313 1106 268 1064 q 424 1147 357 1147 q 533 1104 488 1147 q 579 996 579 1061 q 533 886 579 928 q 424 844 488 844 m 424 908 q 485 934 461 908 q 510 996 510 960 q 484 1058 510 1033 q 424 1083 458 1083 q 360 1058 386 1083 q 335 996 335 1033 q 359 934 335 960 q 424 908 383 908 z "},"v":{"ha":692,"x_min":0,"x_max":692,"o":"m 288 0 l 0 746 l 128 746 l 307 238 q 327 179 318 208 q 343 119 336 150 l 346 119 q 363 178 354 150 q 383 238 371 206 l 564 746 l 692 746 l 404 0 l 288 0 z "},"w":{"ha":1068,"x_min":21,"x_max":1049,"o":"m 582 463 q 567 522 575 492 q 553 579 560 551 q 542 631 547 607 l 539 631 q 526 578 533 607 q 513 519 519 549 q 497 460 506 489 l 356 -1 l 232 -1 l 21 746 l 143 746 l 258 313 q 275 240 268 274 q 288 176 282 207 q 297 118 294 146 l 300 118 q 308 163 303 139 q 318 210 313 186 q 331 259 324 235 q 344 307 338 283 l 479 746 l 607 746 l 735 307 q 752 242 744 275 q 767 177 760 208 q 779 118 775 146 l 782 118 q 790 178 785 146 q 803 244 796 210 q 818 313 810 278 l 931 746 l 1049 746 l 847 -1 l 722 -1 l 582 463 z "},"ẃ":{"ha":1068,"x_min":21,"x_max":1049,"o":"m 582 463 q 567 522 575 492 q 553 579 560 551 q 542 631 547 607 l 539 631 q 526 578 533 607 q 513 519 519 549 q 497 460 506 489 l 356 -1 l 232 -1 l 21 746 l 143 746 l 258 313 q 275 240 268 274 q 288 176 282 207 q 297 118 294 146 l 300 118 q 308 163 303 139 q 318 210 313 186 q 331 259 324 235 q 344 307 338 283 l 479 746 l 607 746 l 735 307 q 752 242 744 275 q 767 177 760 208 q 779 118 775 146 l 782 118 q 790 178 785 146 q 803 244 796 210 q 818 313 810 278 l 931 746 l 1049 746 l 847 -1 l 722 -1 l 582 463 m 767 1053 q 717 1003 747 1031 q 655 947 688 975 q 590 891 622 918 q 529 842 557 864 l 444 842 l 444 854 q 509 919 474 882 q 578 996 544 957 q 632 1064 613 1035 l 767 1064 l 767 1053 z "},"ŵ":{"ha":1068,"x_min":21,"x_max":1049,"o":"m 582 463 q 567 522 575 492 q 553 579 560 551 q 542 631 547 607 l 539 631 q 526 578 533 607 q 513 519 519 549 q 497 460 506 489 l 356 -1 l 232 -1 l 21 746 l 143 746 l 258 313 q 275 240 268 274 q 288 176 282 207 q 297 118 294 146 l 300 118 q 308 163 303 139 q 318 210 313 186 q 331 259 324 235 q 344 307 338 283 l 479 746 l 607 746 l 735 307 q 752 242 744 275 q 767 177 760 208 q 779 118 775 146 l 782 118 q 790 178 785 146 q 803 244 796 210 q 818 313 810 278 l 931 746 l 1049 746 l 847 -1 l 722 -1 l 582 463 m 596 1061 q 643 994 614 1032 q 703 919 672 956 q 760 854 735 882 l 760 842 l 676 842 q 603 913 639 874 q 535 989 567 953 q 467 914 503 953 q 393 842 432 875 l 310 842 l 310 854 q 367 919 336 882 q 428 994 399 956 q 476 1061 458 1032 l 596 1061 z "},"ẅ":{"ha":1068,"x_min":21,"x_max":1049,"o":"m 582 463 q 567 522 575 492 q 553 579 560 551 q 542 631 547 607 l 539 631 q 526 578 533 607 q 513 519 519 549 q 497 460 506 489 l 356 -1 l 232 -1 l 21 746 l 143 746 l 258 313 q 275 240 268 274 q 288 176 282 207 q 297 118 294 146 l 300 118 q 308 163 303 139 q 318 210 313 186 q 331 259 324 235 q 344 307 338 283 l 479 746 l 607 746 l 735 307 q 752 242 744 275 q 767 177 760 208 q 779 118 775 146 l 782 118 q 790 178 785 146 q 803 244 796 210 q 818 313 810 278 l 931 746 l 1049 746 l 847 -1 l 722 -1 l 582 463 m 329 949 q 346 997 329 979 q 393 1015 363 1015 q 442 997 425 1015 q 458 949 458 979 q 442 899 458 917 q 393 882 425 882 q 346 899 363 882 q 329 949 329 917 m 613 949 q 629 997 613 979 q 675 1015 646 1015 q 725 997 708 1015 q 742 949 742 979 q 725 899 742 917 q 675 882 708 882 q 629 899 646 882 q 613 949 613 917 z "},"ẁ":{"ha":1068,"x_min":21,"x_max":1049,"o":"m 582 463 q 567 522 575 492 q 553 579 560 551 q 542 631 547 607 l 539 631 q 526 578 533 607 q 513 519 519 549 q 497 460 506 489 l 356 -1 l 232 -1 l 21 746 l 143 746 l 258 313 q 275 240 268 274 q 288 176 282 207 q 297 118 294 146 l 300 118 q 308 163 303 139 q 318 210 313 186 q 331 259 324 235 q 344 307 338 283 l 479 746 l 607 746 l 735 307 q 752 242 744 275 q 767 177 760 208 q 779 118 775 146 l 782 118 q 790 178 785 146 q 803 244 796 210 q 818 313 810 278 l 931 746 l 1049 746 l 847 -1 l 722 -1 l 582 463 m 510 1064 q 564 996 531 1035 q 633 919 597 957 q 696 854 669 882 l 696 842 l 613 842 q 552 891 585 864 q 486 947 519 918 q 424 1003 453 975 q 374 1053 394 1031 l 374 1064 l 510 1064 z "},"x":{"ha":744,"x_min":25,"x_max":715,"o":"m 286 383 l 38 746 l 179 746 l 369 460 l 561 746 l 701 746 l 453 383 l 715 0 l 575 0 l 369 307 l 165 0 l 25 0 l 286 383 z "},"y":{"ha":689,"x_min":0,"x_max":692,"o":"m 0 746 l 128 746 l 296 272 q 316 214 307 240 q 332 165 325 188 q 343 124 339 142 l 347 124 q 367 188 356 153 q 396 268 379 224 l 567 746 l 692 746 l 361 -118 q 300 -239 333 -190 q 221 -312 267 -287 q 108 -336 175 -336 q 62 -333 83 -336 q 21 -324 40 -329 l 21 -222 q 58 -231 39 -228 q 99 -235 76 -235 q 165 -218 138 -235 q 212 -169 192 -201 q 251 -87 232 -136 l 288 10 l 0 746 z "},"ý":{"ha":689,"x_min":0,"x_max":692,"o":"m 0 746 l 128 746 l 296 272 q 316 214 307 240 q 332 165 325 188 q 343 124 339 142 l 347 124 q 367 188 356 153 q 396 268 379 224 l 567 746 l 692 746 l 361 -118 q 300 -239 333 -190 q 221 -312 267 -287 q 108 -336 175 -336 q 62 -333 83 -336 q 21 -324 40 -329 l 21 -222 q 58 -231 39 -228 q 99 -235 76 -235 q 165 -218 138 -235 q 212 -169 192 -201 q 251 -87 232 -136 l 288 10 l 0 746 m 578 1053 q 528 1003 558 1031 q 466 947 499 975 q 401 891 433 918 q 340 842 368 864 l 256 842 l 256 854 q 320 919 285 882 q 390 996 356 957 q 443 1064 424 1035 l 578 1064 l 578 1053 z "},"ŷ":{"ha":689,"x_min":0,"x_max":692,"o":"m 0 746 l 128 746 l 296 272 q 316 214 307 240 q 332 165 325 188 q 343 124 339 142 l 347 124 q 367 188 356 153 q 396 268 379 224 l 567 746 l 692 746 l 361 -118 q 300 -239 333 -190 q 221 -312 267 -287 q 108 -336 175 -336 q 62 -333 83 -336 q 21 -324 40 -329 l 21 -222 q 58 -231 39 -228 q 99 -235 76 -235 q 165 -218 138 -235 q 212 -169 192 -201 q 251 -87 232 -136 l 288 10 l 0 746 m 407 1061 q 454 994 425 1032 q 515 919 483 956 q 571 854 546 882 l 571 842 l 488 842 q 414 913 450 874 q 346 989 378 953 q 278 914 314 953 q 204 842 243 875 l 121 842 l 121 854 q 178 919 147 882 q 240 994 210 956 q 288 1061 269 1032 l 407 1061 z "},"ÿ":{"ha":689,"x_min":0,"x_max":692,"o":"m 0 746 l 128 746 l 296 272 q 316 214 307 240 q 332 165 325 188 q 343 124 339 142 l 347 124 q 367 188 356 153 q 396 268 379 224 l 567 746 l 692 746 l 361 -118 q 300 -239 333 -190 q 221 -312 267 -287 q 108 -336 175 -336 q 62 -333 83 -336 q 21 -324 40 -329 l 21 -222 q 58 -231 39 -228 q 99 -235 76 -235 q 165 -218 138 -235 q 212 -169 192 -201 q 251 -87 232 -136 l 288 10 l 0 746 m 139 949 q 156 997 139 979 q 203 1015 172 1015 q 251 997 235 1015 q 268 949 268 979 q 251 899 268 917 q 203 882 235 882 q 156 899 172 882 q 139 949 139 917 m 422 949 q 439 997 422 979 q 485 1015 456 1015 q 535 997 518 1015 q 551 949 551 979 q 535 899 551 917 q 485 882 518 882 q 439 899 456 882 q 422 949 422 917 z "},"¥":{"ha":800,"x_min":24,"x_max":776,"o":"m 401 536 l 647 992 l 776 992 l 476 471 l 672 471 l 672 396 l 458 396 l 458 269 l 672 269 l 672 194 l 458 194 l 458 0 l 343 0 l 343 194 l 128 194 l 128 269 l 343 269 l 343 396 l 128 396 l 128 471 l 321 471 l 24 992 l 153 992 l 401 536 z "},"ỳ":{"ha":689,"x_min":0,"x_max":692,"o":"m 0 746 l 128 746 l 296 272 q 316 214 307 240 q 332 165 325 188 q 343 124 339 142 l 347 124 q 367 188 356 153 q 396 268 379 224 l 567 746 l 692 746 l 361 -118 q 300 -239 333 -190 q 221 -312 267 -287 q 108 -336 175 -336 q 62 -333 83 -336 q 21 -324 40 -329 l 21 -222 q 58 -231 39 -228 q 99 -235 76 -235 q 165 -218 138 -235 q 212 -169 192 -201 q 251 -87 232 -136 l 288 10 l 0 746 m 319 1064 q 374 996 340 1035 q 443 919 407 957 q 506 854 479 882 l 506 842 l 422 842 q 362 891 394 864 q 296 947 329 918 q 233 1003 263 975 q 183 1053 204 1031 l 183 1064 l 319 1064 z "},"z":{"ha":660,"x_min":49,"x_max":608,"o":"m 608 0 l 49 0 l 49 72 l 460 649 l 78 649 l 78 746 l 606 746 l 606 672 l 199 97 l 608 97 l 608 0 z "},"ź":{"ha":660,"x_min":49,"x_max":608,"o":"m 608 0 l 49 0 l 49 72 l 460 649 l 78 649 l 78 746 l 606 746 l 606 672 l 199 97 l 608 97 l 608 0 m 563 1053 q 513 1003 543 1031 q 451 947 483 975 q 385 891 418 918 q 325 842 353 864 l 240 842 l 240 854 q 305 919 269 882 q 374 996 340 957 q 428 1064 408 1035 l 563 1064 l 563 1053 z "},"ž":{"ha":660,"x_min":49,"x_max":608,"o":"m 608 0 l 49 0 l 49 72 l 460 649 l 78 649 l 78 746 l 606 746 l 606 672 l 199 97 l 608 97 l 608 0 m 271 842 q 223 910 251 872 q 163 985 194 947 q 106 1049 132 1022 l 106 1061 l 189 1061 q 263 990 228 1029 q 329 915 297 951 q 398 990 361 951 q 472 1061 435 1029 l 556 1061 l 556 1049 q 499 985 531 1022 q 438 910 467 949 q 389 842 408 872 l 271 842 z "},"ż":{"ha":660,"x_min":49,"x_max":608,"o":"m 608 0 l 49 0 l 49 72 l 460 649 l 78 649 l 78 746 l 606 746 l 606 672 l 199 97 l 608 97 l 608 0 m 331 1031 q 387 1013 367 1031 q 407 958 407 996 q 387 906 407 922 q 331 889 367 889 q 275 906 294 889 q 256 958 256 922 q 275 1013 256 996 q 331 1031 294 1031 z "},"ˉ":{"ha":518,"x_min":56,"x_max":463,"o":"m 463 929 l 463 849 l 56 849 l 56 929 l 463 929 z "}}}
